<?xml version="1.0" encoding="UTF-8" standalone="no"?>
<svg
   xmlns:dc="http://purl.org/dc/elements/1.1/"
   xmlns:cc="http://creativecommons.org/ns#"
   xmlns:rdf="http://www.w3.org/1999/02/22-rdf-syntax-ns#"
   xmlns:svg="http://www.w3.org/2000/svg"
   xmlns="http://www.w3.org/2000/svg"
   xmlns:sodipodi="http://sodipodi.sourceforge.net/DTD/sodipodi-0.dtd"
   xmlns:inkscape="http://www.inkscape.org/namespaces/inkscape"
   width="144.49777mm"
   height="144.52855mm"
   viewBox="0 0 144.49777 144.52855"
   version="1.1"
   id="svg1475"
   inkscape:version="1.0.2-2 (e86c870879, 2021-01-15)"
   sodipodi:docname="PostHCI.svg">
  <defs
     id="defs1469" />
  <sodipodi:namedview
     id="base"
     pagecolor="#ffffff"
     bordercolor="#666666"
     borderopacity="1.0"
     inkscape:pageopacity="0.0"
     inkscape:pageshadow="2"
     inkscape:zoom="0.98994949"
     inkscape:cx="532.39875"
     inkscape:cy="187.31638"
     inkscape:document-units="mm"
     inkscape:current-layer="g2152"
     inkscape:document-rotation="0"
     showgrid="false"
     inkscape:window-width="2560"
     inkscape:window-height="1385"
     inkscape:window-x="2552"
     inkscape:window-y="-8"
     inkscape:window-maximized="1" />
  <metadata
     id="metadata1472">
    <rdf:RDF>
      <cc:Work
         rdf:about="">
        <dc:format>image/svg+xml</dc:format>
        <dc:type
           rdf:resource="http://purl.org/dc/dcmitype/StillImage" />
        <dc:title></dc:title>
      </cc:Work>
    </rdf:RDF>
  </metadata>
  <g
     inkscape:label="Layer 1"
     inkscape:groupmode="layer"
     id="layer1"
     transform="translate(-25.195127,-12.540184)">
    <g
       id="g2152"
       transform="translate(-12.73374,-60.866058)">
      <path
         style="fill:#fefefe;stroke-width:0.282222"
         d="M 37.928867,145.65513 V 73.406242 h 72.248883 72.24889 v 72.248888 72.24888 H 110.17775 37.928867 Z"
         id="path2192" />
      <path
         style="fill:#e5e8eb;stroke-width:0.282222"
         d="m 53.507533,217.56535 c -0.554491,-0.5545 -0.467948,-13.19887 0.09964,-14.55762 0.581223,-1.39141 1.706138,-2.55487 3.089473,-3.19533 1.05746,-0.48959 2.169063,-0.52305 17.568332,-0.52886 l 16.439444,-0.006 v -6.15306 -6.15305 l -2.596941,-1.66959 c -3.018412,-1.94056 -7.50938,-6.13384 -9.817275,-9.16652 -2.118695,-2.78408 -3.994943,-6.05478 -5.222499,-9.10395 -1.009952,-2.50865 -2.393792,-7.4627 -2.398488,-8.58642 -0.0025,-0.61232 -0.04014,-0.61645 -6.423129,-0.70556 -9.510548,-0.13277 -8.869511,0.84924 -8.758841,-13.4177 0.08041,-10.36542 0.08135,-10.37977 0.7402,-11.3035 0.45839,-0.64268 1.039689,-1.02655 1.904999,-1.25798 l 1.245309,-0.33307 v -6.84598 c 0,-6.4403 -0.03182,-6.86301 -0.536953,-7.13335 -0.295324,-0.15805 -0.817013,-0.8659 -1.159309,-1.57298 -1.494384,-3.08699 0.651878,-6.34396 4.180511,-6.34396 4.039032,0 5.910614,5.35533 2.7425,7.84737 l -0.711194,0.55942 v 6.80328 6.80327 h 1.366201 1.366201 l 0.345178,-1.54242 c 0.189848,-0.84833 0.972058,-2.7737 1.738243,-4.27858 l 1.393066,-2.73617 v -19.5553 c 0,-13.404109 0.09982,-20.025737 0.317325,-21.050862 0.85655,-4.036936 3.769365,-7.240277 7.753321,-8.526637 1.283228,-0.414335 3.323384,-0.455936 18.908888,-0.385572 l 17.470465,0.07887 1.55222,0.737268 c 1.94246,0.922622 4.0203,2.749827 4.97017,4.370643 0.40035,0.683149 0.77667,1.242089 0.83626,1.242089 0.0596,0 1.09528,-0.344529 2.30152,-0.765621 1.97214,-0.688465 2.57711,-0.764981 6.00316,-0.759277 3.36366,0.0056 4.0745,0.09445 6.06778,0.758399 3.21769,1.0718 5.61143,2.560994 8.04333,5.003916 2.43898,2.450042 3.92666,4.83531 5.01403,8.039249 l 0.76626,2.257777 0.0864,18.556118 0.0864,18.55611 0.90402,0.004 c 1.41666,0.007 4.25179,0.75734 5.45428,1.44441 4.36565,2.49442 6.60116,6.38908 6.59418,11.48823 -0.005,3.97139 -1.1157,6.99 -3.4292,9.3234 -2.29514,2.31489 -4.73986,3.45714 -8.18772,3.82554 l -1.8836,0.20126 -0.1889,1.17927 c -0.72114,4.50204 -2.99169,10.23244 -5.84008,14.73917 -2.78282,4.40297 -8.19016,9.63066 -12.75068,12.32705 l -1.30092,0.76915 v 6.21584 6.21584 l 16.43945,0.006 c 15.39927,0.006 16.51087,0.0393 17.56833,0.52885 1.38333,0.64047 2.50825,1.80392 3.08947,3.19533 0.56759,1.35876 0.65413,14.00313 0.0996,14.55762 -0.49284,0.49283 -112.847598,0.49283 -113.340435,0 z M 93.24442,152.83872 c 3.155278,-0.96287 5.129733,-2.1494 7.5149,-4.51602 3.59196,-3.56402 5.27727,-7.57041 5.27727,-12.54535 0,-4.87855 -1.67053,-8.92299 -5.12607,-12.41049 -6.996977,-7.06169 -18.043603,-7.11523 -25.068131,-0.12149 -1.612931,1.60586 -2.2776,2.54694 -3.292342,4.66147 -1.475361,3.07437 -1.883404,4.77953 -1.883404,7.87051 0,3.09098 0.408043,4.79614 1.883404,7.87051 2.29198,4.77606 6.754633,8.3212 11.945484,9.48951 2.275349,0.51212 6.572749,0.36543 8.748889,-0.29865 z m -6.067778,-5.11137 c -6.960486,-0.87723 -11.753804,-7.09314 -10.642306,-13.80081 1.41579,-8.54403 10.973214,-12.82087 18.262306,-8.17218 5.357658,3.4169 7.081418,10.41132 3.947659,16.01822 -0.853584,1.52723 -3.292184,3.89089 -4.816621,4.6686 -1.858129,0.94795 -4.874698,1.52265 -6.751038,1.28617 z m 46.002218,-0.39254 c 3.79069,-0.98292 7.6762,-3.84186 8.91425,-6.55908 0.29949,-0.65731 0.25392,-0.8841 -0.365,-1.8164 -4.95831,-7.46887 -15.7649,-8.39536 -22.13948,-1.89811 -2.65877,2.70993 -2.68055,3.36745 -0.2003,6.04642 1.76022,1.90125 4.25726,3.44079 6.60341,4.07131 1.81872,0.48877 5.58799,0.57052 7.18712,0.15586 z m -5.18014,-1.98165 c -2.17333,-0.87047 -3.50827,-2.85112 -3.50827,-5.2052 0,-3.47888 3.23118,-6.01867 6.62217,-5.20518 5.1407,1.23323 5.63804,8.22521 0.7309,10.27554 -1.15886,0.48421 -2.82652,0.54269 -3.8448,0.13484 z"
         id="path2190" />
      <path
         style="fill:#fdd3b1;stroke-width:0.282222"
         d="m 53.612358,217.46052 c -0.378043,-0.37804 -0.442577,-1.40886 -0.437294,-6.985 0.0055,-5.75246 0.06914,-6.68008 0.527996,-7.69036 0.625807,-1.37785 2.202593,-2.74387 3.677206,-3.18568 0.751194,-0.22506 5.934204,-0.32213 17.199676,-0.32213 H 90.70442 v -6.15438 -6.15438 l -2.64843,-1.75144 c -5.3822,-3.55931 -10.440424,-9.19897 -13.375207,-14.91267 -1.627251,-3.16808 -3.232162,-7.68693 -3.761077,-10.58984 l -0.343642,-1.88604 -6.234154,-0.0895 c -5.551132,-0.0797 -6.332224,-0.14886 -7.129261,-0.63119 -1.660851,-1.00507 -1.65351,-0.94575 -1.554079,-12.5585 0.08235,-9.61743 0.137538,-10.67229 0.591864,-11.31205 0.552378,-0.77783 1.446841,-1.30273 2.633432,-1.54538 l 0.776111,-0.15871 v -6.71259 -6.7126 l -0.993231,-0.96267 c -3.74556,-3.63034 0.679178,-9.57214 5.225424,-7.017 2.616696,1.47066 3.017497,5.43641 0.731193,7.23481 l -0.749458,0.58953 0.08026,6.90182 0.08026,6.90182 -0.78784,0.45187 c -1.423915,0.81669 -1.611049,1.80389 -1.611049,8.49892 v 6.07685 h 3.668889 c 2.017889,0 3.668889,-0.0686 3.668889,-0.15236 0,-0.0838 -0.251895,-0.6461 -0.559763,-1.24958 -2.173461,-4.26034 -2.711523,-10.65343 -1.295292,-15.39029 0.417677,-1.397 1.259933,-3.4705 1.871678,-4.60778 l 1.112266,-2.06778 v -19.55425 c 0,-12.028342 0.11014,-20.139333 0.28617,-21.07444 0.668791,-3.552752 3.088451,-6.661363 6.409478,-8.234456 l 1.912129,-0.905731 h 17.779999 17.779991 l 1.92336,0.910985 c 2.06344,0.977336 4.62951,3.320302 5.23352,4.7785 l 0.34321,0.828581 2.45884,-0.851159 c 2.2618,-0.782947 2.75288,-0.849704 6.12774,-0.833009 3.22484,0.01595 3.94215,0.111212 5.92667,0.78707 6.65678,2.267069 11.40802,7.262118 13.31043,13.993475 0.48261,1.707603 0.51332,3.094497 0.44419,20.057874 l -0.0743,18.22343 2.23914,0.29562 c 6.65167,0.8782 11.03272,6.01211 11.03272,12.92863 0,5.23994 -2.49832,9.41604 -6.949,11.61569 -1.73992,0.85992 -2.48332,1.05977 -4.34244,1.16739 l -2.24313,0.12985 -0.17184,1.02242 c -1.01766,6.05474 -3.94808,12.7847 -7.67679,17.63044 -2.71959,3.53431 -7.60686,7.86596 -11.0727,9.81387 l -1.12855,0.63427 v 6.29804 6.29803 h 16.12448 c 11.26547,0 16.44849,0.0971 17.19968,0.32213 1.47461,0.44181 3.0514,1.80783 3.6772,3.18568 0.45886,1.01028 0.52255,1.9379 0.528,7.69036 0.005,5.57614 -0.0592,6.60696 -0.43729,6.985 -0.4002,0.4002 -5.92178,0.44349 -56.5654,0.44349 -50.643608,0 -56.165187,-0.0433 -56.565388,-0.44349 z m 36.83857,-55.33001 c 0.209036,-0.25187 0.429418,-1.33137 0.489737,-2.39889 l 0.109672,-1.94094 -2.783513,-0.007 c -1.530934,-0.004 -3.259765,-0.11733 -3.841848,-0.2525 l -1.058334,-0.24577 v 2.31272 c 0,1.42249 0.130364,2.44309 0.338667,2.65139 0.221118,0.22112 1.384616,0.33867 3.352111,0.33867 2.435558,0 3.086326,-0.0878 3.393508,-0.45795 z m 1.721267,-8.87915 c 0.822557,-0.1683 2.667294,-0.86816 4.099416,-1.55526 5.781689,-2.77391 9.476679,-8.36809 9.861999,-14.93097 0.43337,-7.38124 -3.63065,-14.0911 -10.418629,-17.20158 -2.591971,-1.18773 -4.404221,-1.5662 -7.499569,-1.5662 -4.879538,0 -8.727493,1.62723 -12.343655,5.21989 -3.692716,3.66872 -5.299958,7.47764 -5.299958,12.56011 0,5.06406 1.599735,8.86082 5.302724,12.5853 2.430168,2.44427 4.962649,3.93734 8.056564,4.74989 1.864433,0.48966 6.171739,0.56221 8.241108,0.13882 z m -5.5374,-5.68126 c -6.310962,-0.8058 -11.07414,-7.20953 -10.057601,-13.52166 0.952108,-5.91204 5.827677,-10.11831 11.728337,-10.11831 3.408158,0 6.160019,1.14663 8.497299,3.54062 4.59177,4.70317 4.58706,12.05127 -0.01064,16.64899 -2.720013,2.72001 -6.314536,3.94103 -10.157383,3.45036 z m 47.543565,-0.51261 c 1.01539,-0.29491 2.6064,-1.02757 3.53559,-1.62813 1.80528,-1.16681 4.27335,-3.75751 4.52828,-4.75328 0.22877,-0.8936 -0.61837,-2.30222 -2.44258,-4.0615 -2.68738,-2.59172 -6.04965,-3.9323 -9.8776,-3.93832 -4.26726,-0.007 -7.80393,1.54648 -10.68787,4.69378 -2.23614,2.44035 -2.27933,2.83269 -0.55851,5.07343 0.61035,0.79477 1.84864,1.96334 2.75176,2.59684 3.89862,2.73473 8.03003,3.38831 12.75093,2.01718 z m -6.65909,-2.1031 c -4.43544,-2.22647 -3.82353,-8.65602 0.94144,-9.89204 4.44807,-1.15381 8.20381,3.22526 6.30141,7.34722 -0.63056,1.36623 -1.52401,2.22606 -2.9186,2.80875 -1.48104,0.61882 -2.71581,0.54346 -4.32425,-0.26393 z M 98.042197,106.14402 v -1.97556 H 85.795726 c -9.531539,0 -12.278681,0.0782 -12.391765,0.35278 -0.07991,0.19403 -0.4729,1.08303 -0.873302,1.97556 l -0.72801,1.62277 h 13.119774 13.119774 z"
         id="path2188" />
      <path
         style="fill:#cdd1da;stroke-width:0.282222"
         d="m 53.612358,217.46052 c -0.378043,-0.37804 -0.442577,-1.40886 -0.437294,-6.985 0.0055,-5.75246 0.06914,-6.68008 0.527996,-7.69036 0.625807,-1.37785 2.202593,-2.74387 3.677206,-3.18568 0.751194,-0.22506 5.934204,-0.32213 17.199676,-0.32213 H 90.70442 v -6.15438 -6.15438 l -2.64843,-1.75144 c -5.3822,-3.55931 -10.440424,-9.19897 -13.375207,-14.91267 -1.627251,-3.16808 -3.232162,-7.68693 -3.761077,-10.58984 l -0.343642,-1.88604 -6.234154,-0.0895 c -5.551132,-0.0797 -6.332224,-0.14886 -7.129261,-0.63119 -1.660851,-1.00507 -1.65351,-0.94575 -1.554079,-12.5585 0.08235,-9.61743 0.137538,-10.67229 0.591864,-11.31205 0.552378,-0.77783 1.446841,-1.30273 2.633432,-1.54538 l 0.776111,-0.15871 v -6.79789 -6.7979 l -0.711194,-0.55942 c -1.614642,-1.27008 -2.062475,-3.98268 -0.953699,-5.77672 2.155182,-3.48716 7.61308,-2.1765 8.077026,1.93962 0.16111,1.42938 -0.650356,3.37604 -1.624662,3.89747 -0.555527,0.29731 -0.570483,0.51915 -0.492967,7.31228 l 0.07994,7.00566 -0.78784,0.45188 c -1.423917,0.81671 -1.611049,1.80391 -1.611049,8.49893 v 6.07685 h 3.668889 c 2.017889,0 3.668889,-0.0686 3.668889,-0.15236 0,-0.0838 -0.251895,-0.6461 -0.559763,-1.24958 -2.173461,-4.26034 -2.711523,-10.65343 -1.295292,-15.39029 0.417677,-1.397 1.259933,-3.4705 1.871678,-4.60778 l 1.112266,-2.06778 v -19.55425 c 0,-12.028342 0.11014,-20.139333 0.28617,-21.07444 0.668791,-3.552752 3.088451,-6.661363 6.409478,-8.234456 l 1.912129,-0.905731 h 17.779999 17.779995 l 1.92336,0.910985 c 2.06344,0.977336 4.62951,3.320302 5.23352,4.7785 l 0.34321,0.828581 2.45884,-0.851159 c 2.2618,-0.782947 2.75288,-0.849704 6.12774,-0.833009 3.22484,0.01595 3.94215,0.111212 5.92667,0.78707 5.40736,1.841559 9.43694,5.334081 11.87218,10.289861 1.86406,3.793413 1.9012,4.101751 1.97587,16.403618 0.0435,7.16398 -0.0171,10.38405 -0.16963,9.01065 -0.51527,-4.64053 -1.59963,-7.94437 -3.62643,-11.04913 -3.68025,-5.637566 -10.2835,-8.981754 -20.77644,-10.522125 -4.01771,-0.589803 -14.13065,-1.002341 -19.26166,-0.785743 l -4.02167,0.169769 V 105.75811 118.831 l 0.71776,0.4703 c 1.34055,0.87836 3.8321,4.19009 5.07031,6.73938 2.19923,4.52788 2.24224,4.85112 2.1463,16.12698 -0.0593,6.97056 0.0102,10.09481 0.23389,10.51277 0.29112,0.54398 0.55921,0.5947 3.14339,0.5947 2.62321,0 2.87462,0.0495 3.51784,0.69273 0.89945,0.89943 0.90565,2.11329 0.0151,2.94994 -0.64336,0.60442 -0.86229,0.63189 -4.32699,0.54309 -3.52085,-0.0902 -3.68687,-0.1222 -4.71529,-0.90744 -1.48957,-1.13736 -2.1196,-2.67326 -2.1272,-5.18573 l -0.006,-2.04851 -1.83444,1.87092 -1.83445,1.87092 v 6.31592 6.31593 h 8.85194 c 8.52793,0 8.87916,0.0214 9.59556,0.58493 0.84777,0.66686 1.00818,2.04955 0.34333,2.95947 -0.37807,0.51742 -0.9067,0.55566 -9.525,0.68894 l -9.12472,0.14111 v 10.44222 10.44222 l 2.54,0.33118 c 7.23593,0.94346 14.74653,-0.12383 21.39968,-3.041 1.42407,-0.6244 2.74796,-1.20446 2.94199,-1.28903 0.27622,-0.12039 0.35278,1.2002 0.35278,6.08532 l 1e-5,6.23909 h 16.12448 c 11.26547,0 16.44849,0.0971 17.19968,0.32213 1.47461,0.44181 3.0514,1.80783 3.6772,3.18568 0.45886,1.01028 0.52255,1.9379 0.528,7.69036 0.005,5.57614 -0.0592,6.60696 -0.43729,6.985 -0.4002,0.4002 -5.92178,0.44349 -56.5654,0.44349 -50.643612,0 -56.165191,-0.0433 -56.565392,-0.44349 z m 36.83857,-55.33001 c 0.209036,-0.25187 0.429418,-1.33137 0.489737,-2.39889 l 0.109672,-1.94094 -2.783513,-0.007 c -1.530934,-0.004 -3.259765,-0.11733 -3.841848,-0.2525 l -1.058334,-0.24577 v 2.31272 c 0,1.42249 0.130364,2.44309 0.338667,2.65139 0.221118,0.22112 1.384616,0.33867 3.352111,0.33867 2.435558,0 3.086326,-0.0878 3.393508,-0.45795 z m 1.721267,-8.87915 c 0.822557,-0.1683 2.667294,-0.86816 4.099416,-1.55526 5.781689,-2.77391 9.476679,-8.36809 9.861999,-14.93097 0.43337,-7.38124 -3.63065,-14.0911 -10.418629,-17.20158 -2.591971,-1.18773 -4.404221,-1.5662 -7.499569,-1.5662 -4.879538,0 -8.727493,1.62723 -12.343655,5.21989 -3.692716,3.66872 -5.299958,7.47764 -5.299958,12.56011 0,5.06406 1.599735,8.86082 5.302724,12.5853 2.430168,2.44427 4.962649,3.93734 8.056564,4.74989 1.864433,0.48966 6.171739,0.56221 8.241108,0.13882 z m -5.5374,-5.68126 c -6.310962,-0.8058 -11.07414,-7.20953 -10.057601,-13.52166 0.952108,-5.91204 5.827677,-10.11831 11.728337,-10.11831 3.408158,0 6.160019,1.14663 8.497299,3.54062 4.59177,4.70317 4.58706,12.05127 -0.01064,16.64899 -2.720013,2.72001 -6.314536,3.94103 -10.157383,3.45036 z m 11.407402,-41.42608 v -1.97556 H 85.795726 c -9.531539,0 -12.278681,0.0782 -12.391765,0.35278 -0.07991,0.19403 -0.4729,1.08303 -0.873302,1.97556 l -0.72801,1.62277 h 13.119774 13.119774 z m 6.696873,70.76722 c -1.19865,-0.90633 -1.05692,-2.96629 0.2449,-3.55944 0.4324,-0.19701 2.43968,-0.32112 5.19378,-0.32112 4.89056,0 5.74209,0.19335 6.16247,1.39926 0.31445,0.90204 -0.20239,2.37034 -0.93306,2.65073 -0.92417,0.35463 -10.16917,0.20781 -10.66809,-0.16943 z m 45.12101,-20.32 c 0.11883,-0.50447 0.23665,-3.83822 0.26182,-7.40834 0.0252,-3.57011 0.065,-8.93586 0.0886,-11.92388 l 0.0428,-5.43278 1.34055,0.003 c 4.03168,0.009 8.18588,2.72192 10.10038,6.59564 2.5469,5.15331 1.64917,11.61099 -2.14104,15.4012 -2.22738,2.22738 -5.75873,3.68233 -8.9375,3.68233 -0.95243,0 -0.96741,-0.0182 -0.75562,-0.91722 z m -22.34081,-11.63685 c -4.43544,-2.22647 -3.82353,-8.65602 0.94144,-9.89204 4.44807,-1.15381 8.20381,3.22526 6.30141,7.34722 -0.63056,1.36623 -1.52401,2.22606 -2.9186,2.80875 -1.48104,0.61882 -2.71581,0.54346 -4.32425,-0.26393 z m -11.32585,-17.36345 c -1.22244,-0.49254 -1.65942,-2.61541 -0.71441,-3.47064 1.33817,-1.21102 6.1996,-2.81337 10.07985,-3.32236 4.79587,-0.62909 10.89393,0.33132 15.03392,2.36775 2.16242,1.06368 2.64877,1.82989 2.0615,3.24769 -0.6447,1.55644 -1.47498,1.61934 -4.82194,0.36533 -3.7349,-1.39936 -6.48662,-1.84367 -10.21898,-1.65001 -3.08118,0.15987 -5.74371,0.77802 -8.60766,1.99842 -1.92634,0.82086 -1.92618,0.82083 -2.81228,0.46382 z"
         id="path2186" />
      <path
         style="fill:#c4cbd2;stroke-width:0.282222"
         d="m 53.612358,217.46052 c -0.378043,-0.37804 -0.442577,-1.40886 -0.437294,-6.985 0.0055,-5.75246 0.06914,-6.68008 0.527996,-7.69036 0.661498,-1.45644 2.287205,-2.80509 3.858175,-3.20067 0.807717,-0.20338 6.612119,-0.30714 17.181493,-0.30714 H 90.70442 v -6.17979 -6.17978 l -2.751667,-1.83611 c -8.817409,-5.88362 -15.253881,-15.53973 -17.015586,-25.5271 l -0.360923,-2.04611 h -6.424257 -6.424258 l -0.860064,-0.7237 c -1.168153,-0.98293 -1.437601,-2.18139 -1.439447,-6.40241 l -0.0016,-3.59833 H 62.31 69.193356 l -0.937681,-2.18723 c -2.386231,-5.5661 -2.416877,-11.85505 -0.08455,-17.35138 0.47877,-1.12827 1.109122,-2.3885 1.400785,-2.80052 0.506566,-0.7156 0.530363,-1.62466 0.531924,-20.31999 8.46e-4,-11.355217 0.117046,-20.275666 0.27656,-21.249778 0.59228,-3.61689 3.053566,-6.827662 6.477711,-8.450237 l 1.851872,-0.877532 h 17.779999 17.779994 l 1.92336,0.910985 c 2.07225,0.981506 4.63013,3.321804 5.24007,4.794324 l 0.34977,0.844406 1.74673,-0.63318 c 9.63881,-3.493999 20.20203,0.879887 24.6657,10.213264 1.84339,3.854444 1.855,3.949882 1.93627,15.902418 0.0516,7.58666 -0.005,10.27861 -0.18769,8.92053 -0.62524,-4.64951 -1.64639,-7.67054 -3.60888,-10.67678 -3.68025,-5.637566 -10.2835,-8.981754 -20.77644,-10.522125 -4.01771,-0.589803 -14.13065,-1.002341 -19.26166,-0.785743 l -4.02167,0.169769 0.004,13.008839 0.004,13.00885 1.59449,1.55222 c 2.77644,2.70284 4.7094,6.07837 5.77253,10.08054 0.54109,2.03698 0.58021,2.90609 0.53985,11.99327 -0.0294,6.60834 0.0566,9.98414 0.26395,10.37166 0.27784,0.51915 0.5798,0.57453 3.1326,0.57453 2.62321,0 2.87463,0.0495 3.51784,0.69273 0.89945,0.89943 0.90565,2.11329 0.0151,2.94994 -0.64337,0.60442 -0.8623,0.63189 -4.327,0.54309 -3.52085,-0.0902 -3.68687,-0.1222 -4.71529,-0.90744 -1.49939,-1.14487 -2.11962,-2.67022 -2.1272,-5.23155 l -0.006,-2.09433 -1.82742,1.81211 -1.82742,1.81211 -0.007,6.42056 -0.007,6.42055 h 8.85194 c 8.52793,0 8.87916,0.0214 9.59555,0.58493 0.84777,0.66686 1.00818,2.04955 0.34334,2.95947 -0.37807,0.51742 -0.90671,0.55566 -9.525,0.68894 l -9.12472,0.14111 v 10.44222 10.44222 l 2.54,0.33118 c 7.23593,0.94346 14.74653,-0.12383 21.39968,-3.041 1.42406,-0.6244 2.74796,-1.20446 2.94199,-1.28903 0.27621,-0.12039 0.35277,1.19847 0.35277,6.07669 v 6.23045 l 16.58056,0.0792 c 16.35926,0.0781 16.59562,0.0873 17.70944,0.68672 1.41696,0.76257 2.24982,1.64786 2.80875,2.98559 0.65015,1.55601 0.64448,13.79777 -0.007,14.44894 -0.4002,0.4002 -5.92178,0.44349 -56.5654,0.44349 -50.643611,0 -56.16519,-0.0433 -56.565391,-0.44349 z m 36.934949,-55.4993 c 0.288702,-0.41218 0.439335,-1.25887 0.439335,-2.46945 v -1.8422 h -2.610555 c -1.435806,0 -3.213806,-0.10303 -3.951111,-0.22896 l -1.340556,-0.22896 v 2.07117 c 0,3.17868 0.174603,3.32564 3.951111,3.32564 2.855039,0 3.103524,-0.0444 3.511776,-0.62724 z m 2.132668,-8.73424 c 0.6985,-0.16412 2.342365,-0.80747 3.653034,-1.42966 3.193033,-1.5158 6.458831,-4.72017 7.985731,-7.83553 3.47669,-7.09354 2.23679,-15.16995 -3.16698,-20.62905 -2.351734,-2.37581 -4.697757,-3.81691 -7.766229,-4.77058 -2.539791,-0.78935 -6.809901,-0.87138 -9.434057,-0.18122 -8.385552,2.20542 -13.960925,9.82031 -13.479274,18.4101 0.474534,8.46281 6.830568,15.45312 15.259823,16.78261 1.657587,0.26144 5.088255,0.0903 6.947952,-0.34667 z m -8.383196,-6.27635 c -5.367522,-1.99452 -8.445948,-7.16138 -7.665948,-12.86661 0.970458,-7.09832 8.300225,-11.76555 15.136178,-9.63796 8.573111,2.66825 11.254151,13.37092 4.936936,19.70814 -0.81365,0.81623 -1.882078,1.6923 -2.374288,1.94683 -3.250105,1.6807 -6.952536,1.99422 -10.032878,0.8496 z m 13.745418,-40.80661 v -2.25778 l -5.291666,5.6e-4 c -2.910417,2.9e-4 -8.424502,0.0839 -12.253524,0.18569 l -6.961855,0.18508 -0.869811,1.78393 c -0.478395,0.98116 -0.869809,1.84695 -0.869809,1.92399 0,0.16353 5.761544,0.28495 17.709443,0.3732 l 8.537222,0.0631 z m 6.696873,70.76722 c -1.19865,-0.90633 -1.05692,-2.96629 0.2449,-3.55944 0.4324,-0.19701 2.43968,-0.32112 5.19378,-0.32112 4.89056,0 5.74209,0.19335 6.16247,1.39926 0.31445,0.90204 -0.20239,2.37034 -0.93306,2.65073 -0.92417,0.35463 -10.16917,0.20781 -10.66809,-0.16943 z m 45.12101,-20.32 c 0.11883,-0.50447 0.23665,-3.83822 0.26182,-7.40834 0.0252,-3.57011 0.065,-8.93586 0.0886,-11.92388 l 0.0428,-5.43278 1.34055,0.003 c 4.03168,0.009 8.18588,2.72192 10.10038,6.59564 2.5469,5.15331 1.64917,11.61099 -2.14104,15.4012 -2.22738,2.22738 -5.75873,3.68233 -8.9375,3.68233 -0.95243,0 -0.96741,-0.0182 -0.75562,-0.91722 z m -22.04586,-11.44572 c -5.33366,-2.50192 -3.71343,-10.30327 2.13043,-10.258 3.92368,0.0304 6.51494,4.22115 4.73602,7.65939 -1.31647,2.54442 -4.45214,3.73112 -6.86645,2.59861 z M 59.659977,124.88186 v -6.94439 l -0.711194,-0.55942 c -1.614642,-1.27008 -2.062475,-3.98268 -0.953699,-5.77672 2.155182,-3.48716 7.61308,-2.1765 8.077026,1.93962 0.160498,1.42394 -0.649354,3.3755 -1.615277,3.89245 -0.540113,0.28906 -0.563523,0.59427 -0.563523,7.34721 v 7.04563 h -2.116667 -2.116666 z m 56.533443,2.70908 c -1.22244,-0.49254 -1.65942,-2.61541 -0.71441,-3.47064 1.33817,-1.21102 6.1996,-2.81337 10.07985,-3.32236 4.79587,-0.62909 10.89393,0.33132 15.03392,2.36775 2.16242,1.06368 2.64877,1.82989 2.0615,3.24769 -0.6447,1.55644 -1.47498,1.61934 -4.82194,0.36533 -3.7349,-1.39936 -6.48662,-1.84367 -10.21898,-1.65001 -3.08118,0.15987 -5.74371,0.77802 -8.60766,1.99842 -1.92634,0.82086 -1.92618,0.82083 -2.81228,0.46382 z"
         id="path2184" />
      <path
         style="fill:#fbb789;stroke-width:0.282222"
         d="m 53.594504,217.44267 c -0.406764,-0.40677 -0.450887,-1.27214 -0.372937,-7.31426 l 0.08841,-6.85291 0.859199,-1.22297 c 0.472559,-0.67263 1.425059,-1.54046 2.116667,-1.92852 l 1.257467,-0.70555 16.540231,-0.0811 16.540234,-0.0811 0.203313,-11.34887 c 0.207151,-11.56308 0.138949,-12.632 -0.829686,-13.00371 -0.761379,-0.29216 -5.492148,-0.20466 -6.084869,0.11256 -0.488509,0.26144 -0.547344,0.62485 -0.559708,3.45722 l -0.01381,3.16507 -2.257416,-2.39889 C 75.97844,173.81666 72.528273,167.17041 71.024912,159.86685 l -0.485436,-2.35832 H 64.1336 57.727729 l -0.860064,-0.7237 c -1.168153,-0.98293 -1.437601,-2.18139 -1.439447,-6.40241 l -0.0016,-3.59833 h 6.889671 6.88967 l 1.277674,1.79049 c 2.842155,3.98293 7.108714,6.95295 12.247983,8.52603 0.243222,0.0745 0.352778,0.7983 0.352778,2.33088 0,3.06189 0.125826,3.15704 4.175071,3.15704 3.706289,0 3.727151,-0.0169 3.727151,-3.02153 v -1.92975 l 1.827163,-0.34661 c 2.476136,-0.46971 5.872305,-1.85406 7.838941,-3.1953 l 1.62278,-1.10672 v 6.35218 6.35217 h 8.85194 c 8.52793,0 8.87916,0.0214 9.59555,0.58493 0.84777,0.66686 1.00818,2.04955 0.34334,2.95947 -0.37807,0.51742 -0.90671,0.55566 -9.525,0.68894 l -9.12472,0.14111 v 10.44222 10.44222 l 2.54,0.33118 c 7.23593,0.94346 14.74653,-0.12383 21.39968,-3.041 1.42406,-0.6244 2.74796,-1.20446 2.94199,-1.28903 0.27621,-0.12039 0.35277,1.19807 0.35277,6.07466 v 6.22843 l 16.58056,0.0812 16.58055,0.0812 1.25747,0.70555 c 0.69161,0.38806 1.64411,1.25589 2.11667,1.92851 l 0.8592,1.22296 0.0893,6.77749 c 0.0802,6.09299 0.0402,6.8317 -0.39652,7.31426 -0.47433,0.52413 -1.80803,0.53678 -56.5841,0.53678 -51.54323,0 -56.135776,-0.0375 -56.559662,-0.46134 z m 51.144566,-40.53143 c -1.19865,-0.90633 -1.05692,-2.96629 0.2449,-3.55944 0.4324,-0.19701 2.43968,-0.32112 5.19378,-0.32112 4.89056,0 5.74209,0.19335 6.16247,1.39926 0.31445,0.90204 -0.20239,2.37034 -0.93306,2.65073 -0.92417,0.35463 -10.16917,0.20781 -10.66809,-0.16943 z m 4.16931,-19.84739 c -2.1384,-1.115 -2.94962,-2.69694 -2.9559,-5.76428 -0.003,-1.67313 0.11662,-2.29408 0.57294,-2.96333 1.13091,-1.65864 2.35573,-4.26496 2.98414,-6.35 l 0.63795,-2.11667 0.0151,6.15689 c 0.009,3.67384 0.13294,6.37704 0.30727,6.70278 0.25897,0.48389 0.613,0.54589 3.11727,0.54589 2.62322,0 2.87463,0.0495 3.51785,0.69273 0.88889,0.88889 0.90544,2.11349 0.0395,2.92696 -0.59558,0.55952 -0.95028,0.61349 -4.02167,0.6119 -2.50292,-0.001 -3.58587,-0.11509 -4.21451,-0.44287 z m 40.9517,-0.47261 c 0.11883,-0.50447 0.23665,-3.83822 0.26182,-7.40834 0.0252,-3.57011 0.065,-8.93586 0.0886,-11.92388 l 0.0428,-5.43278 1.34055,0.003 c 4.03168,0.009 8.18588,2.72192 10.10038,6.59564 2.5469,5.15331 1.64917,11.61099 -2.14104,15.4012 -2.22738,2.22738 -5.75873,3.68233 -8.9375,3.68233 -0.95243,0 -0.96741,-0.0182 -0.75562,-0.91722 z m -64.800104,-9.3923 c -1.898331,-0.58891 -3.373338,-1.47209 -4.881367,-2.92279 -2.501877,-2.40677 -3.577172,-4.9658 -3.582246,-8.52517 -0.005,-3.48164 1.222979,-6.31631 3.739241,-8.63191 7.169655,-6.59793 18.642098,-2.26991 19.771426,7.45884 l 0.13924,1.19944 h -9.036306 -9.0363 l 0.198382,1.34056 c 0.650884,4.39827 3.425001,8.15087 7.048576,9.53473 0.699824,0.26726 1.203974,0.59666 1.120335,0.73199 -0.236663,0.38292 -4.066289,0.25318 -5.480981,-0.18569 z m 43.539844,-1.81857 c -3.70635,-0.8776 -5.2585,-5.5526 -2.8571,-8.60548 1.29353,-1.64446 4.192,-2.32287 6.25017,-1.46291 1.24104,0.51853 2.64838,2.18818 3.02578,3.58972 0.99183,3.68341 -2.65954,7.36881 -6.41885,6.47867 z M 59.659977,124.74075 v -6.80328 l -0.711194,-0.55942 c -1.614642,-1.27008 -2.062475,-3.98268 -0.953699,-5.77672 2.155182,-3.48716 7.61308,-2.1765 8.077026,1.93962 0.160498,1.42394 -0.649354,3.3755 -1.615277,3.89245 -0.539641,0.28881 -0.563523,0.59419 -0.563523,7.2061 v 6.90452 h -2.116667 -2.116666 z m 56.533443,2.85019 c -1.22244,-0.49254 -1.65942,-2.61541 -0.71441,-3.47064 1.33817,-1.21102 6.1996,-2.81337 10.07985,-3.32236 4.79587,-0.62909 10.89393,0.33132 15.03392,2.36775 2.16242,1.06368 2.64877,1.82989 2.0615,3.24769 -0.6447,1.55644 -1.47498,1.61934 -4.82194,0.36533 -3.7349,-1.39936 -6.48662,-1.84367 -10.21898,-1.65001 -3.08118,0.15987 -5.74371,0.77802 -8.60766,1.99842 -1.92634,0.82086 -1.92618,0.82083 -2.81228,0.46382 z M 70.107874,104.15735 c 0.0031,-10.471387 0.12148,-19.839754 0.263023,-20.818591 0.500351,-3.460232 2.625485,-6.700976 5.49777,-8.383885 2.564189,-1.502391 3.185022,-1.548632 20.791985,-1.548632 15.413638,0 16.375888,0.02966 18.084408,0.557365 2.81876,0.870627 5.29894,2.872288 6.53312,5.272639 l 0.45818,0.891116 1.91125,-0.663659 c 10.9591,-3.805409 22.76643,2.44005 25.82032,13.657587 0.53418,1.962147 0.59551,3.075719 0.67835,12.31717 l 0.0911,10.16 -0.52913,-2.82222 c -0.81942,-4.37056 -1.91795,-7.09938 -3.98368,-9.89564 -3.80136,-5.145722 -10.76101,-8.386405 -20.87124,-9.718465 -3.71198,-0.489066 -14.10948,-0.870035 -18.415,-0.674735 l -4.16278,0.188826 v 12.944964 12.94496 l -1.62278,-1.10672 c -1.738229,-1.18547 -4.887584,-2.52931 -7.40833,-3.16117 -2.254863,-0.56521 -7.875939,-0.5013 -10.1413,0.11531 -4.279366,1.1648 -8.250498,3.57776 -11.191702,6.80036 l -1.809219,1.98231 0.0057,-19.03889 z m 27.934323,-2.79313 v -7.037575 l -1.941203,0.537935 c -5.19507,1.439628 -10.261749,4.765395 -12.765749,8.37944 -0.415595,0.59982 -0.641274,0.63123 -5.070113,0.70555 l -4.635156,0.0778 -0.910559,1.83445 c -0.500806,1.00894 -0.913556,1.99319 -0.917222,2.18722 -0.0052,0.27726 2.802596,0.35278 13.116669,0.35278 h 13.123333 z"
         id="path2180" />
      <path
         style="fill:#b0b7c3;stroke-width:0.282222"
         d="m 53.594504,217.44267 c -0.406764,-0.40677 -0.450887,-1.27214 -0.372937,-7.31426 l 0.08841,-6.85291 0.859199,-1.22297 c 0.472559,-0.67263 1.425059,-1.54046 2.116667,-1.92852 l 1.257467,-0.70555 16.540231,-0.0811 16.540234,-0.0811 0.203313,-11.34887 c 0.207151,-11.56308 0.138949,-12.632 -0.829686,-13.00371 -0.761379,-0.29216 -5.492148,-0.20466 -6.084869,0.11256 -0.488509,0.26144 -0.547344,0.62485 -0.559708,3.45722 l -0.01381,3.16507 -2.257416,-2.39889 C 75.97844,173.81666 72.528273,167.17041 71.024912,159.86685 l -0.485436,-2.35832 H 64.1336 57.727729 l -0.860064,-0.7237 c -1.168153,-0.98293 -1.437601,-2.18139 -1.439447,-6.40241 l -0.0016,-3.59833 h 6.889671 6.88967 l 1.277674,1.79049 c 2.842155,3.98293 7.108714,6.95295 12.247983,8.52603 0.243222,0.0745 0.352778,0.7983 0.352778,2.33088 0,3.06189 0.125826,3.15704 4.175071,3.15704 3.706289,0 3.727151,-0.0169 3.727151,-3.02153 v -1.92975 l 1.851457,-0.35122 c 1.018303,-0.19317 2.605802,-0.65773 3.527777,-1.03236 l 1.676321,-0.68115 v 17.16147 17.16147 l 1.905,0.47974 c 8.753219,2.20431 18.269839,1.43562 26.409119,-2.13316 1.42406,-0.6244 2.74796,-1.20446 2.94199,-1.28903 0.27621,-0.12039 0.35277,1.19807 0.35277,6.07466 v 6.22843 l 16.58056,0.0812 16.58055,0.0812 1.25747,0.70555 c 0.69161,0.38806 1.64411,1.25589 2.11667,1.92851 l 0.8592,1.22296 0.0893,6.77749 c 0.0802,6.09299 0.0402,6.8317 -0.39652,7.31426 -0.47433,0.52413 -1.80803,0.53678 -56.5841,0.53678 -51.54323,0 -56.135776,-0.0375 -56.559662,-0.46134 z m 51.117976,-40.76358 c -0.94429,-0.74278 -1.0169,-2.18472 -0.14954,-2.96967 0.53733,-0.48628 1.07359,-0.53763 5.61481,-0.53763 4.54122,0 5.07748,0.0514 5.61482,0.53763 0.86736,0.78495 0.79474,2.22689 -0.14955,2.96967 -0.68499,0.53881 -1.11583,0.58492 -5.46527,0.58492 -4.34943,0 -4.78028,-0.0461 -5.46527,-0.58492 z m -2.37876,-8.79896 0.0829,-2.04612 8.04333,-0.0818 c 4.42384,-0.045 8.46317,-0.006 8.9763,0.0863 1.92681,0.34713 2.68087,2.24931 1.37718,3.47407 -0.64231,0.60342 -0.80231,0.61364 -9.60792,0.61364 h -8.95473 z m 6.49589,-10.96958 c -1.77329,-0.87776 -2.61535,-2.47292 -2.81081,-5.32464 -0.14221,-2.07483 -0.0978,-2.33978 0.55773,-3.33042 1.24222,-1.87712 2.2759,-4.08629 2.93342,-6.26925 l 0.63756,-2.11667 0.0151,6.25636 c 0.008,3.441 0.0922,6.45725 0.18642,6.70278 0.1393,0.36301 0.66411,0.44642 2.80895,0.44642 1.4507,0 2.95252,0.14347 3.33739,0.31883 1.43193,0.65243 1.55918,2.89067 0.20553,3.61512 -0.30767,0.16466 -1.933,0.29928 -3.61184,0.29916 -2.54013,-1.9e-4 -3.25503,-0.1005 -4.25947,-0.59769 z m -23.769634,-9.71161 c -1.898331,-0.58891 -3.373338,-1.47209 -4.881367,-2.92279 -2.501877,-2.40677 -3.577172,-4.9658 -3.582246,-8.52517 -0.005,-3.48164 1.222979,-6.31631 3.739241,-8.63191 7.169655,-6.59793 18.642098,-2.26991 19.771426,7.45884 l 0.13924,1.19944 h -9.036306 -9.0363 l 0.198382,1.34056 c 0.650884,4.39827 3.425001,8.15087 7.048576,9.53473 0.699824,0.26726 1.203974,0.59666 1.120335,0.73199 -0.236663,0.38292 -4.066289,0.25318 -5.480981,-0.18569 z m 65.193334,-2.53159 v -2.11667 h 2.55855 c 1.4072,0 2.79085,0.12432 3.07476,0.27627 0.76435,0.40907 1.16063,1.76152 0.75471,2.57571 -0.51372,1.03044 -1.52253,1.37266 -4.05969,1.3772 l -2.32833,0.004 z m -21.65349,0.71302 c -3.70635,-0.8776 -5.2585,-5.5526 -2.8571,-8.60548 1.29353,-1.64446 4.192,-2.32287 6.25017,-1.46291 1.24104,0.51853 2.64838,2.18818 3.02578,3.58972 0.99183,3.68341 -2.65954,7.36881 -6.41885,6.47867 z M 59.659977,124.66203 v -6.88198 l -0.663369,-0.43466 c -1.40799,-0.92255 -2.027892,-3.62293 -1.19789,-5.21817 1.45944,-2.80499 4.753789,-3.37289 6.931752,-1.19493 1.812122,1.81212 1.813364,4.34908 0.003,6.08353 l -0.840143,0.80491 v 6.86164 6.86165 H 61.77666 59.659994 Z m 56.519943,2.78142 c -1.02368,-0.43042 -1.43256,-1.47586 -1.03327,-2.64184 0.30769,-0.89847 2.91849,-2.23745 6.03777,-3.09654 6.50301,-1.79101 13.26051,-1.2916 19.22842,1.42107 2.52942,1.14973 3.10233,2.32705 1.84416,3.78976 -0.81895,0.95209 -1.74417,0.96 -3.85703,0.033 -3.18359,-1.3968 -5.19433,-1.756 -9.73666,-1.73933 -4.4332,0.0163 -5.83193,0.29739 -10.16489,2.04294 -1.25257,0.5046 -1.52016,0.52664 -2.3185,0.19096 z m -46.072046,-23.2861 c 0.0031,-10.471387 0.12148,-19.839754 0.263023,-20.818591 0.500351,-3.460232 2.625485,-6.700976 5.49777,-8.383885 2.564189,-1.502391 3.185022,-1.548632 20.791985,-1.548632 15.413638,0 16.375888,0.02966 18.084408,0.557365 2.81876,0.870627 5.29894,2.872288 6.53312,5.272639 l 0.45818,0.891116 1.91125,-0.663659 c 10.9591,-3.805409 22.76643,2.44005 25.82032,13.657587 0.53418,1.962147 0.59551,3.075719 0.67835,12.31717 l 0.0911,10.16 -0.52913,-2.82222 c -1.07134,-5.71423 -3.0333,-9.55195 -6.41472,-12.5476 -4.44905,-3.941486 -10.52123,-6.131906 -20.08111,-7.243872 -4.04149,-0.470089 -22.39194,-0.670555 -24.239338,-0.264798 -0.690084,0.151568 -0.917166,0.365439 -0.984479,0.927209 -0.07675,0.640488 -0.316046,0.792591 -1.947796,1.238051 -5.085819,1.388405 -10.21328,4.761684 -12.705542,8.35879 -0.415595,0.59982 -0.641274,0.63123 -5.070113,0.70555 l -4.635156,0.0778 -0.910559,1.83445 c -0.500806,1.00894 -0.913556,1.99319 -0.917222,2.18722 -0.0052,0.27726 2.802596,0.35278 13.116669,0.35278 h 13.123333 v 3.79997 3.79997 l -1.283583,-0.55021 c -2.664883,-1.1423 -4.679473,-1.51189 -8.311972,-1.5249 -3.820174,-0.0137 -5.751223,0.36341 -8.871299,1.7323 -2.604649,1.14276 -5.654599,3.35343 -7.663925,5.555 l -1.809219,1.98231 0.0057,-19.03889 z"
         id="path2178" />
      <path
         style="fill:#9ca6ae;stroke-width:0.282222"
         d="m 53.635941,217.3879 c -0.405804,-0.44841 -0.466262,-1.3462 -0.460877,-6.84389 0.0056,-5.75126 0.05847,-6.44302 0.579963,-7.5927 0.723836,-1.59578 1.245635,-2.17025 2.659395,-2.92788 1.112068,-0.59596 1.375938,-0.60618 17.709443,-0.68619 l 16.580555,-0.0812 V 195.926 c 0,-1.83152 0.08335,-7.1318 0.185211,-11.77841 0.170476,-7.77616 0.146417,-8.48717 -0.302381,-8.93597 -0.402176,-0.40218 -1.025091,-0.4876 -3.555873,-0.4876 -3.877443,0 -3.941422,0.0637 -3.959454,3.94336 l -0.0125,2.68887 -1.724,-1.83445 c -5.443572,-5.79231 -9.182971,-13.24663 -10.511902,-20.955 l -0.182454,-1.05833 h -6.210114 c -8.800676,0 -8.722085,0.0584 -8.722085,-6.48118 v -4.24326 h 6.763403 c 6.727468,0 6.765167,0.003 7.095113,0.635 0.561992,1.07584 3.138585,3.99088 4.692661,5.30908 1.74608,1.48105 5.262019,3.45624 7.342711,4.12499 l 1.481666,0.47623 v 2.20623 c 0,3.11428 0.257486,3.33513 3.888314,3.33513 3.751986,0 4.013908,-0.19311 4.013908,-2.95933 v -2.08065 l 1.587458,-0.32956 c 1.395396,-0.28968 3.45322,-0.92931 4.974208,-1.54612 0.467134,-0.18943 0.493889,0.72457 0.493889,16.87277 v 17.07306 l 2.469441,0.59029 c 9.31504,2.22667 19.39799,1.15228 27.44238,-2.92412 0.76784,-0.3891 1.4638,-0.70745 1.54657,-0.70745 0.0828,0 0.15049,2.78832 0.15049,6.19626 v 6.19625 l 16.60307,0.0832 16.60306,0.0832 1.3886,0.84804 c 1.04263,0.63675 1.58198,1.22947 2.16472,2.37894 l 0.77611,1.5309 v 6.39676 c 0,5.83866 -0.045,6.43752 -0.51611,6.86384 -0.4766,0.43131 -4.80536,0.46707 -56.54181,0.46707 -53.918371,0 -56.043272,-0.0194 -56.492777,-0.51611 z m 51.076539,-40.70881 c -0.94429,-0.74278 -1.0169,-2.18472 -0.14954,-2.96967 0.53733,-0.48628 1.07359,-0.53763 5.61481,-0.53763 4.54122,0 5.07748,0.0514 5.61482,0.53763 0.86736,0.78495 0.79474,2.22689 -0.14955,2.96967 -0.68499,0.53881 -1.11583,0.58492 -5.46527,0.58492 -4.34943,0 -4.78028,-0.0461 -5.46527,-0.58492 z m -2.37876,-8.79896 0.0829,-2.04612 8.04333,-0.0818 c 4.42384,-0.045 8.46317,-0.006 8.9763,0.0863 1.92681,0.34713 2.68087,2.24931 1.37718,3.47407 -0.64231,0.60342 -0.80231,0.61364 -9.60792,0.61364 h -8.95473 z m 6.49589,-10.96958 c -1.77406,-0.87815 -2.61534,-2.47268 -2.81104,-5.328 -0.15276,-2.2286 -0.14176,-2.27707 0.85822,-3.78315 1.16368,-1.75262 1.69401,-2.90194 2.61727,-5.67205 l 0.65844,-1.97556 0.0126,6.11525 c 0.007,3.36339 0.0897,6.31614 0.18394,6.56167 0.1393,0.36301 0.66411,0.44642 2.80894,0.44642 1.4507,0 2.95253,0.14347 3.3374,0.31883 1.43192,0.65243 1.55917,2.89067 0.20552,3.61512 -0.30767,0.16466 -1.93299,0.29928 -3.61184,0.29916 -2.54013,-1.9e-4 -3.25502,-0.1005 -4.25947,-0.59769 z m 41.4237,-12.2432 v -2.11667 h 2.55855 c 1.4072,0 2.79085,0.12432 3.07476,0.27627 0.76435,0.40907 1.16063,1.76152 0.75471,2.57571 -0.51372,1.03044 -1.52253,1.37266 -4.05969,1.3772 l -2.32833,0.004 z m -21.65349,0.71302 c -3.70635,-0.8776 -5.2585,-5.5526 -2.8571,-8.60548 1.29353,-1.64446 4.192,-2.32287 6.25017,-1.46291 1.24104,0.51853 2.64838,2.18818 3.02578,3.58972 0.99183,3.68341 -2.65954,7.36881 -6.41885,6.47867 z M 76.680491,134.16751 c 0.240442,-2.32964 1.817186,-5.35613 3.656744,-7.01895 5.496797,-4.96868 13.922476,-3.89289 17.847704,2.27879 1.100884,1.73093 1.832811,3.83604 1.832811,5.27139 v 1.07861 H 88.266048 76.514341 Z m -17.020514,-9.50548 v -6.88198 l -0.663369,-0.43466 c -1.40799,-0.92255 -2.027892,-3.62293 -1.19789,-5.21817 1.45944,-2.80499 4.753789,-3.37289 6.931752,-1.19493 1.868973,1.86897 1.814786,4.33188 -0.136921,6.22355 l -0.982461,0.95223 v 6.71798 6.71797 h -1.975556 -1.975555 z m 56.519943,2.78142 c -1.02368,-0.43042 -1.43256,-1.47586 -1.03327,-2.64184 0.30769,-0.89847 2.91849,-2.23745 6.03777,-3.09654 6.50301,-1.79101 13.26051,-1.2916 19.22842,1.42107 2.52942,1.14973 3.10233,2.32705 1.84416,3.78976 -0.81895,0.95209 -1.74417,0.96 -3.85703,0.033 -3.18359,-1.3968 -5.19433,-1.756 -9.73666,-1.73933 -4.4332,0.0163 -5.83193,0.29739 -10.16489,2.04294 -1.25257,0.5046 -1.52016,0.52664 -2.3185,0.19096 z M 70.279352,117.17586 c -0.266053,-8.22726 -0.202266,-31.805252 0.09154,-33.837101 0.500351,-3.460232 2.625485,-6.700976 5.49777,-8.383885 2.564189,-1.502391 3.185022,-1.548632 20.791985,-1.548632 15.413643,0 16.375893,0.02966 18.084403,0.557365 2.81876,0.870627 5.29894,2.872288 6.53312,5.272639 l 0.45818,0.891116 1.91125,-0.663659 c 10.9591,-3.805409 22.76643,2.44005 25.82032,13.657587 0.53554,1.967158 0.59422,3.052119 0.66614,12.31717 0.0455,5.86695 -0.0176,9.54441 -0.14933,8.70313 -0.88035,-5.6206 -2.60793,-9.65038 -5.4309,-12.66814 -3.63429,-3.885068 -8.50132,-6.247245 -15.89053,-7.712346 -5.27189,-1.045288 -8.90167,-1.28134 -19.33222,-1.257217 -8.76842,0.02028 -10.529642,0.0998 -14.11111,0.637166 -10.794757,1.619642 -16.813185,4.528573 -20.947178,10.124557 -1.113215,1.5069 -2.469391,4.12849 -2.474508,4.78341 -0.0023,0.2772 2.808588,0.35278 13.120575,0.35278 h 13.123333 v 3.69908 c 0,3.41363 -0.03811,3.68311 -0.493889,3.49213 -2.791327,-1.16967 -4.933515,-1.62361 -8.254999,-1.74926 -4.634817,-0.17534 -6.828327,0.28056 -10.724444,2.22897 -2.52465,1.26255 -3.344455,1.85937 -5.537846,4.03161 l -2.574516,2.54969 z"
         id="path2176" />
      <path
         style="fill:#c49e7b;stroke-width:0.282222"
         d="m 104.71246,176.67909 c -0.94429,-0.74278 -1.0169,-2.18472 -0.14954,-2.96967 0.53733,-0.48628 1.07359,-0.53763 5.61481,-0.53763 4.54122,0 5.07748,0.0514 5.61482,0.53763 0.86736,0.78495 0.79474,2.22689 -0.14955,2.96967 -0.68499,0.53881 -1.11583,0.58492 -5.46527,0.58492 -4.34943,0 -4.78028,-0.0461 -5.46527,-0.58492 z m -2.37876,-8.79896 0.0829,-2.04612 8.04333,-0.0818 c 4.42384,-0.045 8.46317,-0.006 8.9763,0.0863 1.92681,0.34713 2.68087,2.24931 1.37718,3.47407 -0.64231,0.60342 -0.80231,0.61364 -9.60792,0.61364 h -8.95471 z m 6.49589,-10.96958 c -1.77406,-0.87815 -2.61534,-2.47268 -2.81104,-5.328 -0.15276,-2.2286 -0.14176,-2.27707 0.85822,-3.78315 1.16368,-1.75262 1.69401,-2.90194 2.61727,-5.67205 l 0.65844,-1.97556 0.0126,6.11525 c 0.007,3.36339 0.0897,6.31614 0.18394,6.56167 0.1393,0.36301 0.66411,0.44642 2.80894,0.44642 1.4507,0 2.95253,0.14347 3.3374,0.31883 1.43192,0.65243 1.55917,2.89067 0.20552,3.61512 -0.30767,0.16466 -1.93299,0.29928 -3.61184,0.29916 -2.54013,-1.9e-4 -3.25502,-0.1005 -4.25947,-0.59769 z m 41.4237,-12.2432 v -2.11667 h 2.55855 c 1.4072,0 2.79085,0.12432 3.07476,0.27627 0.76435,0.40907 1.16063,1.76152 0.75471,2.57571 -0.51372,1.03044 -1.52253,1.37266 -4.05969,1.3772 l -2.32833,0.004 z m -22.81251,0.1 c -1.8186,-0.90018 -2.73155,-2.44444 -2.71712,-4.59604 0.0189,-2.82451 1.7816,-4.81296 4.55791,-5.14177 2.76221,-0.32714 5.36387,1.63083 5.66019,4.25978 0.20959,1.85945 -0.13281,3.15303 -1.13743,4.29723 -1.62738,1.85349 -4.08373,2.30928 -6.36355,1.1808 z M 116.1799,127.44347 c -1.02368,-0.43042 -1.43256,-1.47586 -1.03327,-2.64184 0.30769,-0.89847 2.91849,-2.23745 6.03777,-3.09654 6.50301,-1.79101 13.26051,-1.2916 19.22842,1.42107 2.52942,1.14973 3.10233,2.32705 1.84416,3.78976 -0.81895,0.95209 -1.74417,0.96 -3.85703,0.033 -3.18359,-1.3968 -5.19433,-1.756 -9.73666,-1.73933 -4.4332,0.0163 -5.83193,0.29739 -10.16489,2.04294 -1.25257,0.5046 -1.52016,0.52664 -2.3185,0.19096 z"
         id="path2172"
         sodipodi:nodetypes="ssscsssccscssccssssccsssssssccssscccssssssssssssssss" />
      <path
         style="fill:#8e96a3;stroke-width:0.282222"
         d="m 53.635941,217.3879 c -0.40556,-0.44814 -0.467075,-1.35454 -0.467075,-6.88222 v -6.3661 l 0.788592,-1.50954 c 0.57398,-1.09872 1.163095,-1.74114 2.164715,-2.36056 l 1.376123,-0.85102 16.603062,-0.0832 16.603062,-0.0832 8.46e-4,-4.57348 c 5.65e-4,-2.51541 0.08383,-6.76062 0.185231,-9.43379 l 0.184368,-4.86031 1.014213,0.85604 c 0.557818,0.47082 2.125463,1.69203 3.483658,2.71378 l 2.469444,1.85774 v 2.0651 2.0651 l 1.199445,0.30703 c 0.659694,0.16887 1.374725,0.36662 1.588955,0.43945 1.28484,0.43679 6.45915,0.96844 9.41585,0.96747 6.16085,-0.002 12.40903,-1.41586 17.40712,-3.93889 0.93458,-0.47176 1.76634,-0.85775 1.84837,-0.85775 0.082,0 0.14916,2.78916 0.14916,6.19815 v 6.19815 l 16.44744,0.0813 16.44744,0.0813 1.4006,0.72101 c 0.99382,0.5116 1.64722,1.11963 2.24978,2.09354 l 0.84919,1.37254 0.0853,6.61686 c 0.0763,5.9171 0.0343,6.67315 -0.39652,7.14923 -0.46904,0.51828 -1.96617,0.53237 -56.55653,0.53237 -53.965872,0 -56.092301,-0.0194 -56.541809,-0.51611 z m 27.130518,-38.6968 c -3.631675,-3.91268 -6.319478,-8.35957 -8.112283,-13.42153 -1.423693,-4.01978 -1.998698,-7.16289 -2.184129,-11.939 l -0.167682,-4.31901 2.376014,2.34345 c 1.623915,1.60166 3.108297,2.74545 4.689421,3.61345 2.087592,1.14603 2.314812,1.35265 2.327789,2.11667 0.02159,1.27137 0.992533,5.42891 1.853997,7.93879 0.855034,2.49114 2.544984,5.99148 3.967824,8.21843 l 0.946666,1.48166 -1.195939,0.004 c -1.917621,0.007 -2.024862,0.17503 -2.183717,3.42292 l -0.141111,2.88514 -2.17685,-2.34529 z M 57.528821,157.0706 c -1.585271,-0.78237 -1.819955,-1.57765 -1.819955,-6.16735 v -4.11923 h 2.963333 2.963333 v 3.97901 c 0,4.39272 0.263438,5.40637 1.624376,6.25019 0.760929,0.4718 0.725013,0.48024 -2.047709,0.4813 -1.946085,8.5e-4 -3.089561,-0.13085 -3.683378,-0.42392 z M 127.4408,144.76733 c -1.8186,-0.90018 -2.73155,-2.44444 -2.71712,-4.59604 0.0189,-2.82451 1.7816,-4.81296 4.55791,-5.14177 2.76221,-0.32714 5.36387,1.63083 5.66019,4.25978 0.20959,1.85945 -0.13281,3.15303 -1.13743,4.29723 -1.62738,1.85349 -4.08373,2.30928 -6.36355,1.1808 z m -50.847491,-9.80692 c 0,-1.54139 1.123736,-4.47621 2.351414,-6.14111 1.550128,-2.10218 3.844329,-3.70215 6.115253,-4.26476 2.211589,-0.54791 3.167385,-0.64161 4.602544,-0.45123 l 1.39724,0.18535 -1.297423,0.49249 c -2.684391,1.01897 -5.197661,3.45162 -6.468155,6.26064 -0.261197,0.5775 -0.627699,1.87925 -0.814448,2.89278 l -0.339545,1.84278 h -2.77344 -2.77344 z m 39.074951,-8.06023 c -1.75002,-1.75001 -0.047,-3.40741 5.09282,-4.95634 6.01032,-1.81126 13.56613,-1.40203 19.14273,1.0368 0.95795,0.41894 1.96397,0.94927 2.23561,1.17851 0.67889,0.57292 0.6399,2.15886 -0.0706,2.86931 -0.75082,0.75082 -1.57293,0.71165 -3.56321,-0.16978 -6.05744,-2.68265 -12.78468,-2.66003 -19.35884,0.0651 -2.03531,0.84367 -2.61523,0.83974 -3.47855,-0.0236 z M 70.396331,102.76839 c -0.0177,-19.211773 8.46e-4,-19.943378 0.55057,-21.589997 1.041894,-3.121496 3.50203,-5.683308 6.695623,-6.972351 l 1.631896,-0.658689 h 17.215555 17.215555 l 1.59309,0.644171 c 2.59357,1.048716 4.7081,2.901816 6.30913,5.529104 0.25688,0.421539 0.47229,0.397047 2.39889,-0.272745 2.88758,-1.003884 7.45658,-1.243025 10.55952,-0.552685 5.67578,1.262741 10.71684,5.189618 13.25021,10.321621 1.98867,4.02858 2.15048,5.196069 2.11138,15.233861 -0.0185,4.73428 -0.0869,8.29028 -0.15214,7.90223 -1.17693,-7.00141 -5.61895,-12.978499 -11.65786,-15.686563 -0.54328,-0.243626 -1.49578,-0.682526 -2.11667,-0.975334 -1.2349,-0.582373 -5.81916,-1.841688 -7.63129,-2.096348 -0.62711,-0.08813 -1.40937,-0.212071 -1.73836,-0.275429 -0.72265,-0.139169 -2.59074,-0.406842 -4.31812,-0.618732 -0.6985,-0.08568 -5.6515,-0.189174 -11.00667,-0.229983 -8.83334,-0.06732 -12.438957,0.05904 -15.886505,0.55671 -2.065302,0.298138 -3.079902,0.45982 -3.552034,0.566036 -5.183254,1.166073 -7.130003,1.79849 -9.99939,3.24838 -4.498472,2.273061 -8.461922,6.429273 -9.779231,10.254833 l -0.498068,1.44643 4.593894,-0.0835 4.593892,-0.0835 -0.382335,1.2704 c -0.210284,0.69872 -0.5311,2.28782 -0.712927,3.53134 l -0.330592,2.26094 -1.591683,0.89628 c -2.286711,1.28765 -4.575338,3.11149 -6.058901,4.82843 l -1.288108,1.49074 -0.01832,-19.88563 z m -10.418129,15.15012 c -0.645797,-0.30394 -1.442995,-0.93014 -1.771551,-1.39156 -0.741872,-1.04186 -0.992559,-3.03857 -0.523629,-4.17067 0.517468,-1.24927 2.035042,-2.45589 3.37313,-2.68196 2.696128,-0.45551 5.408013,2.24804 4.953503,4.93827 -0.47556,2.81481 -3.524345,4.48589 -6.031453,3.30592 z"
         id="path2170" />
      <path
         style="fill:#e7514f;stroke-width:0.282222"
         d="m 59.659977,117.78005 c -1.84798,-0.91083 -2.83099,-3.54077 -2.03853,-5.45393 0.51747,-1.24927 2.03504,-2.45589 3.37313,-2.68196 2.69613,-0.45551 5.40801,2.24804 4.9535,4.93827 -0.48638,2.87889 -3.66023,4.49285 -6.2881,3.19762 z"
         id="path2166"
         sodipodi:nodetypes="sssss" />
      <path
         style="fill:#00090c;fill-opacity:1;stroke-width:0.282222"
         d="m 53.575446,217.21249 c -0.390068,-0.59531 -0.439969,-1.58664 -0.358714,-7.12611 0.102487,-6.98681 0.158725,-7.2617 1.830929,-8.94941 1.594094,-1.60888 1.212213,-1.5774 19.137695,-1.5774 H 90.70442 v -6.35476 -6.35475 l 1.428925,0.72409 c 5.515841,2.79509 11.178345,4.07334 18.044405,4.07334 6.27503,0 11.16825,-1.02469 16.72167,-3.50169 l 2.75166,-1.22734 v 6.32056 6.32055 h 16.51907 c 17.92548,0 17.5436,-0.0315 19.13769,1.5774 1.67723,1.69278 1.72952,1.95136 1.83066,9.054 0.0899,6.31054 0.0726,6.5597 -0.49382,7.12611 l -0.58693,0.58693 H 110.04315 54.028545 Z M 127.4408,144.76733 c -1.8186,-0.90018 -2.73155,-2.44444 -2.71712,-4.59604 0.0189,-2.82451 1.7816,-4.81296 4.55791,-5.14177 2.76221,-0.32714 5.36387,1.63083 5.66019,4.25978 0.20959,1.85945 -0.13281,3.15303 -1.13743,4.29723 -1.62738,1.85349 -4.08373,2.30928 -6.36355,1.1808 z m -11.77254,-17.86715 c -1.75002,-1.75001 -0.047,-3.40741 5.09282,-4.95634 6.01032,-1.81126 13.56613,-1.40203 19.14273,1.0368 0.95795,0.41894 1.96397,0.94927 2.23561,1.17851 0.67889,0.57292 0.6399,2.15886 -0.0706,2.86931 -0.75082,0.75082 -1.57293,0.71165 -3.56321,-0.16978 -6.05744,-2.68265 -12.78468,-2.66003 -19.35884,0.0651 -2.03531,0.84367 -2.61523,0.83974 -3.47855,-0.0236 z M 70.40743,97.943818 c -0.02196,-14.427704 0.0028,-15.190888 0.54417,-16.792221 1.0506,-3.107416 3.511914,-5.662398 6.690924,-6.945555 l 1.631896,-0.658689 h 17.215555 17.215555 l 1.59309,0.644171 c 2.59357,1.048716 4.7081,2.901816 6.30913,5.529104 0.25688,0.421539 0.47229,0.397047 2.39889,-0.272745 2.88758,-1.003884 7.45658,-1.243025 10.55952,-0.552685 5.67578,1.262741 10.71684,5.189618 13.25021,10.321621 1.9829,4.016882 2.14791,5.19887 2.1268,15.233861 -0.0175,8.3447 -0.031,8.5474 -0.43867,6.63223 -1.79678,-8.44012 -7.63175,-14.037815 -17.35621,-16.650418 -6.131,-1.647173 -9.51875,-1.951904 -21.82943,-1.963576 -12.202515,-0.01157 -15.20458,0.226858 -21.042005,1.671189 -10.672396,2.640629 -16.508661,8.016925 -18.430264,16.977745 -0.386608,1.80283 -0.417788,0.86752 -0.439161,-13.174032 z"
         id="path2164" />
      <path
         style="fill:#302512;fill-opacity:1;stroke-width:0.282222"
         d="m 53.575446,217.21249 c -0.390068,-0.59531 -0.439969,-1.58664 -0.358714,-7.12611 0.102487,-6.98681 0.158725,-7.2617 1.830929,-8.94941 1.594094,-1.60888 1.212213,-1.5774 19.137695,-1.5774 H 90.70442 v -6.35476 -6.35475 l 1.428925,0.72409 c 5.515841,2.79509 11.178345,4.07334 18.044405,4.07334 6.27503,0 11.16825,-1.02469 16.72167,-3.50169 l 2.75166,-1.22734 v 6.32056 6.32055 h 16.51907 c 17.92548,0 17.5436,-0.0315 19.13769,1.5774 1.67723,1.69278 1.72952,1.95136 1.83066,9.054 0.0899,6.31054 0.0726,6.5597 -0.49382,7.12611 l -0.58693,0.58693 h -56.0146 -56.014605 z m 62.092814,-90.31231 c -1.75002,-1.75001 -0.047,-3.40741 5.09282,-4.95634 6.01032,-1.81126 13.56613,-1.40203 19.14273,1.0368 0.95795,0.41894 1.96397,0.94927 2.23561,1.17851 0.67889,0.57292 0.6399,2.15886 -0.0706,2.86931 -0.75082,0.75082 -1.57293,0.71165 -3.56321,-0.16978 -6.05744,-2.68265 -12.78468,-2.66003 -19.35884,0.0651 -2.03531,0.84367 -2.61523,0.83974 -3.47855,-0.0236 z m -45.196141,-29.363939 0.05341,-15.522222 0.90573,-1.91213 c 1.075769,-2.271105 3.101732,-4.362707 5.227582,-5.39695 1.907563,-0.928045 4.520057,-1.292122 9.106687,-1.269105 3.506938,0.0176 3.6066,0.03385 2.257778,0.368066 -2.894372,0.717186 -5.213254,2.368183 -6.79345,4.836803 -1.654387,2.584517 -1.813653,3.631047 -1.820409,11.961762 l -0.0061,7.49822 -1.8364,1.490646 c -3.399138,2.759159 -5.663728,6.633169 -6.720069,11.495969 -0.399412,1.83866 -0.424606,0.92774 -0.374782,-13.551059 z"
         id="path2162" />
      <path
         style="fill:#36698f;stroke-width:0.282222"
         d="m 53.575446,217.21249 c -0.390068,-0.59531 -0.439969,-1.58664 -0.358714,-7.12611 0.102487,-6.98681 0.158725,-7.2617 1.830929,-8.94941 1.594094,-1.60888 1.212213,-1.5774 19.137695,-1.5774 H 90.70442 v -6.35476 -6.35475 l 1.428925,0.72409 c 5.515841,2.79509 11.178345,4.07334 18.044405,4.07334 6.27503,0 11.16825,-1.02469 16.72167,-3.50169 l 2.75166,-1.22734 v 6.32056 6.32055 h 16.51907 c 17.92548,0 17.5436,-0.0315 19.13769,1.5774 1.67723,1.69278 1.72952,1.95136 1.83066,9.054 0.0899,6.31054 0.0726,6.5597 -0.49382,7.12611 l -0.58693,0.58693 h -56.0146 -56.014605 z m 62.092814,-90.31231 c -1.75002,-1.75001 -0.047,-3.40741 5.09282,-4.95634 6.01032,-1.81126 13.56613,-1.40203 19.14273,1.0368 0.95795,0.41894 1.96397,0.94927 2.23561,1.17851 0.67889,0.57292 0.6399,2.15886 -0.0706,2.86931 -0.75082,0.75082 -1.57293,0.71165 -3.56321,-0.16978 -6.05744,-2.68265 -12.78468,-2.66003 -19.35884,0.0651 -2.03531,0.84367 -2.61523,0.83974 -3.47855,-0.0236 z"
         id="path2160" />
      <path
         style="fill:#765335;stroke-width:0.282222"
         d="m 54.072488,217.60796 -0.6486,-0.26026 0.08416,-7.17516 0.08416,-7.17516 0.863026,-1.08391 c 0.474665,-0.59614 1.422325,-1.36965 2.105911,-1.7189 l 1.242886,-0.635 h 16.585911 16.585911 l 0.07596,-6.20859 0.07595,-6.20859 1.834444,0.87302 c 2.85165,1.35711 7.203823,2.72593 10.301793,3.24005 3.66374,0.60801 10.11973,0.61549 13.72878,0.0159 3.16618,-0.52602 7.8745,-2.00775 10.34905,-3.2569 0.9508,-0.47996 1.79585,-0.87266 1.87788,-0.87266 0.082,0 0.14916,2.794 0.14916,6.20889 v 6.20889 h 16.51907 c 14.27156,0 16.66129,0.0594 17.56448,0.4368 1.33056,0.55595 2.23609,1.40305 2.91503,2.72695 0.48394,0.94367 0.53698,1.71792 0.53698,7.83866 v 6.79156 l -0.72393,0.27523 c -0.95407,0.36274 -111.20319,0.34228 -112.108002,-0.0208 z m 61.595772,-90.70778 c -1.75002,-1.75001 -0.047,-3.40741 5.09282,-4.95634 6.01032,-1.81126 13.56613,-1.40203 19.14273,1.0368 0.95795,0.41894 1.96397,0.94927 2.23561,1.17851 0.67889,0.57292 0.6399,2.15886 -0.0706,2.86931 -0.75082,0.75082 -1.57293,0.71165 -3.56321,-0.16978 -6.05744,-2.68265 -12.78468,-2.66003 -19.35884,0.0651 -2.03531,0.84367 -2.61523,0.83974 -3.47855,-0.0236 z"
         id="path2158" />
      <path
         style="fill:#000d17;fill-opacity:1;stroke-width:0.282222"
         d="m 54.072488,217.60796 -0.6486,-0.26026 0.08416,-7.17516 0.08416,-7.17516 0.863026,-1.08391 c 0.474665,-0.59614 1.422325,-1.36965 2.105911,-1.7189 l 1.242886,-0.635 h 16.585911 16.585911 l 0.07596,-6.20859 0.07595,-6.20859 1.834444,0.87302 c 2.85165,1.35711 7.203823,2.72593 10.301793,3.24005 3.66374,0.60801 10.11973,0.61549 13.72878,0.0159 3.16618,-0.52602 7.8745,-2.00775 10.34905,-3.2569 0.9508,-0.47996 1.79585,-0.87266 1.87788,-0.87266 0.082,0 0.14916,2.794 0.14916,6.20889 v 6.20889 h 16.51907 c 14.27156,0 16.66129,0.0594 17.56448,0.4368 1.33056,0.55595 2.23609,1.40305 2.91503,2.72695 0.48394,0.94367 0.53698,1.71792 0.53698,7.83866 v 6.79156 l -0.72393,0.27523 c -0.95407,0.36274 -111.20319,0.34228 -112.108002,-0.0208 z"
         id="path2156" />
      <path
         style="fill:#001c33;fill-opacity:1;stroke-width:0.282222"
         d="m 54.078329,217.46468 c -0.617565,-0.43257 -0.627241,-0.54048 -0.627241,-6.99576 0,-6.23911 0.03073,-6.61718 0.635,-7.81189 0.370698,-0.73291 1.143868,-1.60944 1.857584,-2.10591 l 1.222584,-0.85044 4.562972,-0.0705 c 4.040701,-0.0625 4.466064,-0.0266 3.716304,0.31364 -1.023894,0.46459 -2.283908,1.69743 -2.918412,2.85547 -0.70074,1.27892 -0.87118,13.39314 -0.202786,14.41323 l 0.453099,0.69152 h -4.035932 c -3.196066,0 -4.166458,-0.0914 -4.663172,-0.43933 z"
         id="path2154" />
    </g>
  </g>
</svg>
