<?xml version="1.0" encoding="UTF-8"?>
<svg id="svg1475" xmlns="http://www.w3.org/2000/svg" version="1.1" xmlns:cc="http://creativecommons.org/ns#" xmlns:dc="http://purl.org/dc/elements/1.1/" xmlns:inkscape="http://www.inkscape.org/namespaces/inkscape" xmlns:rdf="http://www.w3.org/1999/02/22-rdf-syntax-ns#" xmlns:sodipodi="http://sodipodi.sourceforge.net/DTD/sodipodi-0.dtd" xmlns:svg="http://www.w3.org/2000/svg" viewBox="0 0 409.6 409.7">
  <!-- Generator: Adobe Illustrator 29.0.0, SVG Export Plug-In . SVG Version: 2.1.0 Build 186)  -->
  <defs>
    <style>
      .st0 {
        fill: #cdd1da;
      }

      .st1 {
        fill: #9ca6ae;
      }

      .st2 {
        fill: #36698f;
      }

      .st3 {
        fill: #302512;
      }

      .st4 {
        fill: #c49e7b;
      }

      .st5 {
        fill: #fff;
      }

      .st6 {
        fill: #fdd3b1;
      }

      .st7 {
        fill: #b0b7c3;
      }

      .st8 {
        fill: #c4cbd2;
      }

      .st9 {
        fill: #000d17;
      }

      .st10 {
        fill: #e5e8eb;
      }

      .st11 {
        fill: #001c33;
      }

      .st12 {
        fill: #e7514f;
      }

      .st13 {
        fill: #fbb789;
      }

      .st14 {
        fill: #765335;
      }

      .st15 {
        fill: #8e96a3;
      }

      .st16 {
        fill: #00090c;
      }
    </style>
  </defs>
  <rect class="st5" x="91" y="124.4" width="108.2" height="108.2" rx="43.6" ry="43.6"/>
  <rect class="st5" x="219.8" y="170.2" width="87.2" height="43.5" rx="21.7" ry="21.7"/>
  <path id="path2190" class="st10" d="M49.6,410.2c-1.6-1.6-1.3-37.4.3-41.3,1.6-3.9,4.8-7.2,8.8-9.1,3-1.4,6.1-1.5,49.8-1.5h46.6v-34.9l-7.4-4.7c-8.6-5.5-21.3-17.4-27.8-26-6-7.9-11.3-17.2-14.8-25.8-2.9-7.1-6.8-21.2-6.8-24.3,0-1.7-.1-1.7-18.2-2-27-.4-25.1,2.4-24.8-38q.2-29.4,2.1-32c1.3-1.8,2.9-2.9,5.4-3.6l3.5-.9v-19.4c0-18.3,0-19.5-1.5-20.2-.8-.4-2.3-2.5-3.3-4.5-4.2-8.8,1.8-18,11.9-18s16.8,15.2,7.8,22.2l-2,1.6v38.6h7.7l1-4.4c.5-2.4,2.8-7.9,4.9-12.1l3.9-7.8v-55.4c0-38,.3-56.8.9-59.7,2.4-11.4,10.7-20.5,22-24.2,3.6-1.2,9.4-1.3,53.6-1.1l49.5.2,4.4,2.1c5.5,2.6,11.4,7.8,14.1,12.4,1.1,1.9,2.2,3.5,2.4,3.5s3.1-1,6.5-2.2c5.6-2,7.3-2.2,17-2.2,9.5,0,11.5.3,17.2,2.1,9.1,3,15.9,7.3,22.8,14.2,6.9,6.9,11.1,13.7,14.2,22.8l2.2,6.4.2,52.6.2,52.6h2.6c4,0,12.1,2.2,15.5,4.1,12.4,7.1,18.7,18.1,18.7,32.6,0,11.3-3.2,19.8-9.7,26.4-6.5,6.6-13.4,9.8-23.2,10.8l-5.3.6-.5,3.3c-2,12.8-8.5,29-16.6,41.8-7.9,12.5-23.2,27.3-36.1,34.9l-3.7,2.2v35.2h46.6c43.7,0,46.8.1,49.8,1.5,3.9,1.8,7.1,5.1,8.8,9.1,1.6,3.9,1.9,39.7.3,41.3-1.4,1.4-319.9,1.4-321.3,0h0ZM162.2,226.7c8.9-2.7,14.5-6.1,21.3-12.8,10.2-10.1,15-21.5,15-35.6s-4.7-25.3-14.5-35.2c-19.8-20-51.1-20.2-71.1-.3-4.6,4.6-6.5,7.2-9.3,13.2-4.2,8.7-5.3,13.5-5.3,22.3s1.2,13.6,5.3,22.3c6.5,13.5,19.1,23.6,33.9,26.9,6.4,1.5,18.6,1,24.8-.8h0ZM145,212.2c-19.7-2.5-33.3-20.1-30.2-39.1,4-24.2,31.1-36.3,51.8-23.2,15.2,9.7,20.1,29.5,11.2,45.4-2.4,4.3-9.3,11-13.7,13.2-5.3,2.7-13.8,4.3-19.1,3.6h0ZM275.4,211.1c10.7-2.8,21.8-10.9,25.3-18.6.8-1.9.7-2.5-1-5.1-14.1-21.2-44.7-23.8-62.8-5.4-7.5,7.7-7.6,9.5-.6,17.1,5,5.4,12.1,9.8,18.7,11.5,5.2,1.4,15.8,1.6,20.4.4h0ZM260.8,205.5c-6.2-2.5-9.9-8.1-9.9-14.8,0-9.9,9.2-17.1,18.8-14.8,14.6,3.5,16,23.3,2.1,29.1-3.3,1.4-8,1.5-10.9.4h0Z"/>
  <path id="path2188" class="st6" d="M49.9,409.9c-1.1-1.1-1.3-4-1.2-19.8,0-16.3.2-18.9,1.5-21.8,1.8-3.9,6.2-7.8,10.4-9,2.1-.6,16.8-.9,48.8-.9h45.7v-34.9l-7.5-5c-15.3-10.1-29.6-26.1-37.9-42.3-4.6-9-9.2-21.8-10.7-30l-1-5.3-17.7-.3c-15.7-.2-17.9-.4-20.2-1.8-4.7-2.8-4.7-2.7-4.4-35.6.2-27.3.4-30.3,1.7-32.1,1.6-2.2,4.1-3.7,7.5-4.4l2.2-.4v-38.1l-2.8-2.7c-10.6-10.3,1.9-27.1,14.8-19.9,7.4,4.2,8.6,15.4,2.1,20.5l-2.1,1.7.2,19.6.2,19.6-2.2,1.3c-4,2.3-4.6,5.1-4.6,24.1v17.2h10.4c5.7,0,10.4-.2,10.4-.4s-.7-1.8-1.6-3.5c-6.2-12.1-7.7-30.2-3.7-43.6,1.2-4,3.6-9.8,5.3-13.1l3.2-5.9v-55.4c0-34.1.3-57.1.8-59.7,1.9-10.1,8.8-18.9,18.2-23.3l5.4-2.6h100.8l5.5,2.6c5.8,2.8,13.1,9.4,14.8,13.5l1,2.3,7-2.4c6.4-2.2,7.8-2.4,17.4-2.4,9.1,0,11.2.3,16.8,2.2,18.9,6.4,32.3,20.6,37.7,39.7,1.4,4.8,1.5,8.8,1.3,56.9l-.2,51.7,6.3.8c18.9,2.5,31.3,17,31.3,36.6s-7.1,26.7-19.7,32.9c-4.9,2.4-7,3-12.3,3.3l-6.4.4-.5,2.9c-2.9,17.2-11.2,36.2-21.8,50-7.7,10-21.6,22.3-31.4,27.8l-3.2,1.8v35.7h45.7c31.9,0,46.6.3,48.8.9,4.2,1.3,8.6,5.1,10.4,9,1.3,2.9,1.5,5.5,1.5,21.8,0,15.8-.2,18.7-1.2,19.8-1.1,1.1-16.8,1.3-160.3,1.3s-159.2-.1-160.3-1.3h0ZM154.3,253c.6-.7,1.2-3.8,1.4-6.8l.3-5.5h-7.9c-4.3,0-9.2-.4-10.9-.7l-3-.7v6.6c0,4,.4,6.9,1,7.5.6.6,3.9,1,9.5,1s8.7-.2,9.6-1.3h0ZM159.2,227.9c2.3-.5,7.6-2.5,11.6-4.4,16.4-7.9,26.9-23.7,28-42.3,1.2-20.9-10.3-39.9-29.5-48.8-7.3-3.4-12.5-4.4-21.3-4.4-13.8,0-24.7,4.6-35,14.8-10.5,10.4-15,21.2-15,35.6s4.5,25.1,15,35.7c6.9,6.9,14.1,11.2,22.8,13.5,5.3,1.4,17.5,1.6,23.4.4h0ZM143.5,211.8c-17.9-2.3-31.4-20.4-28.5-38.3,2.7-16.8,16.5-28.7,33.2-28.7s17.5,3.3,24.1,10c13,13.3,13,34.2,0,47.2-7.7,7.7-17.9,11.2-28.8,9.8h0ZM278.3,210.3c2.9-.8,7.4-2.9,10-4.6,5.1-3.3,12.1-10.7,12.8-13.5.6-2.5-1.8-6.5-6.9-11.5-7.6-7.3-17.1-11.1-28-11.2-12.1,0-22.1,4.4-30.3,13.3-6.3,6.9-6.5,8-1.6,14.4,1.7,2.3,5.2,5.6,7.8,7.4,11.1,7.8,22.8,9.6,36.1,5.7h0ZM259.4,204.4c-12.6-6.3-10.8-24.5,2.7-28,12.6-3.3,23.3,9.1,17.9,20.8-1.8,3.9-4.3,6.3-8.3,8-4.2,1.8-7.7,1.5-12.3-.7h0ZM175.8,94.3v-5.6h-34.7c-27,0-34.8.2-35.1,1-.2.6-1.3,3.1-2.5,5.6l-2.1,4.6h74.4v-5.6Z"/>
  <path id="path2186" class="st0" d="M49.9,409.9c-1.1-1.1-1.3-4-1.2-19.8,0-16.3.2-18.9,1.5-21.8,1.8-3.9,6.2-7.8,10.4-9,2.1-.6,16.8-.9,48.8-.9h45.7v-34.9l-7.5-5c-15.3-10.1-29.6-26.1-37.9-42.3-4.6-9-9.2-21.8-10.7-30l-1-5.3-17.7-.3c-15.7-.2-17.9-.4-20.2-1.8-4.7-2.8-4.7-2.7-4.4-35.6.2-27.3.4-30.3,1.7-32.1,1.6-2.2,4.1-3.7,7.5-4.4l2.2-.4v-38.5l-2-1.6c-4.6-3.6-5.8-11.3-2.7-16.4,6.1-9.9,21.6-6.2,22.9,5.5.5,4.1-1.8,9.6-4.6,11-1.6.8-1.6,1.5-1.4,20.7l.2,19.9-2.2,1.3c-4,2.3-4.6,5.1-4.6,24.1v17.2h10.4c5.7,0,10.4-.2,10.4-.4s-.7-1.8-1.6-3.5c-6.2-12.1-7.7-30.2-3.7-43.6,1.2-4,3.6-9.8,5.3-13.1l3.2-5.9v-55.4c0-34.1.3-57.1.8-59.7,1.9-10.1,8.8-18.9,18.2-23.3l5.4-2.6h100.8l5.5,2.6c5.8,2.8,13.1,9.4,14.8,13.5l1,2.3,7-2.4c6.4-2.2,7.8-2.4,17.4-2.4,9.1,0,11.2.3,16.8,2.2,15.3,5.2,26.8,15.1,33.7,29.2,5.3,10.8,5.4,11.6,5.6,46.5.1,20.3,0,29.4-.5,25.5-1.5-13.2-4.5-22.5-10.3-31.3-10.4-16-29.2-25.5-58.9-29.8-11.4-1.7-40.1-2.8-54.6-2.2l-11.4.5v74.1l2,1.3c3.8,2.5,10.9,11.9,14.4,19.1,6.2,12.8,6.4,13.8,6.1,45.7-.2,19.8,0,28.6.7,29.8.8,1.5,1.6,1.7,8.9,1.7s8.1.1,10,2c2.5,2.5,2.6,6,0,8.4-1.8,1.7-2.4,1.8-12.3,1.5-10-.3-10.5-.3-13.4-2.6-4.2-3.2-6-7.6-6-14.7v-5.8s-5.2,5.3-5.2,5.3l-5.2,5.3v35.8h25.1c24.2,0,25.2,0,27.2,1.7,2.4,1.9,2.9,5.8,1,8.4-1.1,1.5-2.6,1.6-27,2l-25.9.4v59.2l7.2.9c20.5,2.7,41.8-.4,60.7-8.6,4-1.8,7.8-3.4,8.3-3.7.8-.3,1,3.4,1,17.2v17.7h45.7c31.9,0,46.6.3,48.8.9,4.2,1.3,8.6,5.1,10.4,9,1.3,2.9,1.5,5.5,1.5,21.8,0,15.8-.2,18.7-1.2,19.8-1.1,1.1-16.8,1.3-160.3,1.3s-159.2-.1-160.3-1.3h0ZM154.3,253c.6-.7,1.2-3.8,1.4-6.8l.3-5.5h-7.9c-4.3,0-9.2-.4-10.9-.7l-3-.7v6.6c0,4,.4,6.9,1,7.5.6.6,3.9,1,9.5,1s8.7-.2,9.6-1.3h0ZM159.2,227.9c2.3-.5,7.6-2.5,11.6-4.4,16.4-7.9,26.9-23.7,28-42.3,1.2-20.9-10.3-39.9-29.5-48.8-7.3-3.4-12.5-4.4-21.3-4.4-13.8,0-24.7,4.6-35,14.8-10.5,10.4-15,21.2-15,35.6s4.5,25.1,15,35.7c6.9,6.9,14.1,11.2,22.8,13.5,5.3,1.4,17.5,1.6,23.4.4h0ZM143.5,211.8c-17.9-2.3-31.4-20.4-28.5-38.3,2.7-16.8,16.5-28.7,33.2-28.7s17.5,3.3,24.1,10c13,13.3,13,34.2,0,47.2-7.7,7.7-17.9,11.2-28.8,9.8h0ZM175.8,94.3v-5.6h-34.7c-27,0-34.8.2-35.1,1-.2.6-1.3,3.1-2.5,5.6l-2.1,4.6h74.4v-5.6ZM194.8,294.9c-3.4-2.6-3-8.4.7-10.1,1.2-.6,6.9-.9,14.7-.9,13.9,0,16.3.5,17.5,4,.9,2.6-.6,6.7-2.6,7.5-2.6,1-28.8.6-30.2-.5ZM322.7,237.3c.3-1.4.7-10.9.7-21,0-10.1.2-25.3.3-33.8v-15.4c.1,0,3.9,0,3.9,0,11.4,0,23.2,7.7,28.6,18.7,7.2,14.6,4.7,32.9-6.1,43.7s-16.3,10.4-25.3,10.4-2.7,0-2.1-2.6h0ZM259.4,204.4c-12.6-6.3-10.8-24.5,2.7-28,12.6-3.3,23.3,9.1,17.9,20.8-1.8,3.9-4.3,6.3-8.3,8-4.2,1.8-7.7,1.5-12.3-.7h0ZM227.3,155.1c-3.5-1.4-4.7-7.4-2-9.8,3.8-3.4,17.6-8,28.6-9.4,13.6-1.8,30.9.9,42.6,6.7,6.1,3,7.5,5.2,5.8,9.2-1.8,4.4-4.2,4.6-13.7,1-10.6-4-18.4-5.2-29-4.7-8.7.5-16.3,2.2-24.4,5.7q-5.5,2.3-8,1.3h0Z"/>
  <path id="path2184" class="st8" d="M49.9,409.9c-1.1-1.1-1.3-4-1.2-19.8,0-16.3.2-18.9,1.5-21.8,1.9-4.1,6.5-8,10.9-9.1,2.3-.6,18.7-.9,48.7-.9h45.2v-35l-7.8-5.2c-25-16.7-43.2-44-48.2-72.4l-1-5.8h-36.4l-2.4-2.1c-3.3-2.8-4.1-6.2-4.1-18.1v-10.2s19.5,0,19.5,0h19.5l-2.7-6.2c-6.8-15.8-6.9-33.6-.2-49.2,1.4-3.2,3.1-6.8,4-7.9,1.4-2,1.5-4.6,1.5-57.6,0-32.2.3-57.5.8-60.2,1.7-10.3,8.7-19.4,18.4-24l5.2-2.5h100.8l5.5,2.6c5.9,2.8,13.1,9.4,14.9,13.6l1,2.4,5-1.8c27.3-9.9,57.3,2.5,69.9,29,5.2,10.9,5.3,11.2,5.5,45.1.1,21.5,0,29.1-.5,25.3-1.8-13.2-4.7-21.7-10.2-30.3-10.4-16-29.2-25.5-58.9-29.8-11.4-1.7-40.1-2.8-54.6-2.2l-11.4.5v36.9s0,36.9,0,36.9l4.5,4.4c7.9,7.7,13.3,17.2,16.4,28.6,1.5,5.8,1.6,8.2,1.5,34,0,18.7.2,28.3.7,29.4.8,1.5,1.6,1.6,8.9,1.6s8.1.1,10,2c2.5,2.5,2.6,6,0,8.4-1.8,1.7-2.4,1.8-12.3,1.5-10-.3-10.5-.3-13.4-2.6-4.3-3.2-6-7.6-6-14.8v-5.9s-5.2,5.1-5.2,5.1l-5.2,5.1v18.2s0,18.2,0,18.2h25.1c24.2,0,25.2,0,27.2,1.7,2.4,1.9,2.9,5.8,1,8.4-1.1,1.5-2.6,1.6-27,2l-25.9.4v59.2l7.2.9c20.5,2.7,41.8-.4,60.7-8.6,4-1.8,7.8-3.4,8.3-3.7.8-.3,1,3.4,1,17.2v17.7l47,.2c46.4.2,47,.2,50.2,1.9,4,2.2,6.4,4.7,8,8.5,1.8,4.4,1.8,39.1,0,41-1.1,1.1-16.8,1.3-160.3,1.3s-159.2-.1-160.3-1.3h0ZM154.6,252.6c.8-1.2,1.2-3.6,1.2-7v-5.2h-7.4c-4.1,0-9.1-.3-11.2-.6l-3.8-.6v5.9c0,9,.5,9.4,11.2,9.4s8.8-.1,10-1.8ZM160.6,227.8c2-.5,6.6-2.3,10.4-4.1,9.1-4.3,18.3-13.4,22.6-22.2,9.9-20.1,6.3-43-9-58.5-6.7-6.7-13.3-10.8-22-13.5-7.2-2.2-19.3-2.5-26.7-.5-23.8,6.3-39.6,27.8-38.2,52.2,1.3,24,19.4,43.8,43.3,47.6,4.7.7,14.4.3,19.7-1h0ZM136.9,210c-15.2-5.7-23.9-20.3-21.7-36.5,2.8-20.1,23.5-33.4,42.9-27.3,24.3,7.6,31.9,37.9,14,55.9-2.3,2.3-5.3,4.8-6.7,5.5-9.2,4.8-19.7,5.7-28.4,2.4h0ZM175.8,94.3v-6.4h-15c-8.2,0-23.9.2-34.7.5l-19.7.5-2.5,5.1c-1.4,2.8-2.5,5.2-2.5,5.5,0,.5,16.3.8,50.2,1.1l24.2.2v-6.4ZM194.8,294.9c-3.4-2.6-3-8.4.7-10.1,1.2-.6,6.9-.9,14.7-.9,13.9,0,16.3.5,17.5,4,.9,2.6-.6,6.7-2.6,7.5-2.6,1-28.8.6-30.2-.5ZM322.7,237.3c.3-1.4.7-10.9.7-21,0-10.1.2-25.3.3-33.8v-15.4c.1,0,3.9,0,3.9,0,11.4,0,23.2,7.7,28.6,18.7,7.2,14.6,4.7,32.9-6.1,43.7s-16.3,10.4-25.3,10.4-2.7,0-2.1-2.6h0ZM260.2,204.9c-15.1-7.1-10.5-29.2,6-29.1,11.1,0,18.5,12,13.4,21.7-3.7,7.2-12.6,10.6-19.5,7.4h0ZM67,147.5v-19.7l-2-1.6c-4.6-3.6-5.8-11.3-2.7-16.4,6.1-9.9,21.6-6.2,22.9,5.5.5,4-1.8,9.6-4.6,11-1.5.8-1.6,1.7-1.6,20.8v20h-12v-19.7ZM227.3,155.1c-3.5-1.4-4.7-7.4-2-9.8,3.8-3.4,17.6-8,28.6-9.4,13.6-1.8,30.9.9,42.6,6.7,6.1,3,7.5,5.2,5.8,9.2-1.8,4.4-4.2,4.6-13.7,1-10.6-4-18.4-5.2-29-4.7-8.7.5-16.3,2.2-24.4,5.7q-5.5,2.3-8,1.3h0Z"/>
  <path id="path2180" class="st13" d="M49.8,409.8c-1.2-1.2-1.3-3.6-1.1-20.7l.3-19.4,2.4-3.5c1.3-1.9,4-4.4,6-5.5l3.6-2,46.9-.2,46.9-.2.6-32.2c.6-32.8.4-35.8-2.4-36.9-2.2-.8-15.6-.6-17.2.3-1.4.7-1.6,1.8-1.6,9.8v9s-6.4-6.8-6.4-6.8c-14.5-15.4-24.2-34.2-28.5-54.9l-1.4-6.7h-36.3l-2.4-2.1c-3.3-2.8-4.1-6.2-4.1-18.1v-10.2s19.5,0,19.5,0h19.5l3.6,5.1c8.1,11.3,20.2,19.7,34.7,24.2.7.2,1,2.3,1,6.6,0,8.7.4,8.9,11.8,8.9s10.6,0,10.6-8.6v-5.5l5.2-1c7-1.3,16.6-5.3,22.2-9.1l4.6-3.1v36h25.1c24.2,0,25.2,0,27.2,1.7,2.4,1.9,2.9,5.8,1,8.4-1.1,1.5-2.6,1.6-27,2l-25.9.4v59.2l7.2.9c20.5,2.7,41.8-.4,60.7-8.6,4-1.8,7.8-3.4,8.3-3.7.8-.3,1,3.4,1,17.2v17.7l47,.2,47,.2,3.6,2c2,1.1,4.7,3.6,6,5.5l2.4,3.5.3,19.2c.2,17.3.1,19.4-1.1,20.7-1.3,1.5-5.1,1.5-160.4,1.5s-159.1-.1-160.3-1.3h0ZM194.8,294.9c-3.4-2.6-3-8.4.7-10.1,1.2-.6,6.9-.9,14.7-.9,13.9,0,16.3.5,17.5,4,.9,2.6-.6,6.7-2.6,7.5-2.6,1-28.8.6-30.2-.5ZM206.6,238.7c-6.1-3.2-8.4-7.6-8.4-16.3,0-4.7.3-6.5,1.6-8.4,3.2-4.7,6.7-12.1,8.5-18l1.8-6v17.5c0,10.4.4,18.1.9,19,.7,1.4,1.7,1.5,8.8,1.5s8.1.1,10,2c2.5,2.5,2.6,6,.1,8.3-1.7,1.6-2.7,1.7-11.4,1.7-7.1,0-10.2-.3-11.9-1.3h0ZM322.7,237.3c.3-1.4.7-10.9.7-21,0-10.1.2-25.3.3-33.8v-15.4c.1,0,3.9,0,3.9,0,11.4,0,23.2,7.7,28.6,18.7,7.2,14.6,4.7,32.9-6.1,43.7s-16.3,10.4-25.3,10.4-2.7,0-2.1-2.6h0ZM139,210.7c-5.4-1.7-9.6-4.2-13.8-8.3-7.1-6.8-10.1-14.1-10.2-24.2,0-9.9,3.5-17.9,10.6-24.5,20.3-18.7,52.8-6.4,56,21.1l.4,3.4h-51.2l.6,3.8c1.8,12.5,9.7,23.1,20,27,2,.8,3.4,1.7,3.2,2.1-.7,1.1-11.5.7-15.5-.5h0ZM262.5,205.6c-10.5-2.5-14.9-15.7-8.1-24.4,3.7-4.7,11.9-6.6,17.7-4.1,3.5,1.5,7.5,6.2,8.6,10.2,2.8,10.4-7.5,20.9-18.2,18.4ZM67,147.1v-19.3l-2-1.6c-4.6-3.6-5.8-11.3-2.7-16.4,6.1-9.9,21.6-6.2,22.9,5.5.5,4-1.8,9.6-4.6,11-1.5.8-1.6,1.7-1.6,20.4v19.6h-12v-19.3ZM227.3,155.1c-3.5-1.4-4.7-7.4-2-9.8,3.8-3.4,17.6-8,28.6-9.4,13.6-1.8,30.9.9,42.6,6.7,6.1,3,7.5,5.2,5.8,9.2-1.8,4.4-4.2,4.6-13.7,1-10.6-4-18.4-5.2-29-4.7-8.7.5-16.3,2.2-24.4,5.7q-5.5,2.3-8,1.3h0ZM96.7,88.7c0-29.7.3-56.2.7-59,1.4-9.8,7.4-19,15.6-23.8,7.3-4.3,9-4.4,58.9-4.4s46.4,0,51.3,1.6c8,2.5,15,8.1,18.5,14.9l1.3,2.5,5.4-1.9c31.1-10.8,64.5,6.9,73.2,38.7,1.5,5.6,1.7,8.7,1.9,34.9l.3,28.8-1.5-8c-2.3-12.4-5.4-20.1-11.3-28.1-10.8-14.6-30.5-23.8-59.2-27.5-10.5-1.4-40-2.5-52.2-1.9l-11.8.5v73.4l-4.6-3.1c-4.9-3.4-13.9-7.2-21-9-6.4-1.6-22.3-1.4-28.7.3-12.1,3.3-23.4,10.1-31.7,19.3l-5.1,5.6v-54s0,0,0,0ZM175.8,80.8v-19.9l-5.5,1.5c-14.7,4.1-29.1,13.5-36.2,23.8-1.2,1.7-1.8,1.8-14.4,2l-13.1.2-2.6,5.2c-1.4,2.9-2.6,5.6-2.6,6.2,0,.8,7.9,1,37.2,1h37.2v-19.9Z"/>
  <path id="path2178" class="st7" d="M49.8,409.8c-1.2-1.2-1.3-3.6-1.1-20.7l.3-19.4,2.4-3.5c1.3-1.9,4-4.4,6-5.5l3.6-2,46.9-.2,46.9-.2.6-32.2c.6-32.8.4-35.8-2.4-36.9-2.2-.8-15.6-.6-17.2.3-1.4.7-1.6,1.8-1.6,9.8v9s-6.4-6.8-6.4-6.8c-14.5-15.4-24.2-34.2-28.5-54.9l-1.4-6.7h-36.3l-2.4-2.1c-3.3-2.8-4.1-6.2-4.1-18.1v-10.2s19.5,0,19.5,0h19.5l3.6,5.1c8.1,11.3,20.2,19.7,34.7,24.2.7.2,1,2.3,1,6.6,0,8.7.4,8.9,11.8,8.9s10.6,0,10.6-8.6v-5.5l5.2-1c2.9-.5,7.4-1.9,10-2.9l4.8-1.9v97.3l5.4,1.4c24.8,6.2,51.8,4.1,74.9-6,4-1.8,7.8-3.4,8.3-3.7.8-.3,1,3.4,1,17.2v17.7l47,.2,47,.2,3.6,2c2,1.1,4.7,3.6,6,5.5l2.4,3.5.3,19.2c.2,17.3.1,19.4-1.1,20.7-1.3,1.5-5.1,1.5-160.4,1.5s-159.1-.1-160.3-1.3h0ZM194.7,294.3c-2.7-2.1-2.9-6.2-.4-8.4,1.5-1.4,3-1.5,15.9-1.5s14.4.1,15.9,1.5c2.5,2.2,2.3,6.3-.4,8.4-1.9,1.5-3.2,1.7-15.5,1.7s-13.6-.1-15.5-1.7h0ZM188,269.3l.2-5.8,22.8-.2c12.5-.1,24,0,25.4.2,5.5,1,7.6,6.4,3.9,9.8-1.8,1.7-2.3,1.7-27.2,1.7h-25.4l.2-5.8ZM206.4,238.3c-5-2.5-7.4-7-8-15.1-.4-5.9-.3-6.6,1.6-9.4,3.5-5.3,6.5-11.6,8.3-17.8l1.8-6v17.7c0,9.8.3,18.3.6,19,.4,1,1.9,1.3,8,1.3s8.4.4,9.5.9c4.1,1.8,4.4,8.2.6,10.2-.9.5-5.5.8-10.2.8-7.2,0-9.2-.3-12.1-1.7h0ZM139,210.7c-5.4-1.7-9.6-4.2-13.8-8.3-7.1-6.8-10.1-14.1-10.2-24.2,0-9.9,3.5-17.9,10.6-24.5,20.3-18.7,52.8-6.4,56,21.1l.4,3.4h-51.2l.6,3.8c1.8,12.5,9.7,23.1,20,27,2,.8,3.4,1.7,3.2,2.1-.7,1.1-11.5.7-15.5-.5h0ZM323.8,203.5v-6h7.3c4,0,7.9.4,8.7.8,2.2,1.2,3.3,5,2.1,7.3-1.5,2.9-4.3,3.9-11.5,3.9h-6.6s0-6,0-6ZM262.5,205.6c-10.5-2.5-14.9-15.7-8.1-24.4,3.7-4.7,11.9-6.6,17.7-4.1,3.5,1.5,7.5,6.2,8.6,10.2,2.8,10.4-7.5,20.9-18.2,18.4ZM67,146.8v-19.5l-1.9-1.2c-4-2.6-5.7-10.3-3.4-14.8,4.1-8,13.5-9.6,19.6-3.4,5.1,5.1,5.1,12.3,0,17.2l-2.4,2.3v38.9h-12v-19.5ZM227.2,154.7c-2.9-1.2-4.1-4.2-2.9-7.5.9-2.5,8.3-6.3,17.1-8.8,18.4-5.1,37.6-3.7,54.5,4,7.2,3.3,8.8,6.6,5.2,10.7-2.3,2.7-4.9,2.7-10.9,0-9-4-14.7-5-27.6-4.9-12.6,0-16.5.8-28.8,5.8-3.6,1.4-4.3,1.5-6.6.5h0ZM96.7,88.7c0-29.7.3-56.2.7-59,1.4-9.8,7.4-19,15.6-23.8,7.3-4.3,9-4.4,58.9-4.4s46.4,0,51.3,1.6c8,2.5,15,8.1,18.5,14.9l1.3,2.5,5.4-1.9c31.1-10.8,64.5,6.9,73.2,38.7,1.5,5.6,1.7,8.7,1.9,34.9l.3,28.8-1.5-8c-3-16.2-8.6-27.1-18.2-35.6-12.6-11.2-29.8-17.4-56.9-20.5-11.5-1.3-63.5-1.9-68.7-.8-2,.4-2.6,1-2.8,2.6-.2,1.8-.9,2.2-5.5,3.5-14.4,3.9-29,13.5-36,23.7-1.2,1.7-1.8,1.8-14.4,2l-13.1.2-2.6,5.2c-1.4,2.9-2.6,5.6-2.6,6.2,0,.8,7.9,1,37.2,1h37.2v21.5l-3.6-1.6c-7.6-3.2-13.3-4.3-23.6-4.3-10.8,0-16.3,1-25.1,4.9-7.4,3.2-16,9.5-21.7,15.7l-5.1,5.6v-54s0,0,0,0Z"/>
  <path id="path2176" class="st1" d="M50,409.7c-1.2-1.3-1.3-3.8-1.3-19.4,0-16.3.2-18.3,1.6-21.5,2.1-4.5,3.5-6.2,7.5-8.3,3.2-1.7,3.9-1.7,50.2-1.9l47-.2v-9.4c0-5.2.2-20.2.5-33.4.5-22,.4-24.1-.9-25.3-1.1-1.1-2.9-1.4-10.1-1.4-11,0-11.2.2-11.2,11.2v7.6s-4.9-5.2-4.9-5.2c-15.4-16.4-26-37.5-29.8-59.4l-.5-3h-17.6c-24.9,0-24.7.2-24.7-18.4v-12h19.2c19.1,0,19.2,0,20.1,1.8,1.6,3,8.9,11.3,13.3,15,4.9,4.2,14.9,9.8,20.8,11.7l4.2,1.3v6.3c0,8.8.7,9.5,11,9.5s11.4-.5,11.4-8.4v-5.9l4.5-.9c4-.8,9.8-2.6,14.1-4.4,1.3-.5,1.4,2.1,1.4,47.8v48.4l7,1.7c26.4,6.3,55,3.3,77.8-8.3,2.2-1.1,4.1-2,4.4-2s.4,7.9.4,17.6v17.6l47.1.2,47.1.2,3.9,2.4c3,1.8,4.5,3.5,6.1,6.7l2.2,4.3v18.1c0,16.6-.1,18.2-1.5,19.5-1.4,1.2-13.6,1.3-160.3,1.3s-158.9,0-160.1-1.5h0ZM194.7,294.3c-2.7-2.1-2.9-6.2-.4-8.4,1.5-1.4,3-1.5,15.9-1.5s14.4.1,15.9,1.5c2.5,2.2,2.3,6.3-.4,8.4-1.9,1.5-3.2,1.7-15.5,1.7s-13.6-.1-15.5-1.7h0ZM188,269.3l.2-5.8,22.8-.2c12.5-.1,24,0,25.4.2,5.5,1,7.6,6.4,3.9,9.8-1.8,1.7-2.3,1.7-27.2,1.7h-25.4l.2-5.8ZM206.4,238.3c-5-2.5-7.4-7-8-15.1-.4-6.3-.4-6.5,2.4-10.7,3.3-5,4.8-8.2,7.4-16.1l1.9-5.6v17.3c0,9.5.3,17.9.6,18.6.4,1,1.9,1.3,8,1.3s8.4.4,9.5.9c4.1,1.8,4.4,8.2.6,10.2-.9.5-5.5.8-10.2.8-7.2,0-9.2-.3-12.1-1.7h0ZM323.8,203.5v-6h7.3c4,0,7.9.4,8.7.8,2.2,1.2,3.3,5,2.1,7.3-1.5,2.9-4.3,3.9-11.5,3.9h-6.6s0-6,0-6ZM262.5,205.6c-10.5-2.5-14.9-15.7-8.1-24.4,3.7-4.7,11.9-6.6,17.7-4.1,3.5,1.5,7.5,6.2,8.6,10.2,2.8,10.4-7.5,20.9-18.2,18.4ZM115.3,173.8c.7-6.6,5.2-15.2,10.4-19.9,15.6-14.1,39.5-11,50.6,6.5,3.1,4.9,5.2,10.9,5.2,14.9v3.1h-66.6l.5-4.6ZM67,146.8v-19.5l-1.9-1.2c-4-2.6-5.7-10.3-3.4-14.8,4.1-8,13.5-9.6,19.6-3.4,5.3,5.3,5.1,12.3-.4,17.6l-2.8,2.7v38.1h-11.2v-19.5ZM227.2,154.7c-2.9-1.2-4.1-4.2-2.9-7.5.9-2.5,8.3-6.3,17.1-8.8,18.4-5.1,37.6-3.7,54.5,4,7.2,3.3,8.8,6.6,5.2,10.7-2.3,2.7-4.9,2.7-10.9,0-9-4-14.7-5-27.6-4.9-12.6,0-16.5.8-28.8,5.8-3.6,1.4-4.3,1.5-6.6.5h0ZM97.1,125.6c-.8-23.3-.6-90.2.3-95.9,1.4-9.8,7.4-19,15.6-23.8,7.3-4.3,9-4.4,58.9-4.4s46.4,0,51.3,1.6c8,2.5,15,8.1,18.5,14.9l1.3,2.5,5.4-1.9c31.1-10.8,64.5,6.9,73.2,38.7,1.5,5.6,1.7,8.7,1.9,34.9.1,16.6,0,27.1-.4,24.7-2.5-15.9-7.4-27.4-15.4-35.9-10.3-11-24.1-17.7-45-21.9-14.9-3-25.2-3.6-54.8-3.6-24.9,0-29.8.3-40,1.8-30.6,4.6-47.7,12.8-59.4,28.7-3.2,4.3-7,11.7-7,13.6,0,.8,8,1,37.2,1h37.2v10.5c0,9.7-.1,10.4-1.4,9.9-7.9-3.3-14-4.6-23.4-5-13.1-.5-19.4.8-30.4,6.3-7.2,3.6-9.5,5.3-15.7,11.4l-7.3,7.2-.5-15.5Z"/>
  <path id="path2172" class="st4" d="M194.7,294.3c-2.7-2.1-2.9-6.2-.4-8.4,1.5-1.4,3-1.5,15.9-1.5s14.4.1,15.9,1.5c2.5,2.2,2.3,6.3-.4,8.4-1.9,1.5-3.2,1.7-15.5,1.7s-13.6-.1-15.5-1.7h0ZM188,269.3l.2-5.8,22.8-.2c12.5-.1,24,0,25.4.2,5.5,1,7.6,6.4,3.9,9.8-1.8,1.7-2.3,1.7-27.2,1.7h-25.4l.2-5.8ZM206.4,238.3c-5-2.5-7.4-7-8-15.1-.4-6.3-.4-6.5,2.4-10.7,3.3-5,4.8-8.2,7.4-16.1l1.9-5.6v17.3c0,9.5.3,17.9.6,18.6.4,1,1.9,1.3,8,1.3s8.4.4,9.5.9c4.1,1.8,4.4,8.2.6,10.2-.9.5-5.5.8-10.2.8-7.2,0-9.2-.3-12.1-1.7h0ZM323.8,203.5v-6h7.3c4,0,7.9.4,8.7.8,2.2,1.2,3.3,5,2.1,7.3-1.5,2.9-4.3,3.9-11.5,3.9h-6.6s0-6,0-6ZM259.2,203.8c-5.2-2.6-7.7-6.9-7.7-13,0-8,5.1-13.6,12.9-14.6,7.8-.9,15.2,4.6,16,12.1.6,5.3-.4,8.9-3.2,12.2-4.6,5.3-11.6,6.5-18,3.3ZM227.2,154.7c-2.9-1.2-4.1-4.2-2.9-7.5.9-2.5,8.3-6.3,17.1-8.8,18.4-5.1,37.6-3.7,54.5,4,7.2,3.3,8.8,6.6,5.2,10.7-2.3,2.7-4.9,2.7-10.9,0-9-4-14.7-5-27.6-4.9-12.6,0-16.5.8-28.8,5.8-3.6,1.4-4.3,1.5-6.6.5h0Z" sodipodi:nodetypes="ssscsssccscssccssssccsssssssccssscccssssssssssssssss"/>
  <path id="path2170" class="st15" d="M50,409.7c-1.1-1.3-1.3-3.8-1.3-19.5v-18l2.2-4.3c1.6-3.1,3.3-4.9,6.1-6.7l3.9-2.4,47.1-.2,47.1-.2v-13c0-7.1.2-19.2.5-26.7l.5-13.8,2.9,2.4c1.6,1.3,6,4.8,9.9,7.7l7,5.3v11.7l3.4.9c1.9.5,3.9,1,4.5,1.2,3.6,1.2,18.3,2.7,26.7,2.7,17.5,0,35.2-4,49.3-11.2,2.6-1.3,5-2.4,5.2-2.4s.4,7.9.4,17.6v17.6l46.6.2,46.6.2,4,2c2.8,1.5,4.7,3.2,6.4,5.9l2.4,3.9.2,18.8c.2,16.8,0,18.9-1.1,20.3-1.3,1.5-5.6,1.5-160.3,1.5s-159,0-160.3-1.5h0ZM126.9,300c-10.3-11.1-17.9-23.7-23-38-4-11.4-5.7-20.3-6.2-33.8l-.5-12.2,6.7,6.6c4.6,4.5,8.8,7.8,13.3,10.2,5.9,3.2,6.6,3.8,6.6,6,0,3.6,2.8,15.4,5.3,22.5,2.4,7.1,7.2,17,11.2,23.3l2.7,4.2h-3.4c-5.4,0-5.7.5-6.2,9.7l-.4,8.2-6.2-6.6h0ZM61,238.7c-4.5-2.2-5.2-4.5-5.2-17.5v-11.7h16.8v11.3c0,12.5.7,15.3,4.6,17.7,2.2,1.3,2.1,1.4-5.8,1.4-5.5,0-8.8-.4-10.4-1.2h0ZM259.2,203.8c-5.2-2.6-7.7-6.9-7.7-13,0-8,5.1-13.6,12.9-14.6,7.8-.9,15.2,4.6,16,12.1.6,5.3-.4,8.9-3.2,12.2-4.6,5.3-11.6,6.5-18,3.3ZM115,176c0-4.4,3.2-12.7,6.7-17.4,4.4-6,10.9-10.5,17.3-12.1,6.3-1.6,9-1.8,13-1.3l4,.5-3.7,1.4c-7.6,2.9-14.7,9.8-18.3,17.7-.7,1.6-1.8,5.3-2.3,8.2l-1,5.2h-15.7v-2.3ZM225.8,153.2c-5-5-.1-9.7,14.4-14,17-5.1,38.5-4,54.3,2.9,2.7,1.2,5.6,2.7,6.3,3.3,1.9,1.6,1.8,6.1-.2,8.1-2.1,2.1-4.5,2-10.1-.5-17.2-7.6-36.2-7.5-54.9.2-5.8,2.4-7.4,2.4-9.9,0h0ZM97.5,84.8c0-54.5,0-56.5,1.6-61.2,3-8.8,9.9-16.1,19-19.8l4.6-1.9h97.6l4.5,1.8c7.4,3,13.3,8.2,17.9,15.7.7,1.2,1.3,1.1,6.8-.8,8.2-2.8,21.1-3.5,29.9-1.6,16.1,3.6,30.4,14.7,37.6,29.3,5.6,11.4,6.1,14.7,6,43.2,0,13.4-.2,23.5-.4,22.4-3.3-19.8-15.9-36.8-33-44.5-1.5-.7-4.2-1.9-6-2.8-3.5-1.7-16.5-5.2-21.6-5.9-1.8-.2-4-.6-4.9-.8-2-.4-7.3-1.2-12.2-1.8-2-.2-16-.5-31.2-.7-25-.2-35.3.2-45,1.6-5.9.8-8.7,1.3-10.1,1.6-14.7,3.3-20.2,5.1-28.3,9.2-12.8,6.4-24,18.2-27.7,29.1l-1.4,4.1,13-.2,13-.2-1.1,3.6c-.6,2-1.5,6.5-2,10l-.9,6.4-4.5,2.5c-6.5,3.7-13,8.8-17.2,13.7l-3.7,4.2v-56.4q0,0,0,0ZM67.9,127.7c-1.8-.9-4.1-2.6-5-3.9-2.1-3-2.8-8.6-1.5-11.8,1.5-3.5,5.8-7,9.6-7.6,7.6-1.3,15.3,6.4,14,14-1.3,8-10,12.7-17.1,9.4h0Z"/>
  <path id="path2166" class="st12" d="M67,127.3c-5.2-2.6-8-10-5.8-15.5,1.5-3.5,5.8-7,9.6-7.6,7.6-1.3,15.3,6.4,14,14-1.4,8.2-10.4,12.7-17.8,9.1h0Z" sodipodi:nodetypes="sssss"/>
  <path id="path2164" class="st16" d="M49.8,409.2c-1.1-1.7-1.2-4.5-1-20.2.3-19.8.4-20.6,5.2-25.4,4.5-4.6,3.4-4.5,54.2-4.5h46.8v-36l4.1,2.1c15.6,7.9,31.7,11.5,51.1,11.5s31.7-2.9,47.4-9.9l7.8-3.5v35.8h46.8c50.8,0,49.7,0,54.2,4.5,4.8,4.8,4.9,5.5,5.2,25.7.3,17.9.2,18.6-1.4,20.2l-1.7,1.7H51.1l-1.3-2ZM259.2,203.8c-5.2-2.6-7.7-6.9-7.7-13,0-8,5.1-13.6,12.9-14.6,7.8-.9,15.2,4.6,16,12.1.6,5.3-.4,8.9-3.2,12.2-4.6,5.3-11.6,6.5-18,3.3ZM225.8,153.2c-5-5-.1-9.7,14.4-14,17-5.1,38.5-4,54.3,2.9,2.7,1.2,5.6,2.7,6.3,3.3,1.9,1.6,1.8,6.1-.2,8.1-2.1,2.1-4.5,2-10.1-.5-17.2-7.6-36.2-7.5-54.9.2-5.8,2.4-7.4,2.4-9.9,0h0ZM97.5,71.1c0-40.9,0-43.1,1.5-47.6,3-8.8,10-16.1,19-19.7l4.6-1.9h97.6l4.5,1.8c7.4,3,13.3,8.2,17.9,15.7.7,1.2,1.3,1.1,6.8-.8,8.2-2.8,21.1-3.5,29.9-1.6,16.1,3.6,30.4,14.7,37.6,29.3,5.6,11.4,6.1,14.7,6,43.2,0,23.7,0,24.2-1.2,18.8-5.1-23.9-21.6-39.8-49.2-47.2-17.4-4.7-27-5.5-61.9-5.6-34.6,0-43.1.6-59.6,4.7-30.3,7.5-46.8,22.7-52.2,48.1-1.1,5.1-1.2,2.5-1.2-37.3h0Z"/>
  <path id="path2162" class="st3" d="M49.8,409.2c-1.1-1.7-1.2-4.5-1-20.2.3-19.8.4-20.6,5.2-25.4,4.5-4.6,3.4-4.5,54.2-4.5h46.8v-36l4.1,2.1c15.6,7.9,31.7,11.5,51.1,11.5s31.7-2.9,47.4-9.9l7.8-3.5v35.8h46.8c50.8,0,49.7,0,54.2,4.5,4.8,4.8,4.9,5.5,5.2,25.7.3,17.9.2,18.6-1.4,20.2l-1.7,1.7H51.1l-1.3-2ZM225.8,153.2c-5-5-.1-9.7,14.4-14,17-5.1,38.5-4,54.3,2.9,2.7,1.2,5.6,2.7,6.3,3.3,1.9,1.6,1.8,6.1-.2,8.1-2.1,2.1-4.5,2-10.1-.5-17.2-7.6-36.2-7.5-54.9.2-5.8,2.4-7.4,2.4-9.9,0h0ZM97.7,69.9l.2-44,2.6-5.4c3-6.4,8.8-12.4,14.8-15.3,5.4-2.6,12.8-3.7,25.8-3.6,9.9,0,10.2,0,6.4,1-8.2,2-14.8,6.7-19.3,13.7-4.7,7.3-5.1,10.3-5.2,33.9v21.3s-5.2,4.2-5.2,4.2c-9.6,7.8-16.1,18.8-19,32.6-1.1,5.2-1.2,2.6-1.1-38.4h0Z"/>
  <path id="path2160" class="st2" d="M49.8,409.2c-1.1-1.7-1.2-4.5-1-20.2.3-19.8.4-20.6,5.2-25.4,4.5-4.6,3.4-4.5,54.2-4.5h46.8v-36l4.1,2.1c15.6,7.9,31.7,11.5,51.1,11.5s31.7-2.9,47.4-9.9l7.8-3.5v35.8h46.8c50.8,0,49.7,0,54.2,4.5,4.8,4.8,4.9,5.5,5.2,25.7.3,17.9.2,18.6-1.4,20.2l-1.7,1.7H51.1l-1.3-2ZM225.8,153.2c-5-5-.1-9.7,14.4-14,17-5.1,38.5-4,54.3,2.9,2.7,1.2,5.6,2.7,6.3,3.3,1.9,1.6,1.8,6.1-.2,8.1-2.1,2.1-4.5,2-10.1-.5-17.2-7.6-36.2-7.5-54.9.2-5.8,2.4-7.4,2.4-9.9,0h0Z"/>
  <path id="path2158" class="st14" d="M51.2,410.3l-1.8-.7.2-20.3.2-20.3,2.4-3.1c1.3-1.7,4-3.9,6-4.9l3.5-1.8h94l.2-17.6.2-17.6,5.2,2.5c8.1,3.8,20.4,7.7,29.2,9.2,10.4,1.7,28.7,1.7,38.9,0,9-1.5,22.3-5.7,29.3-9.2,2.7-1.4,5.1-2.5,5.3-2.5s.4,7.9.4,17.6v17.6h46.8c40.5,0,47.2.2,49.8,1.2,3.8,1.6,6.3,4,8.3,7.7,1.4,2.7,1.5,4.9,1.5,22.2v19.3l-2.1.8c-2.7,1-315.2,1-317.8,0h0ZM225.8,153.2c-5-5-.1-9.7,14.4-14,17-5.1,38.5-4,54.3,2.9,2.7,1.2,5.6,2.7,6.3,3.3,1.9,1.6,1.8,6.1-.2,8.1-2.1,2.1-4.5,2-10.1-.5-17.2-7.6-36.2-7.5-54.9.2-5.8,2.4-7.4,2.4-9.9,0h0Z"/>
  <path id="path2156" class="st9" d="M51.2,410.3l-1.8-.7.2-20.3.2-20.3,2.4-3.1c1.3-1.7,4-3.9,6-4.9l3.5-1.8h94l.2-17.6.2-17.6,5.2,2.5c8.1,3.8,20.4,7.7,29.2,9.2,10.4,1.7,28.7,1.7,38.9,0,9-1.5,22.3-5.7,29.3-9.2,2.7-1.4,5.1-2.5,5.3-2.5s.4,7.9.4,17.6v17.6h46.8c40.5,0,47.2.2,49.8,1.2,3.8,1.6,6.3,4,8.3,7.7,1.4,2.7,1.5,4.9,1.5,22.2v19.3l-2.1.8c-2.7,1-315.2,1-317.8,0h0Z"/>
  <path id="path2154" class="st11" d="M51.2,409.9c-1.8-1.2-1.8-1.5-1.8-19.8s0-18.8,1.8-22.1c1.1-2.1,3.2-4.6,5.3-6l3.5-2.4,12.9-.2c11.5-.2,12.7,0,10.5.9-2.9,1.3-6.5,4.8-8.3,8.1-2,3.6-2.5,38-.6,40.9l1.3,2h-11.4c-9.1,0-11.8-.3-13.2-1.2h0Z"/>
</svg>