<svg xmlns:svg="http://www.w3.org/2000/svg" xmlns="http://www.w3.org/2000/svg" width="448" height="512" viewBox="0 0 448 512" version="1.1" id="svg8"><title id="title977">CEUR</title><g id="layer6"><path d="M 48 32 C 21.5 32 0 53.5 0 80 L 0 432 C 0 458.5 21.5 480 48 480 L 400 480 C 426.5 480 448 458.5 448 432 L 448 80 C 448 53.5 426.5 32 400 32 L 48 32 z M 64 96 L 170.66797 96 L 170.66797 149.33398 L 117.33398 149.33398 L 117.33398 362.66602 L 224 362.66602 L 224 416 L 64 416 L 64 96 z M 224 96 L 330.66602 96 L 384 96 L 384 416 L 277.33203 416 L 277.33203 362.66602 L 330.66602 362.66602 L 330.66602 149.33398 L 224 149.33398 L 224 96 z " id="path2" /></g></svg>
