<svg id="visual" viewBox="0 0 900 600" width="900" height="600" xmlns="http://www.w3.org/2000/svg" xmlns:xlink="http://www.w3.org/1999/xlink" version="1.1"><rect x="0" y="0" width="900" height="600" fill="#000000"></rect><g fill="#1C0E1C"><path d="M0 -17L3.8 -5.2L16.2 -5.2L6.2 2L10 13.7L0 6.5L-10 13.7L-6.2 2L-16.2 -5.2L-3.8 -5.2Z" transform="translate(122 218)"></path><path d="M0 -5.7L1.3 -1.7L5.4 -1.7L2.1 0.7L3.3 4.6L0 2.2L-3.3 4.6L-2.1 0.7L-5.4 -1.7L-1.3 -1.7Z" transform="translate(731 137)"></path><path d="M0 -8.5L1.9 -2.6L8.1 -2.6L3.1 1L5 6.9L0 3.2L-5 6.9L-3.1 1L-8.1 -2.6L-1.9 -2.6Z" transform="translate(821 335)"></path><path d="M0 -9.4L2.1 -2.9L9 -2.9L3.4 1.1L5.5 7.6L0 3.6L-5.5 7.6L-3.4 1.1L-9 -2.9L-2.1 -2.9Z" transform="translate(356 492)"></path><path d="M0 -9.4L2.1 -2.9L9 -2.9L3.4 1.1L5.5 7.6L0 3.6L-5.5 7.6L-3.4 1.1L-9 -2.9L-2.1 -2.9Z" transform="translate(709 587)"></path><path d="M0 -7.6L1.7 -2.3L7.2 -2.3L2.7 0.9L4.4 6.1L0 2.9L-4.4 6.1L-2.7 0.9L-7.2 -2.3L-1.7 -2.3Z" transform="translate(410 290)"></path><path d="M0 -6.6L1.5 -2L6.3 -2L2.4 0.8L3.9 5.3L0 2.5L-3.9 5.3L-2.4 0.8L-6.3 -2L-1.5 -2Z" transform="translate(31 438)"></path><path d="M0 -11.3L2.5 -3.5L10.8 -3.5L4.1 1.3L6.7 9.2L0 4.3L-6.7 9.2L-4.1 1.3L-10.8 -3.5L-2.5 -3.5Z" transform="translate(249 147)"></path><path d="M0 -10.4L2.3 -3.2L9.9 -3.2L3.8 1.2L6.1 8.4L0 4L-6.1 8.4L-3.8 1.2L-9.9 -3.2L-2.3 -3.2Z" transform="translate(211 589)"></path><path d="M0 -12.3L2.8 -3.8L11.7 -3.8L4.5 1.4L7.2 9.9L0 4.7L-7.2 9.9L-4.5 1.4L-11.7 -3.8L-2.8 -3.8Z" transform="translate(622 530)"></path><path d="M0 -6.6L1.5 -2L6.3 -2L2.4 0.8L3.9 5.3L0 2.5L-3.9 5.3L-2.4 0.8L-6.3 -2L-1.5 -2Z" transform="translate(673 68)"></path><path d="M0 -7.6L1.7 -2.3L7.2 -2.3L2.7 0.9L4.4 6.1L0 2.9L-4.4 6.1L-2.7 0.9L-7.2 -2.3L-1.7 -2.3Z" transform="translate(413 582)"></path><path d="M0 -5.7L1.3 -1.7L5.4 -1.7L2.1 0.7L3.3 4.6L0 2.2L-3.3 4.6L-2.1 0.7L-5.4 -1.7L-1.3 -1.7Z" transform="translate(593 474)"></path><path d="M0 -5.7L1.3 -1.7L5.4 -1.7L2.1 0.7L3.3 4.6L0 2.2L-3.3 4.6L-2.1 0.7L-5.4 -1.7L-1.3 -1.7Z" transform="translate(195 20)"></path><path d="M0 -5.7L1.3 -1.7L5.4 -1.7L2.1 0.7L3.3 4.6L0 2.2L-3.3 4.6L-2.1 0.7L-5.4 -1.7L-1.3 -1.7Z" transform="translate(248 328)"></path><path d="M0 -11.3L2.5 -3.5L10.8 -3.5L4.1 1.3L6.7 9.2L0 4.3L-6.7 9.2L-4.1 1.3L-10.8 -3.5L-2.5 -3.5Z" transform="translate(109 417)"></path><path d="M0 -5.7L1.3 -1.7L5.4 -1.7L2.1 0.7L3.3 4.6L0 2.2L-3.3 4.6L-2.1 0.7L-5.4 -1.7L-1.3 -1.7Z" transform="translate(563 205)"></path><path d="M0 -4.7L1.1 -1.5L4.5 -1.5L1.7 0.6L2.8 3.8L0 1.8L-2.8 3.8L-1.7 0.6L-4.5 -1.5L-1.1 -1.5Z" transform="translate(258 548)"></path><path d="M0 -9.4L2.1 -2.9L9 -2.9L3.4 1.1L5.5 7.6L0 3.6L-5.5 7.6L-3.4 1.1L-9 -2.9L-2.1 -2.9Z" transform="translate(661 107)"></path><path d="M0 -9.4L2.1 -2.9L9 -2.9L3.4 1.1L5.5 7.6L0 3.6L-5.5 7.6L-3.4 1.1L-9 -2.9L-2.1 -2.9Z" transform="translate(117 475)"></path><path d="M0 -13.2L3 -4.1L12.6 -4.1L4.8 1.6L7.8 10.7L0 5L-7.8 10.7L-4.8 1.6L-12.6 -4.1L-3 -4.1Z" transform="translate(270 496)"></path><path d="M0 -11.3L2.5 -3.5L10.8 -3.5L4.1 1.3L6.7 9.2L0 4.3L-6.7 9.2L-4.1 1.3L-10.8 -3.5L-2.5 -3.5Z" transform="translate(77 442)"></path><path d="M0 -8.5L1.9 -2.6L8.1 -2.6L3.1 1L5 6.9L0 3.2L-5 6.9L-3.1 1L-8.1 -2.6L-1.9 -2.6Z" transform="translate(249 61)"></path><path d="M0 -8.5L1.9 -2.6L8.1 -2.6L3.1 1L5 6.9L0 3.2L-5 6.9L-3.1 1L-8.1 -2.6L-1.9 -2.6Z" transform="translate(93 325)"></path><path d="M0 -11.3L2.5 -3.5L10.8 -3.5L4.1 1.3L6.7 9.2L0 4.3L-6.7 9.2L-4.1 1.3L-10.8 -3.5L-2.5 -3.5Z" transform="translate(339 416)"></path><path d="M0 -13.2L3 -4.1L12.6 -4.1L4.8 1.6L7.8 10.7L0 5L-7.8 10.7L-4.8 1.6L-12.6 -4.1L-3 -4.1Z" transform="translate(489 303)"></path><path d="M0 -7.6L1.7 -2.3L7.2 -2.3L2.7 0.9L4.4 6.1L0 2.9L-4.4 6.1L-2.7 0.9L-7.2 -2.3L-1.7 -2.3Z" transform="translate(826 512)"></path><path d="M0 -10.4L2.3 -3.2L9.9 -3.2L3.8 1.2L6.1 8.4L0 4L-6.1 8.4L-3.8 1.2L-9.9 -3.2L-2.3 -3.2Z" transform="translate(493 28)"></path><path d="M0 -11.3L2.5 -3.5L10.8 -3.5L4.1 1.3L6.7 9.2L0 4.3L-6.7 9.2L-4.1 1.3L-10.8 -3.5L-2.5 -3.5Z" transform="translate(97 29)"></path><path d="M0 -15.1L3.4 -4.7L14.4 -4.7L5.5 1.8L8.9 12.2L0 5.8L-8.9 12.2L-5.5 1.8L-14.4 -4.7L-3.4 -4.7Z" transform="translate(733 477)"></path><path d="M0 -8.5L1.9 -2.6L8.1 -2.6L3.1 1L5 6.9L0 3.2L-5 6.9L-3.1 1L-8.1 -2.6L-1.9 -2.6Z" transform="translate(487 542)"></path><path d="M0 -7.6L1.7 -2.3L7.2 -2.3L2.7 0.9L4.4 6.1L0 2.9L-4.4 6.1L-2.7 0.9L-7.2 -2.3L-1.7 -2.3Z" transform="translate(397 94)"></path><path d="M0 -4.7L1.1 -1.5L4.5 -1.5L1.7 0.6L2.8 3.8L0 1.8L-2.8 3.8L-1.7 0.6L-4.5 -1.5L-1.1 -1.5Z" transform="translate(641 393)"></path><path d="M0 -4.7L1.1 -1.5L4.5 -1.5L1.7 0.6L2.8 3.8L0 1.8L-2.8 3.8L-1.7 0.6L-4.5 -1.5L-1.1 -1.5Z" transform="translate(566 281)"></path><path d="M0 -6.6L1.5 -2L6.3 -2L2.4 0.8L3.9 5.3L0 2.5L-3.9 5.3L-2.4 0.8L-6.3 -2L-1.5 -2Z" transform="translate(233 96)"></path><path d="M0 -14.2L3.2 -4.4L13.5 -4.4L5.1 1.7L8.3 11.5L0 5.4L-8.3 11.5L-5.1 1.7L-13.5 -4.4L-3.2 -4.4Z" transform="translate(86 548)"></path><path d="M0 -6.6L1.5 -2L6.3 -2L2.4 0.8L3.9 5.3L0 2.5L-3.9 5.3L-2.4 0.8L-6.3 -2L-1.5 -2Z" transform="translate(157 146)"></path><path d="M0 -5.7L1.3 -1.7L5.4 -1.7L2.1 0.7L3.3 4.6L0 2.2L-3.3 4.6L-2.1 0.7L-5.4 -1.7L-1.3 -1.7Z" transform="translate(551 249)"></path><path d="M0 -9.4L2.1 -2.9L9 -2.9L3.4 1.1L5.5 7.6L0 3.6L-5.5 7.6L-3.4 1.1L-9 -2.9L-2.1 -2.9Z" transform="translate(351 262)"></path><path d="M0 -14.2L3.2 -4.4L13.5 -4.4L5.1 1.7L8.3 11.5L0 5.4L-8.3 11.5L-5.1 1.7L-13.5 -4.4L-3.2 -4.4Z" transform="translate(660 554)"></path><path d="M0 -5.7L1.3 -1.7L5.4 -1.7L2.1 0.7L3.3 4.6L0 2.2L-3.3 4.6L-2.1 0.7L-5.4 -1.7L-1.3 -1.7Z" transform="translate(451 324)"></path><path d="M0 -11.3L2.5 -3.5L10.8 -3.5L4.1 1.3L6.7 9.2L0 4.3L-6.7 9.2L-4.1 1.3L-10.8 -3.5L-2.5 -3.5Z" transform="translate(4 51)"></path><path d="M0 -10.4L2.3 -3.2L9.9 -3.2L3.8 1.2L6.1 8.4L0 4L-6.1 8.4L-3.8 1.2L-9.9 -3.2L-2.3 -3.2Z" transform="translate(275 439)"></path><path d="M0 -13.2L3 -4.1L12.6 -4.1L4.8 1.6L7.8 10.7L0 5L-7.8 10.7L-4.8 1.6L-12.6 -4.1L-3 -4.1Z" transform="translate(293 213)"></path><path d="M0 -6.6L1.5 -2L6.3 -2L2.4 0.8L3.9 5.3L0 2.5L-3.9 5.3L-2.4 0.8L-6.3 -2L-1.5 -2Z" transform="translate(338 48)"></path><path d="M0 -15.1L3.4 -4.7L14.4 -4.7L5.5 1.8L8.9 12.2L0 5.8L-8.9 12.2L-5.5 1.8L-14.4 -4.7L-3.4 -4.7Z" transform="translate(710 415)"></path><path d="M0 -7.6L1.7 -2.3L7.2 -2.3L2.7 0.9L4.4 6.1L0 2.9L-4.4 6.1L-2.7 0.9L-7.2 -2.3L-1.7 -2.3Z" transform="translate(338 328)"></path><path d="M0 -14.2L3.2 -4.4L13.5 -4.4L5.1 1.7L8.3 11.5L0 5.4L-8.3 11.5L-5.1 1.7L-13.5 -4.4L-3.2 -4.4Z" transform="translate(810 447)"></path><path d="M0 -4.7L1.1 -1.5L4.5 -1.5L1.7 0.6L2.8 3.8L0 1.8L-2.8 3.8L-1.7 0.6L-4.5 -1.5L-1.1 -1.5Z" transform="translate(422 441)"></path><path d="M0 -7.6L1.7 -2.3L7.2 -2.3L2.7 0.9L4.4 6.1L0 2.9L-4.4 6.1L-2.7 0.9L-7.2 -2.3L-1.7 -2.3Z" transform="translate(226 197)"></path><path d="M0 -10.4L2.3 -3.2L9.9 -3.2L3.8 1.2L6.1 8.4L0 4L-6.1 8.4L-3.8 1.2L-9.9 -3.2L-2.3 -3.2Z" transform="translate(442 78)"></path><path d="M0 -11.3L2.5 -3.5L10.8 -3.5L4.1 1.3L6.7 9.2L0 4.3L-6.7 9.2L-4.1 1.3L-10.8 -3.5L-2.5 -3.5Z" transform="translate(186 237)"></path><path d="M0 -8.5L1.9 -2.6L8.1 -2.6L3.1 1L5 6.9L0 3.2L-5 6.9L-3.1 1L-8.1 -2.6L-1.9 -2.6Z" transform="translate(279 122)"></path><path d="M0 -14.2L3.2 -4.4L13.5 -4.4L5.1 1.7L8.3 11.5L0 5.4L-8.3 11.5L-5.1 1.7L-13.5 -4.4L-3.2 -4.4Z" transform="translate(511 78)"></path><path d="M0 -15.1L3.4 -4.7L14.4 -4.7L5.5 1.8L8.9 12.2L0 5.8L-8.9 12.2L-5.5 1.8L-14.4 -4.7L-3.4 -4.7Z" transform="translate(767 32)"></path><path d="M0 -15.1L3.4 -4.7L14.4 -4.7L5.5 1.8L8.9 12.2L0 5.8L-8.9 12.2L-5.5 1.8L-14.4 -4.7L-3.4 -4.7Z" transform="translate(318 564)"></path><path d="M0 -15.1L3.4 -4.7L14.4 -4.7L5.5 1.8L8.9 12.2L0 5.8L-8.9 12.2L-5.5 1.8L-14.4 -4.7L-3.4 -4.7Z" transform="translate(493 456)"></path><path d="M0 -6.6L1.5 -2L6.3 -2L2.4 0.8L3.9 5.3L0 2.5L-3.9 5.3L-2.4 0.8L-6.3 -2L-1.5 -2Z" transform="translate(609 104)"></path><path d="M0 -12.3L2.8 -3.8L11.7 -3.8L4.5 1.4L7.2 9.9L0 4.7L-7.2 9.9L-4.5 1.4L-11.7 -3.8L-2.8 -3.8Z" transform="translate(852 421)"></path><path d="M0 -10.4L2.3 -3.2L9.9 -3.2L3.8 1.2L6.1 8.4L0 4L-6.1 8.4L-3.8 1.2L-9.9 -3.2L-2.3 -3.2Z" transform="translate(379 570)"></path><path d="M0 -7.6L1.7 -2.3L7.2 -2.3L2.7 0.9L4.4 6.1L0 2.9L-4.4 6.1L-2.7 0.9L-7.2 -2.3L-1.7 -2.3Z" transform="translate(611 438)"></path><path d="M0 -6.6L1.5 -2L6.3 -2L2.4 0.8L3.9 5.3L0 2.5L-3.9 5.3L-2.4 0.8L-6.3 -2L-1.5 -2Z" transform="translate(162 447)"></path><path d="M0 -11.3L2.5 -3.5L10.8 -3.5L4.1 1.3L6.7 9.2L0 4.3L-6.7 9.2L-4.1 1.3L-10.8 -3.5L-2.5 -3.5Z" transform="translate(280 284)"></path><path d="M0 -12.3L2.8 -3.8L11.7 -3.8L4.5 1.4L7.2 9.9L0 4.7L-7.2 9.9L-4.5 1.4L-11.7 -3.8L-2.8 -3.8Z" transform="translate(389 353)"></path><path d="M0 -8.5L1.9 -2.6L8.1 -2.6L3.1 1L5 6.9L0 3.2L-5 6.9L-3.1 1L-8.1 -2.6L-1.9 -2.6Z" transform="translate(70 591)"></path><path d="M0 -10.4L2.3 -3.2L9.9 -3.2L3.8 1.2L6.1 8.4L0 4L-6.1 8.4L-3.8 1.2L-9.9 -3.2L-2.3 -3.2Z" transform="translate(669 481)"></path><path d="M0 -15.1L3.4 -4.7L14.4 -4.7L5.5 1.8L8.9 12.2L0 5.8L-8.9 12.2L-5.5 1.8L-14.4 -4.7L-3.4 -4.7Z" transform="translate(436 385)"></path><path d="M0 -7.6L1.7 -2.3L7.2 -2.3L2.7 0.9L4.4 6.1L0 2.9L-4.4 6.1L-2.7 0.9L-7.2 -2.3L-1.7 -2.3Z" transform="translate(864 198)"></path><path d="M0 -5.7L1.3 -1.7L5.4 -1.7L2.1 0.7L3.3 4.6L0 2.2L-3.3 4.6L-2.1 0.7L-5.4 -1.7L-1.3 -1.7Z" transform="translate(797 147)"></path><path d="M0 -11.3L2.5 -3.5L10.8 -3.5L4.1 1.3L6.7 9.2L0 4.3L-6.7 9.2L-4.1 1.3L-10.8 -3.5L-2.5 -3.5Z" transform="translate(783 238)"></path><path d="M0 -12.3L2.8 -3.8L11.7 -3.8L4.5 1.4L7.2 9.9L0 4.7L-7.2 9.9L-4.5 1.4L-11.7 -3.8L-2.8 -3.8Z" transform="translate(155 42)"></path><path d="M0 -13.2L3 -4.1L12.6 -4.1L4.8 1.6L7.8 10.7L0 5L-7.8 10.7L-4.8 1.6L-12.6 -4.1L-3 -4.1Z" transform="translate(673 333)"></path><path d="M0 -13.2L3 -4.1L12.6 -4.1L4.8 1.6L7.8 10.7L0 5L-7.8 10.7L-4.8 1.6L-12.6 -4.1L-3 -4.1Z" transform="translate(378 425)"></path><path d="M0 -8.5L1.9 -2.6L8.1 -2.6L3.1 1L5 6.9L0 3.2L-5 6.9L-3.1 1L-8.1 -2.6L-1.9 -2.6Z" transform="translate(896 387)"></path><path d="M0 -14.2L3.2 -4.4L13.5 -4.4L5.1 1.7L8.3 11.5L0 5.4L-8.3 11.5L-5.1 1.7L-13.5 -4.4L-3.2 -4.4Z" transform="translate(210 517)"></path><path d="M0 -11.3L2.5 -3.5L10.8 -3.5L4.1 1.3L6.7 9.2L0 4.3L-6.7 9.2L-4.1 1.3L-10.8 -3.5L-2.5 -3.5Z" transform="translate(550 354)"></path><path d="M0 -5.7L1.3 -1.7L5.4 -1.7L2.1 0.7L3.3 4.6L0 2.2L-3.3 4.6L-2.1 0.7L-5.4 -1.7L-1.3 -1.7Z" transform="translate(94 80)"></path><path d="M0 -11.3L2.5 -3.5L10.8 -3.5L4.1 1.3L6.7 9.2L0 4.3L-6.7 9.2L-4.1 1.3L-10.8 -3.5L-2.5 -3.5Z" transform="translate(4 317)"></path><path d="M0 -10.4L2.3 -3.2L9.9 -3.2L3.8 1.2L6.1 8.4L0 4L-6.1 8.4L-3.8 1.2L-9.9 -3.2L-2.3 -3.2Z" transform="translate(797 573)"></path><path d="M0 -9.4L2.1 -2.9L9 -2.9L3.4 1.1L5.5 7.6L0 3.6L-5.5 7.6L-3.4 1.1L-9 -2.9L-2.1 -2.9Z" transform="translate(588 57)"></path><path d="M0 -15.1L3.4 -4.7L14.4 -4.7L5.5 1.8L8.9 12.2L0 5.8L-8.9 12.2L-5.5 1.8L-14.4 -4.7L-3.4 -4.7Z" transform="translate(195 112)"></path><path d="M0 -9.4L2.1 -2.9L9 -2.9L3.4 1.1L5.5 7.6L0 3.6L-5.5 7.6L-3.4 1.1L-9 -2.9L-2.1 -2.9Z" transform="translate(829 177)"></path><path d="M0 -8.5L1.9 -2.6L8.1 -2.6L3.1 1L5 6.9L0 3.2L-5 6.9L-3.1 1L-8.1 -2.6L-1.9 -2.6Z" transform="translate(459 472)"></path><path d="M0 -12.3L2.8 -3.8L11.7 -3.8L4.5 1.4L7.2 9.9L0 4.7L-7.2 9.9L-4.5 1.4L-11.7 -3.8L-2.8 -3.8Z" transform="translate(891 138)"></path><path d="M0 -9.4L2.1 -2.9L9 -2.9L3.4 1.1L5.5 7.6L0 3.6L-5.5 7.6L-3.4 1.1L-9 -2.9L-2.1 -2.9Z" transform="translate(678 168)"></path><path d="M0 -14.2L3.2 -4.4L13.5 -4.4L5.1 1.7L8.3 11.5L0 5.4L-8.3 11.5L-5.1 1.7L-13.5 -4.4L-3.2 -4.4Z" transform="translate(8 513)"></path><path d="M0 -10.4L2.3 -3.2L9.9 -3.2L3.8 1.2L6.1 8.4L0 4L-6.1 8.4L-3.8 1.2L-9.9 -3.2L-2.3 -3.2Z" transform="translate(721 221)"></path><path d="M0 -5.7L1.3 -1.7L5.4 -1.7L2.1 0.7L3.3 4.6L0 2.2L-3.3 4.6L-2.1 0.7L-5.4 -1.7L-1.3 -1.7Z" transform="translate(391 58)"></path><path d="M0 -15.1L3.4 -4.7L14.4 -4.7L5.5 1.8L8.9 12.2L0 5.8L-8.9 12.2L-5.5 1.8L-14.4 -4.7L-3.4 -4.7Z" transform="translate(6 155)"></path><path d="M0 -4.7L1.1 -1.5L4.5 -1.5L1.7 0.6L2.8 3.8L0 1.8L-2.8 3.8L-1.7 0.6L-4.5 -1.5L-1.1 -1.5Z" transform="translate(513 187)"></path><path d="M0 -13.2L3 -4.1L12.6 -4.1L4.8 1.6L7.8 10.7L0 5L-7.8 10.7L-4.8 1.6L-12.6 -4.1L-3 -4.1Z" transform="translate(554 582)"></path><path d="M0 -14.2L3.2 -4.4L13.5 -4.4L5.1 1.7L8.3 11.5L0 5.4L-8.3 11.5L-5.1 1.7L-13.5 -4.4L-3.2 -4.4Z" transform="translate(794 393)"></path><path d="M0 -9.4L2.1 -2.9L9 -2.9L3.4 1.1L5.5 7.6L0 3.6L-5.5 7.6L-3.4 1.1L-9 -2.9L-2.1 -2.9Z" transform="translate(537 479)"></path><path d="M0 -6.6L1.5 -2L6.3 -2L2.4 0.8L3.9 5.3L0 2.5L-3.9 5.3L-2.4 0.8L-6.3 -2L-1.5 -2Z" transform="translate(334 106)"></path><path d="M0 -14.2L3.2 -4.4L13.5 -4.4L5.1 1.7L8.3 11.5L0 5.4L-8.3 11.5L-5.1 1.7L-13.5 -4.4L-3.2 -4.4Z" transform="translate(128 262)"></path><path d="M0 -7.6L1.7 -2.3L7.2 -2.3L2.7 0.9L4.4 6.1L0 2.9L-4.4 6.1L-2.7 0.9L-7.2 -2.3L-1.7 -2.3Z" transform="translate(745 517)"></path><path d="M0 -5.7L1.3 -1.7L5.4 -1.7L2.1 0.7L3.3 4.6L0 2.2L-3.3 4.6L-2.1 0.7L-5.4 -1.7L-1.3 -1.7Z" transform="translate(173 277)"></path><path d="M0 -15.1L3.4 -4.7L14.4 -4.7L5.5 1.8L8.9 12.2L0 5.8L-8.9 12.2L-5.5 1.8L-14.4 -4.7L-3.4 -4.7Z" transform="translate(9 219)"></path><path d="M0 -14.2L3.2 -4.4L13.5 -4.4L5.1 1.7L8.3 11.5L0 5.4L-8.3 11.5L-5.1 1.7L-13.5 -4.4L-3.2 -4.4Z" transform="translate(127 312)"></path><path d="M0 -13.2L3 -4.1L12.6 -4.1L4.8 1.6L7.8 10.7L0 5L-7.8 10.7L-4.8 1.6L-12.6 -4.1L-3 -4.1Z" transform="translate(835 113)"></path><path d="M0 -4.7L1.1 -1.5L4.5 -1.5L1.7 0.6L2.8 3.8L0 1.8L-2.8 3.8L-1.7 0.6L-4.5 -1.5L-1.1 -1.5Z" transform="translate(830 288)"></path><path d="M0 -9.4L2.1 -2.9L9 -2.9L3.4 1.1L5.5 7.6L0 3.6L-5.5 7.6L-3.4 1.1L-9 -2.9L-2.1 -2.9Z" transform="translate(575 94)"></path><path d="M0 -4.7L1.1 -1.5L4.5 -1.5L1.7 0.6L2.8 3.8L0 1.8L-2.8 3.8L-1.7 0.6L-4.5 -1.5L-1.1 -1.5Z" transform="translate(760 159)"></path><path d="M0 -5.7L1.3 -1.7L5.4 -1.7L2.1 0.7L3.3 4.6L0 2.2L-3.3 4.6L-2.1 0.7L-5.4 -1.7L-1.3 -1.7Z" transform="translate(38 392)"></path><path d="M0 -14.2L3.2 -4.4L13.5 -4.4L5.1 1.7L8.3 11.5L0 5.4L-8.3 11.5L-5.1 1.7L-13.5 -4.4L-3.2 -4.4Z" transform="translate(412 137)"></path><path d="M0 -6.6L1.5 -2L6.3 -2L2.4 0.8L3.9 5.3L0 2.5L-3.9 5.3L-2.4 0.8L-6.3 -2L-1.5 -2Z" transform="translate(20 573)"></path><path d="M0 -12.3L2.8 -3.8L11.7 -3.8L4.5 1.4L7.2 9.9L0 4.7L-7.2 9.9L-4.5 1.4L-11.7 -3.8L-2.8 -3.8Z" transform="translate(160 356)"></path><path d="M0 -7.6L1.7 -2.3L7.2 -2.3L2.7 0.9L4.4 6.1L0 2.9L-4.4 6.1L-2.7 0.9L-7.2 -2.3L-1.7 -2.3Z" transform="translate(896 179)"></path><path d="M0 -5.7L1.3 -1.7L5.4 -1.7L2.1 0.7L3.3 4.6L0 2.2L-3.3 4.6L-2.1 0.7L-5.4 -1.7L-1.3 -1.7Z" transform="translate(48 500)"></path><path d="M0 -4.7L1.1 -1.5L4.5 -1.5L1.7 0.6L2.8 3.8L0 1.8L-2.8 3.8L-1.7 0.6L-4.5 -1.5L-1.1 -1.5Z" transform="translate(882 100)"></path><path d="M0 -4.7L1.1 -1.5L4.5 -1.5L1.7 0.6L2.8 3.8L0 1.8L-2.8 3.8L-1.7 0.6L-4.5 -1.5L-1.1 -1.5Z" transform="translate(315 522)"></path><path d="M0 -15.1L3.4 -4.7L14.4 -4.7L5.5 1.8L8.9 12.2L0 5.8L-8.9 12.2L-5.5 1.8L-14.4 -4.7L-3.4 -4.7Z" transform="translate(404 5)"></path><path d="M0 -12.3L2.8 -3.8L11.7 -3.8L4.5 1.4L7.2 9.9L0 4.7L-7.2 9.9L-4.5 1.4L-11.7 -3.8L-2.8 -3.8Z" transform="translate(325 287)"></path><path d="M0 -12.3L2.8 -3.8L11.7 -3.8L4.5 1.4L7.2 9.9L0 4.7L-7.2 9.9L-4.5 1.4L-11.7 -3.8L-2.8 -3.8Z" transform="translate(873 453)"></path><path d="M0 -8.5L1.9 -2.6L8.1 -2.6L3.1 1L5 6.9L0 3.2L-5 6.9L-3.1 1L-8.1 -2.6L-1.9 -2.6Z" transform="translate(815 39)"></path><path d="M0 -13.2L3 -4.1L12.6 -4.1L4.8 1.6L7.8 10.7L0 5L-7.8 10.7L-4.8 1.6L-12.6 -4.1L-3 -4.1Z" transform="translate(551 13)"></path><path d="M0 -8.5L1.9 -2.6L8.1 -2.6L3.1 1L5 6.9L0 3.2L-5 6.9L-3.1 1L-8.1 -2.6L-1.9 -2.6Z" transform="translate(627 320)"></path><path d="M0 -13.2L3 -4.1L12.6 -4.1L4.8 1.6L7.8 10.7L0 5L-7.8 10.7L-4.8 1.6L-12.6 -4.1L-3 -4.1Z" transform="translate(25 18)"></path><path d="M0 -15.1L3.4 -4.7L14.4 -4.7L5.5 1.8L8.9 12.2L0 5.8L-8.9 12.2L-5.5 1.8L-14.4 -4.7L-3.4 -4.7Z" transform="translate(760 598)"></path><path d="M0 -13.2L3 -4.1L12.6 -4.1L4.8 1.6L7.8 10.7L0 5L-7.8 10.7L-4.8 1.6L-12.6 -4.1L-3 -4.1Z" transform="translate(108 163)"></path><path d="M0 -14.2L3.2 -4.4L13.5 -4.4L5.1 1.7L8.3 11.5L0 5.4L-8.3 11.5L-5.1 1.7L-13.5 -4.4L-3.2 -4.4Z" transform="translate(52 75)"></path><path d="M0 -12.3L2.8 -3.8L11.7 -3.8L4.5 1.4L7.2 9.9L0 4.7L-7.2 9.9L-4.5 1.4L-11.7 -3.8L-2.8 -3.8Z" transform="translate(255 224)"></path><path d="M0 -8.5L1.9 -2.6L8.1 -2.6L3.1 1L5 6.9L0 3.2L-5 6.9L-3.1 1L-8.1 -2.6L-1.9 -2.6Z" transform="translate(466 108)"></path><path d="M0 -12.3L2.8 -3.8L11.7 -3.8L4.5 1.4L7.2 9.9L0 4.7L-7.2 9.9L-4.5 1.4L-11.7 -3.8L-2.8 -3.8Z" transform="translate(481 419)"></path><path d="M0 -4.7L1.1 -1.5L4.5 -1.5L1.7 0.6L2.8 3.8L0 1.8L-2.8 3.8L-1.7 0.6L-4.5 -1.5L-1.1 -1.5Z" transform="translate(532 539)"></path><path d="M0 -5.7L1.3 -1.7L5.4 -1.7L2.1 0.7L3.3 4.6L0 2.2L-3.3 4.6L-2.1 0.7L-5.4 -1.7L-1.3 -1.7Z" transform="translate(354 139)"></path><path d="M0 -10.4L2.3 -3.2L9.9 -3.2L3.8 1.2L6.1 8.4L0 4L-6.1 8.4L-3.8 1.2L-9.9 -3.2L-2.3 -3.2Z" transform="translate(241 417)"></path><path d="M0 -11.3L2.5 -3.5L10.8 -3.5L4.1 1.3L6.7 9.2L0 4.3L-6.7 9.2L-4.1 1.3L-10.8 -3.5L-2.5 -3.5Z" transform="translate(582 370)"></path><path d="M0 -15.1L3.4 -4.7L14.4 -4.7L5.5 1.8L8.9 12.2L0 5.8L-8.9 12.2L-5.5 1.8L-14.4 -4.7L-3.4 -4.7Z" transform="translate(758 400)"></path><path d="M0 -5.7L1.3 -1.7L5.4 -1.7L2.1 0.7L3.3 4.6L0 2.2L-3.3 4.6L-2.1 0.7L-5.4 -1.7L-1.3 -1.7Z" transform="translate(33 192)"></path><path d="M0 -11.3L2.5 -3.5L10.8 -3.5L4.1 1.3L6.7 9.2L0 4.3L-6.7 9.2L-4.1 1.3L-10.8 -3.5L-2.5 -3.5Z" transform="translate(300 256)"></path><path d="M0 -6.6L1.5 -2L6.3 -2L2.4 0.8L3.9 5.3L0 2.5L-3.9 5.3L-2.4 0.8L-6.3 -2L-1.5 -2Z" transform="translate(471 197)"></path><path d="M0 -11.3L2.5 -3.5L10.8 -3.5L4.1 1.3L6.7 9.2L0 4.3L-6.7 9.2L-4.1 1.3L-10.8 -3.5L-2.5 -3.5Z" transform="translate(76 477)"></path><path d="M0 -5.7L1.3 -1.7L5.4 -1.7L2.1 0.7L3.3 4.6L0 2.2L-3.3 4.6L-2.1 0.7L-5.4 -1.7L-1.3 -1.7Z" transform="translate(704 294)"></path><path d="M0 -10.4L2.3 -3.2L9.9 -3.2L3.8 1.2L6.1 8.4L0 4L-6.1 8.4L-3.8 1.2L-9.9 -3.2L-2.3 -3.2Z" transform="translate(785 335)"></path><path d="M0 -11.3L2.5 -3.5L10.8 -3.5L4.1 1.3L6.7 9.2L0 4.3L-6.7 9.2L-4.1 1.3L-10.8 -3.5L-2.5 -3.5Z" transform="translate(319 449)"></path><path d="M0 -6.6L1.5 -2L6.3 -2L2.4 0.8L3.9 5.3L0 2.5L-3.9 5.3L-2.4 0.8L-6.3 -2L-1.5 -2Z" transform="translate(855 489)"></path><path d="M0 -12.3L2.8 -3.8L11.7 -3.8L4.5 1.4L7.2 9.9L0 4.7L-7.2 9.9L-4.5 1.4L-11.7 -3.8L-2.8 -3.8Z" transform="translate(510 374)"></path><path d="M0 -8.5L1.9 -2.6L8.1 -2.6L3.1 1L5 6.9L0 3.2L-5 6.9L-3.1 1L-8.1 -2.6L-1.9 -2.6Z" transform="translate(207 405)"></path><path d="M0 -6.6L1.5 -2L6.3 -2L2.4 0.8L3.9 5.3L0 2.5L-3.9 5.3L-2.4 0.8L-6.3 -2L-1.5 -2Z" transform="translate(600 194)"></path><path d="M0 -5.7L1.3 -1.7L5.4 -1.7L2.1 0.7L3.3 4.6L0 2.2L-3.3 4.6L-2.1 0.7L-5.4 -1.7L-1.3 -1.7Z" transform="translate(497 245)"></path><path d="M0 -13.2L3 -4.1L12.6 -4.1L4.8 1.6L7.8 10.7L0 5L-7.8 10.7L-4.8 1.6L-12.6 -4.1L-3 -4.1Z" transform="translate(512 329)"></path><path d="M0 -8.5L1.9 -2.6L8.1 -2.6L3.1 1L5 6.9L0 3.2L-5 6.9L-3.1 1L-8.1 -2.6L-1.9 -2.6Z" transform="translate(119 593)"></path><path d="M0 -13.2L3 -4.1L12.6 -4.1L4.8 1.6L7.8 10.7L0 5L-7.8 10.7L-4.8 1.6L-12.6 -4.1L-3 -4.1Z" transform="translate(853 550)"></path><path d="M0 -5.7L1.3 -1.7L5.4 -1.7L2.1 0.7L3.3 4.6L0 2.2L-3.3 4.6L-2.1 0.7L-5.4 -1.7L-1.3 -1.7Z" transform="translate(849 232)"></path><path d="M0 -14.2L3.2 -4.4L13.5 -4.4L5.1 1.7L8.3 11.5L0 5.4L-8.3 11.5L-5.1 1.7L-13.5 -4.4L-3.2 -4.4Z" transform="translate(642 148)"></path><path d="M0 -13.2L3 -4.1L12.6 -4.1L4.8 1.6L7.8 10.7L0 5L-7.8 10.7L-4.8 1.6L-12.6 -4.1L-3 -4.1Z" transform="translate(750 310)"></path><path d="M0 -8.5L1.9 -2.6L8.1 -2.6L3.1 1L5 6.9L0 3.2L-5 6.9L-3.1 1L-8.1 -2.6L-1.9 -2.6Z" transform="translate(876 316)"></path><path d="M0 -11.3L2.5 -3.5L10.8 -3.5L4.1 1.3L6.7 9.2L0 4.3L-6.7 9.2L-4.1 1.3L-10.8 -3.5L-2.5 -3.5Z" transform="translate(5 363)"></path><path d="M0 -5.7L1.3 -1.7L5.4 -1.7L2.1 0.7L3.3 4.6L0 2.2L-3.3 4.6L-2.1 0.7L-5.4 -1.7L-1.3 -1.7Z" transform="translate(508 577)"></path><path d="M0 -6.6L1.5 -2L6.3 -2L2.4 0.8L3.9 5.3L0 2.5L-3.9 5.3L-2.4 0.8L-6.3 -2L-1.5 -2Z" transform="translate(337 230)"></path><path d="M0 -10.4L2.3 -3.2L9.9 -3.2L3.8 1.2L6.1 8.4L0 4L-6.1 8.4L-3.8 1.2L-9.9 -3.2L-2.3 -3.2Z" transform="translate(800 97)"></path><path d="M0 -11.3L2.5 -3.5L10.8 -3.5L4.1 1.3L6.7 9.2L0 4.3L-6.7 9.2L-4.1 1.3L-10.8 -3.5L-2.5 -3.5Z" transform="translate(458 25)"></path><path d="M0 -5.7L1.3 -1.7L5.4 -1.7L2.1 0.7L3.3 4.6L0 2.2L-3.3 4.6L-2.1 0.7L-5.4 -1.7L-1.3 -1.7Z" transform="translate(133 11)"></path><path d="M0 -11.3L2.5 -3.5L10.8 -3.5L4.1 1.3L6.7 9.2L0 4.3L-6.7 9.2L-4.1 1.3L-10.8 -3.5L-2.5 -3.5Z" transform="translate(369 186)"></path><path d="M0 -6.6L1.5 -2L6.3 -2L2.4 0.8L3.9 5.3L0 2.5L-3.9 5.3L-2.4 0.8L-6.3 -2L-1.5 -2Z" transform="translate(295 78)"></path><path d="M0 -15.1L3.4 -4.7L14.4 -4.7L5.5 1.8L8.9 12.2L0 5.8L-8.9 12.2L-5.5 1.8L-14.4 -4.7L-3.4 -4.7Z" transform="translate(546 395)"></path><path d="M0 -13.2L3 -4.1L12.6 -4.1L4.8 1.6L7.8 10.7L0 5L-7.8 10.7L-4.8 1.6L-12.6 -4.1L-3 -4.1Z" transform="translate(732 357)"></path><path d="M0 -11.3L2.5 -3.5L10.8 -3.5L4.1 1.3L6.7 9.2L0 4.3L-6.7 9.2L-4.1 1.3L-10.8 -3.5L-2.5 -3.5Z" transform="translate(183 547)"></path><path d="M0 -4.7L1.1 -1.5L4.5 -1.5L1.7 0.6L2.8 3.8L0 1.8L-2.8 3.8L-1.7 0.6L-4.5 -1.5L-1.1 -1.5Z" transform="translate(889 40)"></path><path d="M0 -12.3L2.8 -3.8L11.7 -3.8L4.5 1.4L7.2 9.9L0 4.7L-7.2 9.9L-4.5 1.4L-11.7 -3.8L-2.8 -3.8Z" transform="translate(597 152)"></path><path d="M0 -14.2L3.2 -4.4L13.5 -4.4L5.1 1.7L8.3 11.5L0 5.4L-8.3 11.5L-5.1 1.7L-13.5 -4.4L-3.2 -4.4Z" transform="translate(651 10)"></path><path d="M0 -9.4L2.1 -2.9L9 -2.9L3.4 1.1L5.5 7.6L0 3.6L-5.5 7.6L-3.4 1.1L-9 -2.9L-2.1 -2.9Z" transform="translate(310 383)"></path><path d="M0 -15.1L3.4 -4.7L14.4 -4.7L5.5 1.8L8.9 12.2L0 5.8L-8.9 12.2L-5.5 1.8L-14.4 -4.7L-3.4 -4.7Z" transform="translate(185 313)"></path><path d="M0 -13.2L3 -4.1L12.6 -4.1L4.8 1.6L7.8 10.7L0 5L-7.8 10.7L-4.8 1.6L-12.6 -4.1L-3 -4.1Z" transform="translate(262 184)"></path><path d="M0 -9.4L2.1 -2.9L9 -2.9L3.4 1.1L5.5 7.6L0 3.6L-5.5 7.6L-3.4 1.1L-9 -2.9L-2.1 -2.9Z" transform="translate(62 130)"></path><path d="M0 -15.1L3.4 -4.7L14.4 -4.7L5.5 1.8L8.9 12.2L0 5.8L-8.9 12.2L-5.5 1.8L-14.4 -4.7L-3.4 -4.7Z" transform="translate(774 195)"></path><path d="M0 -11.3L2.5 -3.5L10.8 -3.5L4.1 1.3L6.7 9.2L0 4.3L-6.7 9.2L-4.1 1.3L-10.8 -3.5L-2.5 -3.5Z" transform="translate(847 596)"></path><path d="M0 -14.2L3.2 -4.4L13.5 -4.4L5.1 1.7L8.3 11.5L0 5.4L-8.3 11.5L-5.1 1.7L-13.5 -4.4L-3.2 -4.4Z" transform="translate(533 153)"></path><path d="M0 -6.6L1.5 -2L6.3 -2L2.4 0.8L3.9 5.3L0 2.5L-3.9 5.3L-2.4 0.8L-6.3 -2L-1.5 -2Z" transform="translate(219 357)"></path><path d="M0 -5.7L1.3 -1.7L5.4 -1.7L2.1 0.7L3.3 4.6L0 2.2L-3.3 4.6L-2.1 0.7L-5.4 -1.7L-1.3 -1.7Z" transform="translate(298 169)"></path><path d="M0 -12.3L2.8 -3.8L11.7 -3.8L4.5 1.4L7.2 9.9L0 4.7L-7.2 9.9L-4.5 1.4L-11.7 -3.8L-2.8 -3.8Z" transform="translate(287 22)"></path><path d="M0 -11.3L2.5 -3.5L10.8 -3.5L4.1 1.3L6.7 9.2L0 4.3L-6.7 9.2L-4.1 1.3L-10.8 -3.5L-2.5 -3.5Z" transform="translate(224 291)"></path><path d="M0 -15.1L3.4 -4.7L14.4 -4.7L5.5 1.8L8.9 12.2L0 5.8L-8.9 12.2L-5.5 1.8L-14.4 -4.7L-3.4 -4.7Z" transform="translate(709 534)"></path><path d="M0 -11.3L2.5 -3.5L10.8 -3.5L4.1 1.3L6.7 9.2L0 4.3L-6.7 9.2L-4.1 1.3L-10.8 -3.5L-2.5 -3.5Z" transform="translate(680 256)"></path><path d="M0 -11.3L2.5 -3.5L10.8 -3.5L4.1 1.3L6.7 9.2L0 4.3L-6.7 9.2L-4.1 1.3L-10.8 -3.5L-2.5 -3.5Z" transform="translate(897 556)"></path><path d="M0 -8.5L1.9 -2.6L8.1 -2.6L3.1 1L5 6.9L0 3.2L-5 6.9L-3.1 1L-8.1 -2.6L-1.9 -2.6Z" transform="translate(651 436)"></path><path d="M0 -8.5L1.9 -2.6L8.1 -2.6L3.1 1L5 6.9L0 3.2L-5 6.9L-3.1 1L-8.1 -2.6L-1.9 -2.6Z" transform="translate(184 60)"></path><path d="M0 -8.5L1.9 -2.6L8.1 -2.6L3.1 1L5 6.9L0 3.2L-5 6.9L-3.1 1L-8.1 -2.6L-1.9 -2.6Z" transform="translate(367 29)"></path><path d="M0 -7.6L1.7 -2.3L7.2 -2.3L2.7 0.9L4.4 6.1L0 2.9L-4.4 6.1L-2.7 0.9L-7.2 -2.3L-1.7 -2.3Z" transform="translate(76 360)"></path><path d="M0 -14.2L3.2 -4.4L13.5 -4.4L5.1 1.7L8.3 11.5L0 5.4L-8.3 11.5L-5.1 1.7L-13.5 -4.4L-3.2 -4.4Z" transform="translate(249 21)"></path><path d="M0 -5.7L1.3 -1.7L5.4 -1.7L2.1 0.7L3.3 4.6L0 2.2L-3.3 4.6L-2.1 0.7L-5.4 -1.7L-1.3 -1.7Z" transform="translate(418 238)"></path><path d="M0 -8.5L1.9 -2.6L8.1 -2.6L3.1 1L5 6.9L0 3.2L-5 6.9L-3.1 1L-8.1 -2.6L-1.9 -2.6Z" transform="translate(522 426)"></path><path d="M0 -7.6L1.7 -2.3L7.2 -2.3L2.7 0.9L4.4 6.1L0 2.9L-4.4 6.1L-2.7 0.9L-7.2 -2.3L-1.7 -2.3Z" transform="translate(479 148)"></path><path d="M0 -9.4L2.1 -2.9L9 -2.9L3.4 1.1L5.5 7.6L0 3.6L-5.5 7.6L-3.4 1.1L-9 -2.9L-2.1 -2.9Z" transform="translate(355 377)"></path><path d="M0 -12.3L2.8 -3.8L11.7 -3.8L4.5 1.4L7.2 9.9L0 4.7L-7.2 9.9L-4.5 1.4L-11.7 -3.8L-2.8 -3.8Z" transform="translate(125 366)"></path><path d="M0 -14.2L3.2 -4.4L13.5 -4.4L5.1 1.7L8.3 11.5L0 5.4L-8.3 11.5L-5.1 1.7L-13.5 -4.4L-3.2 -4.4Z" transform="translate(756 82)"></path><path d="M0 -7.6L1.7 -2.3L7.2 -2.3L2.7 0.9L4.4 6.1L0 2.9L-4.4 6.1L-2.7 0.9L-7.2 -2.3L-1.7 -2.3Z" transform="translate(686 383)"></path><path d="M0 -14.2L3.2 -4.4L13.5 -4.4L5.1 1.7L8.3 11.5L0 5.4L-8.3 11.5L-5.1 1.7L-13.5 -4.4L-3.2 -4.4Z" transform="translate(27 264)"></path><path d="M0 -11.3L2.5 -3.5L10.8 -3.5L4.1 1.3L6.7 9.2L0 4.3L-6.7 9.2L-4.1 1.3L-10.8 -3.5L-2.5 -3.5Z" transform="translate(263 583)"></path><path d="M0 -6.6L1.5 -2L6.3 -2L2.4 0.8L3.9 5.3L0 2.5L-3.9 5.3L-2.4 0.8L-6.3 -2L-1.5 -2Z" transform="translate(83 246)"></path><path d="M0 -15.1L3.4 -4.7L14.4 -4.7L5.5 1.8L8.9 12.2L0 5.8L-8.9 12.2L-5.5 1.8L-14.4 -4.7L-3.4 -4.7Z" transform="translate(714 55)"></path><path d="M0 -9.4L2.1 -2.9L9 -2.9L3.4 1.1L5.5 7.6L0 3.6L-5.5 7.6L-3.4 1.1L-9 -2.9L-2.1 -2.9Z" transform="translate(140 506)"></path><path d="M0 -9.4L2.1 -2.9L9 -2.9L3.4 1.1L5.5 7.6L0 3.6L-5.5 7.6L-3.4 1.1L-9 -2.9L-2.1 -2.9Z" transform="translate(778 502)"></path><path d="M0 -8.5L1.9 -2.6L8.1 -2.6L3.1 1L5 6.9L0 3.2L-5 6.9L-3.1 1L-8.1 -2.6L-1.9 -2.6Z" transform="translate(472 57)"></path><path d="M0 -6.6L1.5 -2L6.3 -2L2.4 0.8L3.9 5.3L0 2.5L-3.9 5.3L-2.4 0.8L-6.3 -2L-1.5 -2Z" transform="translate(474 591)"></path><path d="M0 -8.5L1.9 -2.6L8.1 -2.6L3.1 1L5 6.9L0 3.2L-5 6.9L-3.1 1L-8.1 -2.6L-1.9 -2.6Z" transform="translate(89 192)"></path><path d="M0 -5.7L1.3 -1.7L5.4 -1.7L2.1 0.7L3.3 4.6L0 2.2L-3.3 4.6L-2.1 0.7L-5.4 -1.7L-1.3 -1.7Z" transform="translate(634 207)"></path><path d="M0 -5.7L1.3 -1.7L5.4 -1.7L2.1 0.7L3.3 4.6L0 2.2L-3.3 4.6L-2.1 0.7L-5.4 -1.7L-1.3 -1.7Z" transform="translate(157 412)"></path><path d="M0 -13.2L3 -4.1L12.6 -4.1L4.8 1.6L7.8 10.7L0 5L-7.8 10.7L-4.8 1.6L-12.6 -4.1L-3 -4.1Z" transform="translate(341 598)"></path><path d="M0 -12.3L2.8 -3.8L11.7 -3.8L4.5 1.4L7.2 9.9L0 4.7L-7.2 9.9L-4.5 1.4L-11.7 -3.8L-2.8 -3.8Z" transform="translate(50 331)"></path><path d="M0 -6.6L1.5 -2L6.3 -2L2.4 0.8L3.9 5.3L0 2.5L-3.9 5.3L-2.4 0.8L-6.3 -2L-1.5 -2Z" transform="translate(751 554)"></path><path d="M0 -4.7L1.1 -1.5L4.5 -1.5L1.7 0.6L2.8 3.8L0 1.8L-2.8 3.8L-1.7 0.6L-4.5 -1.5L-1.1 -1.5Z" transform="translate(160 590)"></path><path d="M0 -7.6L1.7 -2.3L7.2 -2.3L2.7 0.9L4.4 6.1L0 2.9L-4.4 6.1L-2.7 0.9L-7.2 -2.3L-1.7 -2.3Z" transform="translate(579 518)"></path><path d="M0 -7.6L1.7 -2.3L7.2 -2.3L2.7 0.9L4.4 6.1L0 2.9L-4.4 6.1L-2.7 0.9L-7.2 -2.3L-1.7 -2.3Z" transform="translate(622 568)"></path><path d="M0 -14.2L3.2 -4.4L13.5 -4.4L5.1 1.7L8.3 11.5L0 5.4L-8.3 11.5L-5.1 1.7L-13.5 -4.4L-3.2 -4.4Z" transform="translate(452 536)"></path><path d="M0 -12.3L2.8 -3.8L11.7 -3.8L4.5 1.4L7.2 9.9L0 4.7L-7.2 9.9L-4.5 1.4L-11.7 -3.8L-2.8 -3.8Z" transform="translate(699 109)"></path><path d="M0 -10.4L2.3 -3.2L9.9 -3.2L3.8 1.2L6.1 8.4L0 4L-6.1 8.4L-3.8 1.2L-9.9 -3.2L-2.3 -3.2Z" transform="translate(130 547)"></path><path d="M0 -14.2L3.2 -4.4L13.5 -4.4L5.1 1.7L8.3 11.5L0 5.4L-8.3 11.5L-5.1 1.7L-13.5 -4.4L-3.2 -4.4Z" transform="translate(650 286)"></path><path d="M0 -7.6L1.7 -2.3L7.2 -2.3L2.7 0.9L4.4 6.1L0 2.9L-4.4 6.1L-2.7 0.9L-7.2 -2.3L-1.7 -2.3Z" transform="translate(885 351)"></path><path d="M0 -12.3L2.8 -3.8L11.7 -3.8L4.5 1.4L7.2 9.9L0 4.7L-7.2 9.9L-4.5 1.4L-11.7 -3.8L-2.8 -3.8Z" transform="translate(848 386)"></path><path d="M0 -5.7L1.3 -1.7L5.4 -1.7L2.1 0.7L3.3 4.6L0 2.2L-3.3 4.6L-2.1 0.7L-5.4 -1.7L-1.3 -1.7Z" transform="translate(405 505)"></path><path d="M0 -12.3L2.8 -3.8L11.7 -3.8L4.5 1.4L7.2 9.9L0 4.7L-7.2 9.9L-4.5 1.4L-11.7 -3.8L-2.8 -3.8Z" transform="translate(582 333)"></path><path d="M0 -12.3L2.8 -3.8L11.7 -3.8L4.5 1.4L7.2 9.9L0 4.7L-7.2 9.9L-4.5 1.4L-11.7 -3.8L-2.8 -3.8Z" transform="translate(155 208)"></path><path d="M0 -15.1L3.4 -4.7L14.4 -4.7L5.5 1.8L8.9 12.2L0 5.8L-8.9 12.2L-5.5 1.8L-14.4 -4.7L-3.4 -4.7Z" transform="translate(251 265)"></path><path d="M0 -10.4L2.3 -3.2L9.9 -3.2L3.8 1.2L6.1 8.4L0 4L-6.1 8.4L-3.8 1.2L-9.9 -3.2L-2.3 -3.2Z" transform="translate(268 373)"></path><path d="M0 -5.7L1.3 -1.7L5.4 -1.7L2.1 0.7L3.3 4.6L0 2.2L-3.3 4.6L-2.1 0.7L-5.4 -1.7L-1.3 -1.7Z" transform="translate(773 455)"></path><path d="M0 -15.1L3.4 -4.7L14.4 -4.7L5.5 1.8L8.9 12.2L0 5.8L-8.9 12.2L-5.5 1.8L-14.4 -4.7L-3.4 -4.7Z" transform="translate(679 517)"></path><path d="M0 -8.5L1.9 -2.6L8.1 -2.6L3.1 1L5 6.9L0 3.2L-5 6.9L-3.1 1L-8.1 -2.6L-1.9 -2.6Z" transform="translate(633 247)"></path><path d="M0 -10.4L2.3 -3.2L9.9 -3.2L3.8 1.2L6.1 8.4L0 4L-6.1 8.4L-3.8 1.2L-9.9 -3.2L-2.3 -3.2Z" transform="translate(726 179)"></path><path d="M0 -11.3L2.5 -3.5L10.8 -3.5L4.1 1.3L6.7 9.2L0 4.3L-6.7 9.2L-4.1 1.3L-10.8 -3.5L-2.5 -3.5Z" transform="translate(232 455)"></path><path d="M0 -15.1L3.4 -4.7L14.4 -4.7L5.5 1.8L8.9 12.2L0 5.8L-8.9 12.2L-5.5 1.8L-14.4 -4.7L-3.4 -4.7Z" transform="translate(773 277)"></path><path d="M0 -6.6L1.5 -2L6.3 -2L2.4 0.8L3.9 5.3L0 2.5L-3.9 5.3L-2.4 0.8L-6.3 -2L-1.5 -2Z" transform="translate(12 110)"></path><path d="M0 -6.6L1.5 -2L6.3 -2L2.4 0.8L3.9 5.3L0 2.5L-3.9 5.3L-2.4 0.8L-6.3 -2L-1.5 -2Z" transform="translate(415 326)"></path><path d="M0 -10.4L2.3 -3.2L9.9 -3.2L3.8 1.2L6.1 8.4L0 4L-6.1 8.4L-3.8 1.2L-9.9 -3.2L-2.3 -3.2Z" transform="translate(166 92)"></path><path d="M0 -10.4L2.3 -3.2L9.9 -3.2L3.8 1.2L6.1 8.4L0 4L-6.1 8.4L-3.8 1.2L-9.9 -3.2L-2.3 -3.2Z" transform="translate(459 283)"></path><path d="M0 -9.4L2.1 -2.9L9 -2.9L3.4 1.1L5.5 7.6L0 3.6L-5.5 7.6L-3.4 1.1L-9 -2.9L-2.1 -2.9Z" transform="translate(612 16)"></path><path d="M0 -4.7L1.1 -1.5L4.5 -1.5L1.7 0.6L2.8 3.8L0 1.8L-2.8 3.8L-1.7 0.6L-4.5 -1.5L-1.1 -1.5Z" transform="translate(48 541)"></path><path d="M0 -10.4L2.3 -3.2L9.9 -3.2L3.8 1.2L6.1 8.4L0 4L-6.1 8.4L-3.8 1.2L-9.9 -3.2L-2.3 -3.2Z" transform="translate(786 540)"></path><path d="M0 -15.1L3.4 -4.7L14.4 -4.7L5.5 1.8L8.9 12.2L0 5.8L-8.9 12.2L-5.5 1.8L-14.4 -4.7L-3.4 -4.7Z" transform="translate(384 466)"></path><path d="M0 -13.2L3 -4.1L12.6 -4.1L4.8 1.6L7.8 10.7L0 5L-7.8 10.7L-4.8 1.6L-12.6 -4.1L-3 -4.1Z" transform="translate(329 185)"></path><path d="M0 -6.6L1.5 -2L6.3 -2L2.4 0.8L3.9 5.3L0 2.5L-3.9 5.3L-2.4 0.8L-6.3 -2L-1.5 -2Z" transform="translate(888 596)"></path><path d="M0 -4.7L1.1 -1.5L4.5 -1.5L1.7 0.6L2.8 3.8L0 1.8L-2.8 3.8L-1.7 0.6L-4.5 -1.5L-1.1 -1.5Z" transform="translate(862 69)"></path><path d="M0 -6.6L1.5 -2L6.3 -2L2.4 0.8L3.9 5.3L0 2.5L-3.9 5.3L-2.4 0.8L-6.3 -2L-1.5 -2Z" transform="translate(599 598)"></path><path d="M0 -15.1L3.4 -4.7L14.4 -4.7L5.5 1.8L8.9 12.2L0 5.8L-8.9 12.2L-5.5 1.8L-14.4 -4.7L-3.4 -4.7Z" transform="translate(673 594)"></path><path d="M0 -4.7L1.1 -1.5L4.5 -1.5L1.7 0.6L2.8 3.8L0 1.8L-2.8 3.8L-1.7 0.6L-4.5 -1.5L-1.1 -1.5Z" transform="translate(623 67)"></path><path d="M0 -12.3L2.8 -3.8L11.7 -3.8L4.5 1.4L7.2 9.9L0 4.7L-7.2 9.9L-4.5 1.4L-11.7 -3.8L-2.8 -3.8Z" transform="translate(191 180)"></path><path d="M0 -14.2L3.2 -4.4L13.5 -4.4L5.1 1.7L8.3 11.5L0 5.4L-8.3 11.5L-5.1 1.7L-13.5 -4.4L-3.2 -4.4Z" transform="translate(111 122)"></path><path d="M0 -13.2L3 -4.1L12.6 -4.1L4.8 1.6L7.8 10.7L0 5L-7.8 10.7L-4.8 1.6L-12.6 -4.1L-3 -4.1Z" transform="translate(434 164)"></path><path d="M0 -4.7L1.1 -1.5L4.5 -1.5L1.7 0.6L2.8 3.8L0 1.8L-2.8 3.8L-1.7 0.6L-4.5 -1.5L-1.1 -1.5Z" transform="translate(585 565)"></path><path d="M0 -4.7L1.1 -1.5L4.5 -1.5L1.7 0.6L2.8 3.8L0 1.8L-2.8 3.8L-1.7 0.6L-4.5 -1.5L-1.1 -1.5Z" transform="translate(746 255)"></path><path d="M0 -5.7L1.3 -1.7L5.4 -1.7L2.1 0.7L3.3 4.6L0 2.2L-3.3 4.6L-2.1 0.7L-5.4 -1.7L-1.3 -1.7Z" transform="translate(281 339)"></path><path d="M0 -13.2L3 -4.1L12.6 -4.1L4.8 1.6L7.8 10.7L0 5L-7.8 10.7L-4.8 1.6L-12.6 -4.1L-3 -4.1Z" transform="translate(428 45)"></path><path d="M0 -12.3L2.8 -3.8L11.7 -3.8L4.5 1.4L7.2 9.9L0 4.7L-7.2 9.9L-4.5 1.4L-11.7 -3.8L-2.8 -3.8Z" transform="translate(405 185)"></path><path d="M0 -14.2L3.2 -4.4L13.5 -4.4L5.1 1.7L8.3 11.5L0 5.4L-8.3 11.5L-5.1 1.7L-13.5 -4.4L-3.2 -4.4Z" transform="translate(770 115)"></path><path d="M0 -7.6L1.7 -2.3L7.2 -2.3L2.7 0.9L4.4 6.1L0 2.9L-4.4 6.1L-2.7 0.9L-7.2 -2.3L-1.7 -2.3Z" transform="translate(541 113)"></path><path d="M0 -8.5L1.9 -2.6L8.1 -2.6L3.1 1L5 6.9L0 3.2L-5 6.9L-3.1 1L-8.1 -2.6L-1.9 -2.6Z" transform="translate(892 277)"></path><path d="M0 -14.2L3.2 -4.4L13.5 -4.4L5.1 1.7L8.3 11.5L0 5.4L-8.3 11.5L-5.1 1.7L-13.5 -4.4L-3.2 -4.4Z" transform="translate(893 514)"></path><path d="M0 -9.4L2.1 -2.9L9 -2.9L3.4 1.1L5.5 7.6L0 3.6L-5.5 7.6L-3.4 1.1L-9 -2.9L-2.1 -2.9Z" transform="translate(576 423)"></path><path d="M0 -5.7L1.3 -1.7L5.4 -1.7L2.1 0.7L3.3 4.6L0 2.2L-3.3 4.6L-2.1 0.7L-5.4 -1.7L-1.3 -1.7Z" transform="translate(380 314)"></path><path d="M0 -10.4L2.3 -3.2L9.9 -3.2L3.8 1.2L6.1 8.4L0 4L-6.1 8.4L-3.8 1.2L-9.9 -3.2L-2.3 -3.2Z" transform="translate(596 300)"></path><path d="M0 -5.7L1.3 -1.7L5.4 -1.7L2.1 0.7L3.3 4.6L0 2.2L-3.3 4.6L-2.1 0.7L-5.4 -1.7L-1.3 -1.7Z" transform="translate(686 446)"></path><path d="M0 -4.7L1.1 -1.5L4.5 -1.5L1.7 0.6L2.8 3.8L0 1.8L-2.8 3.8L-1.7 0.6L-4.5 -1.5L-1.1 -1.5Z" transform="translate(333 11)"></path><path d="M0 -10.4L2.3 -3.2L9.9 -3.2L3.8 1.2L6.1 8.4L0 4L-6.1 8.4L-3.8 1.2L-9.9 -3.2L-2.3 -3.2Z" transform="translate(520 287)"></path><path d="M0 -14.2L3.2 -4.4L13.5 -4.4L5.1 1.7L8.3 11.5L0 5.4L-8.3 11.5L-5.1 1.7L-13.5 -4.4L-3.2 -4.4Z" transform="translate(695 20)"></path><path d="M0 -7.6L1.7 -2.3L7.2 -2.3L2.7 0.9L4.4 6.1L0 2.9L-4.4 6.1L-2.7 0.9L-7.2 -2.3L-1.7 -2.3Z" transform="translate(853 147)"></path><path d="M0 -5.7L1.3 -1.7L5.4 -1.7L2.1 0.7L3.3 4.6L0 2.2L-3.3 4.6L-2.1 0.7L-5.4 -1.7L-1.3 -1.7Z" transform="translate(587 238)"></path><path d="M0 -4.7L1.1 -1.5L4.5 -1.5L1.7 0.6L2.8 3.8L0 1.8L-2.8 3.8L-1.7 0.6L-4.5 -1.5L-1.1 -1.5Z" transform="translate(852 35)"></path><path d="M0 -9.4L2.1 -2.9L9 -2.9L3.4 1.1L5.5 7.6L0 3.6L-5.5 7.6L-3.4 1.1L-9 -2.9L-2.1 -2.9Z" transform="translate(536 53)"></path><path d="M0 -12.3L2.8 -3.8L11.7 -3.8L4.5 1.4L7.2 9.9L0 4.7L-7.2 9.9L-4.5 1.4L-11.7 -3.8L-2.8 -3.8Z" transform="translate(567 169)"></path><path d="M0 -15.1L3.4 -4.7L14.4 -4.7L5.5 1.8L8.9 12.2L0 5.8L-8.9 12.2L-5.5 1.8L-14.4 -4.7L-3.4 -4.7Z" transform="translate(6 467)"></path><path d="M0 -5.7L1.3 -1.7L5.4 -1.7L2.1 0.7L3.3 4.6L0 2.2L-3.3 4.6L-2.1 0.7L-5.4 -1.7L-1.3 -1.7Z" transform="translate(59 8)"></path><path d="M0 -10.4L2.3 -3.2L9.9 -3.2L3.8 1.2L6.1 8.4L0 4L-6.1 8.4L-3.8 1.2L-9.9 -3.2L-2.3 -3.2Z" transform="translate(502 491)"></path><path d="M0 -6.6L1.5 -2L6.3 -2L2.4 0.8L3.9 5.3L0 2.5L-3.9 5.3L-2.4 0.8L-6.3 -2L-1.5 -2Z" transform="translate(472 364)"></path><path d="M0 -5.7L1.3 -1.7L5.4 -1.7L2.1 0.7L3.3 4.6L0 2.2L-3.3 4.6L-2.1 0.7L-5.4 -1.7L-1.3 -1.7Z" transform="translate(643 357)"></path><path d="M0 -14.2L3.2 -4.4L13.5 -4.4L5.1 1.7L8.3 11.5L0 5.4L-8.3 11.5L-5.1 1.7L-13.5 -4.4L-3.2 -4.4Z" transform="translate(78 401)"></path><path d="M0 -8.5L1.9 -2.6L8.1 -2.6L3.1 1L5 6.9L0 3.2L-5 6.9L-3.1 1L-8.1 -2.6L-1.9 -2.6Z" transform="translate(382 221)"></path><path d="M0 -4.7L1.1 -1.5L4.5 -1.5L1.7 0.6L2.8 3.8L0 1.8L-2.8 3.8L-1.7 0.6L-4.5 -1.5L-1.1 -1.5Z" transform="translate(86 283)"></path><path d="M0 -9.4L2.1 -2.9L9 -2.9L3.4 1.1L5.5 7.6L0 3.6L-5.5 7.6L-3.4 1.1L-9 -2.9L-2.1 -2.9Z" transform="translate(630 483)"></path><path d="M0 -11.3L2.5 -3.5L10.8 -3.5L4.1 1.3L6.7 9.2L0 4.3L-6.7 9.2L-4.1 1.3L-10.8 -3.5L-2.5 -3.5Z" transform="translate(350 534)"></path><path d="M0 -11.3L2.5 -3.5L10.8 -3.5L4.1 1.3L6.7 9.2L0 4.3L-6.7 9.2L-4.1 1.3L-10.8 -3.5L-2.5 -3.5Z" transform="translate(319 484)"></path><path d="M0 -13.2L3 -4.1L12.6 -4.1L4.8 1.6L7.8 10.7L0 5L-7.8 10.7L-4.8 1.6L-12.6 -4.1L-3 -4.1Z" transform="translate(898 221)"></path><path d="M0 -4.7L1.1 -1.5L4.5 -1.5L1.7 0.6L2.8 3.8L0 1.8L-2.8 3.8L-1.7 0.6L-4.5 -1.5L-1.1 -1.5Z" transform="translate(206 479)"></path><path d="M0 -15.1L3.4 -4.7L14.4 -4.7L5.5 1.8L8.9 12.2L0 5.8L-8.9 12.2L-5.5 1.8L-14.4 -4.7L-3.4 -4.7Z" transform="translate(404 399)"></path><path d="M0 -10.4L2.3 -3.2L9.9 -3.2L3.8 1.2L6.1 8.4L0 4L-6.1 8.4L-3.8 1.2L-9.9 -3.2L-2.3 -3.2Z" transform="translate(875 1)"></path><path d="M0 -12.3L2.8 -3.8L11.7 -3.8L4.5 1.4L7.2 9.9L0 4.7L-7.2 9.9L-4.5 1.4L-11.7 -3.8L-2.8 -3.8Z" transform="translate(831 7)"></path><path d="M0 -8.5L1.9 -2.6L8.1 -2.6L3.1 1L5 6.9L0 3.2L-5 6.9L-3.1 1L-8.1 -2.6L-1.9 -2.6Z" transform="translate(48 233)"></path><path d="M0 -12.3L2.8 -3.8L11.7 -3.8L4.5 1.4L7.2 9.9L0 4.7L-7.2 9.9L-4.5 1.4L-11.7 -3.8L-2.8 -3.8Z" transform="translate(858 268)"></path><path d="M0 -6.6L1.5 -2L6.3 -2L2.4 0.8L3.9 5.3L0 2.5L-3.9 5.3L-2.4 0.8L-6.3 -2L-1.5 -2Z" transform="translate(134 78)"></path><path d="M0 -14.2L3.2 -4.4L13.5 -4.4L5.1 1.7L8.3 11.5L0 5.4L-8.3 11.5L-5.1 1.7L-13.5 -4.4L-3.2 -4.4Z" transform="translate(221 242)"></path><path d="M0 -6.6L1.5 -2L6.3 -2L2.4 0.8L3.9 5.3L0 2.5L-3.9 5.3L-2.4 0.8L-6.3 -2L-1.5 -2Z" transform="translate(171 484)"></path><path d="M0 -12.3L2.8 -3.8L11.7 -3.8L4.5 1.4L7.2 9.9L0 4.7L-7.2 9.9L-4.5 1.4L-11.7 -3.8L-2.8 -3.8Z" transform="translate(95 507)"></path><path d="M0 -10.4L2.3 -3.2L9.9 -3.2L3.8 1.2L6.1 8.4L0 4L-6.1 8.4L-3.8 1.2L-9.9 -3.2L-2.3 -3.2Z" transform="translate(738 2)"></path><path d="M0 -10.4L2.3 -3.2L9.9 -3.2L3.8 1.2L6.1 8.4L0 4L-6.1 8.4L-3.8 1.2L-9.9 -3.2L-2.3 -3.2Z" transform="translate(741 433)"></path><path d="M0 -6.6L1.5 -2L6.3 -2L2.4 0.8L3.9 5.3L0 2.5L-3.9 5.3L-2.4 0.8L-6.3 -2L-1.5 -2Z" transform="translate(2 400)"></path><path d="M0 -15.1L3.4 -4.7L14.4 -4.7L5.5 1.8L8.9 12.2L0 5.8L-8.9 12.2L-5.5 1.8L-14.4 -4.7L-3.4 -4.7Z" transform="translate(677 213)"></path><path d="M0 -6.6L1.5 -2L6.3 -2L2.4 0.8L3.9 5.3L0 2.5L-3.9 5.3L-2.4 0.8L-6.3 -2L-1.5 -2Z" transform="translate(47 295)"></path><path d="M0 -13.2L3 -4.1L12.6 -4.1L4.8 1.6L7.8 10.7L0 5L-7.8 10.7L-4.8 1.6L-12.6 -4.1L-3 -4.1Z" transform="translate(791 5)"></path><path d="M0 -7.6L1.7 -2.3L7.2 -2.3L2.7 0.9L4.4 6.1L0 2.9L-4.4 6.1L-2.7 0.9L-7.2 -2.3L-1.7 -2.3Z" transform="translate(304 417)"></path><path d="M0 -7.6L1.7 -2.3L7.2 -2.3L2.7 0.9L4.4 6.1L0 2.9L-4.4 6.1L-2.7 0.9L-7.2 -2.3L-1.7 -2.3Z" transform="translate(405 541)"></path><path d="M0 -6.6L1.5 -2L6.3 -2L2.4 0.8L3.9 5.3L0 2.5L-3.9 5.3L-2.4 0.8L-6.3 -2L-1.5 -2Z" transform="translate(461 240)"></path><path d="M0 -15.1L3.4 -4.7L14.4 -4.7L5.5 1.8L8.9 12.2L0 5.8L-8.9 12.2L-5.5 1.8L-14.4 -4.7L-3.4 -4.7Z" transform="translate(526 221)"></path><path d="M0 -7.6L1.7 -2.3L7.2 -2.3L2.7 0.9L4.4 6.1L0 2.9L-4.4 6.1L-2.7 0.9L-7.2 -2.3L-1.7 -2.3Z" transform="translate(362 80)"></path><path d="M0 -5.7L1.3 -1.7L5.4 -1.7L2.1 0.7L3.3 4.6L0 2.2L-3.3 4.6L-2.1 0.7L-5.4 -1.7L-1.3 -1.7Z" transform="translate(390 258)"></path><path d="M0 -15.1L3.4 -4.7L14.4 -4.7L5.5 1.8L8.9 12.2L0 5.8L-8.9 12.2L-5.5 1.8L-14.4 -4.7L-3.4 -4.7Z" transform="translate(607 400)"></path><path d="M0 -5.7L1.3 -1.7L5.4 -1.7L2.1 0.7L3.3 4.6L0 2.2L-3.3 4.6L-2.1 0.7L-5.4 -1.7L-1.3 -1.7Z" transform="translate(312 135)"></path><path d="M0 -15.1L3.4 -4.7L14.4 -4.7L5.5 1.8L8.9 12.2L0 5.8L-8.9 12.2L-5.5 1.8L-14.4 -4.7L-3.4 -4.7Z" transform="translate(222 551)"></path><path d="M0 -6.6L1.5 -2L6.3 -2L2.4 0.8L3.9 5.3L0 2.5L-3.9 5.3L-2.4 0.8L-6.3 -2L-1.5 -2Z" transform="translate(817 212)"></path><path d="M0 -9.4L2.1 -2.9L9 -2.9L3.4 1.1L5.5 7.6L0 3.6L-5.5 7.6L-3.4 1.1L-9 -2.9L-2.1 -2.9Z" transform="translate(297 592)"></path><path d="M0 -14.2L3.2 -4.4L13.5 -4.4L5.1 1.7L8.3 11.5L0 5.4L-8.3 11.5L-5.1 1.7L-13.5 -4.4L-3.2 -4.4Z" transform="translate(898 422)"></path><path d="M0 -6.6L1.5 -2L6.3 -2L2.4 0.8L3.9 5.3L0 2.5L-3.9 5.3L-2.4 0.8L-6.3 -2L-1.5 -2Z" transform="translate(198 439)"></path><path d="M0 -14.2L3.2 -4.4L13.5 -4.4L5.1 1.7L8.3 11.5L0 5.4L-8.3 11.5L-5.1 1.7L-13.5 -4.4L-3.2 -4.4Z" transform="translate(504 113)"></path><path d="M0 -13.2L3 -4.1L12.6 -4.1L4.8 1.6L7.8 10.7L0 5L-7.8 10.7L-4.8 1.6L-12.6 -4.1L-3 -4.1Z" transform="translate(209 147)"></path><path d="M0 -7.6L1.7 -2.3L7.2 -2.3L2.7 0.9L4.4 6.1L0 2.9L-4.4 6.1L-2.7 0.9L-7.2 -2.3L-1.7 -2.3Z" transform="translate(552 315)"></path><path d="M0 -13.2L3 -4.1L12.6 -4.1L4.8 1.6L7.8 10.7L0 5L-7.8 10.7L-4.8 1.6L-12.6 -4.1L-3 -4.1Z" transform="translate(67 164)"></path><path d="M0 -13.2L3 -4.1L12.6 -4.1L4.8 1.6L7.8 10.7L0 5L-7.8 10.7L-4.8 1.6L-12.6 -4.1L-3 -4.1Z" transform="translate(820 251)"></path></g></svg>