<svg id="visual" viewBox="0 0 900 600" width="900" height="600" xmlns="http://www.w3.org/2000/svg" xmlns:xlink="http://www.w3.org/1999/xlink" version="1.1"><g stroke-width="1" stroke-linejoin="bevel"><path d="M450 300L450 200L337.5 200Z" fill="#1f1f1f" stroke="#1f1f1f"></path><path d="M337.5 200L337.5 300L450 300Z" fill="#1c5873" stroke="#1c5873"></path><path d="M337.5 300L450 400L450 300Z" fill="#212427" stroke="#212427"></path><path d="M450 200L450 100L337.5 200Z" fill="#222a2e" stroke="#222a2e"></path><path d="M337.5 300L337.5 400L450 400Z" fill="#1f1f1f" stroke="#1f1f1f"></path><path d="M450 100L337.5 100L337.5 200Z" fill="#212427" stroke="#212427"></path><path d="M450 400L562.5 300L450 300Z" fill="#243a47" stroke="#243a47"></path><path d="M450 300L562.5 300L450 200Z" fill="#244050" stroke="#244050"></path><path d="M450 200L562.5 200L450 100Z" fill="#212427" stroke="#212427"></path><path d="M337.5 200L225 300L337.5 300Z" fill="#232f36" stroke="#232f36"></path><path d="M337.5 300L225 300L337.5 400Z" fill="#212427" stroke="#212427"></path><path d="M225 200L225 300L337.5 200Z" fill="#1f1f1f" stroke="#1f1f1f"></path><path d="M337.5 100L225 200L337.5 200Z" fill="#24343f" stroke="#24343f"></path><path d="M562.5 300L562.5 200L450 200Z" fill="#1f526a" stroke="#1f526a"></path><path d="M450 400L562.5 400L562.5 300Z" fill="#1f526a" stroke="#1f526a"></path><path d="M225 300L225 400L337.5 400Z" fill="#232f36" stroke="#232f36"></path><path d="M337.5 100L225 100L225 200Z" fill="#222a2e" stroke="#222a2e"></path><path d="M562.5 200L562.5 100L450 100Z" fill="#234658" stroke="#234658"></path><path d="M225 400L337.5 500L337.5 400Z" fill="#24343f" stroke="#24343f"></path><path d="M337.5 400L337.5 500L450 400Z" fill="#1f1f1f" stroke="#1f1f1f"></path><path d="M450 400L450 500L562.5 400Z" fill="#1f526a" stroke="#1f526a"></path><path d="M562.5 100L450 0L450 100Z" fill="#244050" stroke="#244050"></path><path d="M450 100L450 0L337.5 100Z" fill="#224c61" stroke="#224c61"></path><path d="M337.5 100L337.5 0L225 100Z" fill="#222a2e" stroke="#222a2e"></path><path d="M450 0L337.5 0L337.5 100Z" fill="#24343f" stroke="#24343f"></path><path d="M337.5 500L450 500L450 400Z" fill="#222a2e" stroke="#222a2e"></path><path d="M225 300L112.5 300L225 400Z" fill="#224c61" stroke="#224c61"></path><path d="M225 200L112.5 300L225 300Z" fill="#224c61" stroke="#224c61"></path><path d="M112.5 200L112.5 300L225 200Z" fill="#1f526a" stroke="#1f526a"></path><path d="M562.5 400L675 300L562.5 300Z" fill="#244050" stroke="#244050"></path><path d="M562.5 300L675 300L562.5 200Z" fill="#1c5873" stroke="#1c5873"></path><path d="M562.5 200L675 200L562.5 100Z" fill="#232f36" stroke="#232f36"></path><path d="M225 100L112.5 200L225 200Z" fill="#1f526a" stroke="#1f526a"></path><path d="M675 300L675 200L562.5 200Z" fill="#24343f" stroke="#24343f"></path><path d="M225 400L225 500L337.5 500Z" fill="#232f36" stroke="#232f36"></path><path d="M112.5 400L225 500L225 400Z" fill="#234658" stroke="#234658"></path><path d="M450 500L562.5 500L562.5 400Z" fill="#1c5873" stroke="#1c5873"></path><path d="M562.5 400L675 400L675 300Z" fill="#1f1f1f" stroke="#1f1f1f"></path><path d="M337.5 0L225 0L225 100Z" fill="#1f526a" stroke="#1f526a"></path><path d="M225 100L112.5 100L112.5 200Z" fill="#232f36" stroke="#232f36"></path><path d="M562.5 100L562.5 0L450 0Z" fill="#1c5873" stroke="#1c5873"></path><path d="M675 100L562.5 0L562.5 100Z" fill="#212427" stroke="#212427"></path><path d="M225 0L112.5 100L225 100Z" fill="#24343f" stroke="#24343f"></path><path d="M675 200L675 100L562.5 100Z" fill="#1c5873" stroke="#1c5873"></path><path d="M562.5 500L675 400L562.5 400Z" fill="#1c5873" stroke="#1c5873"></path><path d="M112.5 300L112.5 400L225 400Z" fill="#243a47" stroke="#243a47"></path><path d="M225 500L337.5 600L337.5 500Z" fill="#1f526a" stroke="#1f526a"></path><path d="M337.5 500L337.5 600L450 500Z" fill="#1f1f1f" stroke="#1f1f1f"></path><path d="M450 500L450 600L562.5 500Z" fill="#244050" stroke="#244050"></path><path d="M337.5 600L450 600L450 500Z" fill="#224c61" stroke="#224c61"></path><path d="M225 0L112.5 0L112.5 100Z" fill="#212427" stroke="#212427"></path><path d="M112.5 400L112.5 500L225 500Z" fill="#1f526a" stroke="#1f526a"></path><path d="M225 500L225 600L337.5 600Z" fill="#1f1f1f" stroke="#1f1f1f"></path><path d="M675 100L675 0L562.5 0Z" fill="#232f36" stroke="#232f36"></path><path d="M562.5 500L675 500L675 400Z" fill="#224c61" stroke="#224c61"></path><path d="M562.5 600L675 500L562.5 500Z" fill="#234658" stroke="#234658"></path><path d="M112.5 500L225 600L225 500Z" fill="#224c61" stroke="#224c61"></path><path d="M450 600L562.5 600L562.5 500Z" fill="#232f36" stroke="#232f36"></path><path d="M787.5 400L787.5 300L675 400Z" fill="#1c5873" stroke="#1c5873"></path><path d="M675 400L787.5 300L675 300Z" fill="#212427" stroke="#212427"></path><path d="M675 300L787.5 300L675 200Z" fill="#1f526a" stroke="#1f526a"></path><path d="M675 200L787.5 200L675 100Z" fill="#244050" stroke="#244050"></path><path d="M675 100L787.5 100L675 0Z" fill="#1c5873" stroke="#1c5873"></path><path d="M112.5 400L0 400L112.5 500Z" fill="#1c5873" stroke="#1c5873"></path><path d="M112.5 300L0 300L112.5 400Z" fill="#1c5873" stroke="#1c5873"></path><path d="M112.5 200L0 300L112.5 300Z" fill="#234658" stroke="#234658"></path><path d="M0 200L0 300L112.5 200Z" fill="#1c5873" stroke="#1c5873"></path><path d="M0 200L112.5 200L112.5 100Z" fill="#243a47" stroke="#243a47"></path><path d="M0 100L0 200L112.5 100Z" fill="#234658" stroke="#234658"></path><path d="M787.5 300L787.5 200L675 200Z" fill="#212427" stroke="#212427"></path><path d="M787.5 200L787.5 100L675 100Z" fill="#234658" stroke="#234658"></path><path d="M0 300L0 400L112.5 400Z" fill="#224c61" stroke="#224c61"></path><path d="M112.5 0L0 100L112.5 100Z" fill="#1f1f1f" stroke="#1f1f1f"></path><path d="M675 500L787.5 400L675 400Z" fill="#1f526a" stroke="#1f526a"></path><path d="M562.5 600L675 600L675 500Z" fill="#1f526a" stroke="#1f526a"></path><path d="M675 500L787.5 500L787.5 400Z" fill="#232f36" stroke="#232f36"></path><path d="M112.5 500L112.5 600L225 600Z" fill="#1f1f1f" stroke="#1f1f1f"></path><path d="M0 500L112.5 600L112.5 500Z" fill="#222a2e" stroke="#222a2e"></path><path d="M675 600L787.5 500L675 500Z" fill="#232f36" stroke="#232f36"></path><path d="M112.5 0L0 0L0 100Z" fill="#243a47" stroke="#243a47"></path><path d="M0 400L0 500L112.5 500Z" fill="#224c61" stroke="#224c61"></path><path d="M787.5 100L787.5 0L675 0Z" fill="#24343f" stroke="#24343f"></path><path d="M900 400L900 300L787.5 400Z" fill="#212427" stroke="#212427"></path><path d="M787.5 400L900 300L787.5 300Z" fill="#1f526a" stroke="#1f526a"></path><path d="M787.5 300L900 300L787.5 200Z" fill="#24343f" stroke="#24343f"></path><path d="M787.5 200L900 200L787.5 100Z" fill="#234658" stroke="#234658"></path><path d="M787.5 100L900 100L787.5 0Z" fill="#1f1f1f" stroke="#1f1f1f"></path><path d="M900 300L900 200L787.5 200Z" fill="#244050" stroke="#244050"></path><path d="M0 500L0 600L112.5 600Z" fill="#1f1f1f" stroke="#1f1f1f"></path><path d="M787.5 500L900 400L787.5 400Z" fill="#212427" stroke="#212427"></path><path d="M675 600L787.5 600L787.5 500Z" fill="#24343f" stroke="#24343f"></path><path d="M900 500L900 400L787.5 500Z" fill="#1c5873" stroke="#1c5873"></path><path d="M900 200L900 100L787.5 100Z" fill="#1f526a" stroke="#1f526a"></path><path d="M787.5 600L900 500L787.5 500Z" fill="#232f36" stroke="#232f36"></path><path d="M900 100L900 0L787.5 0Z" fill="#222a2e" stroke="#222a2e"></path><path d="M787.5 600L900 600L900 500Z" fill="#244050" stroke="#244050"></path></g></svg>