<svg id="visual" viewBox="0 0 900 600" width="900" height="600" xmlns="http://www.w3.org/2000/svg" xmlns:xlink="http://www.w3.org/1999/xlink" version="1.1"><path d="M0 61L30 55C60 49 120 37 180 42C240 47 300 69 360 76C420 83 480 75 540 79C600 83 660 99 720 94C780 89 840 63 870 50L900 37L900 0L870 0C840 0 780 0 720 0C660 0 600 0 540 0C480 0 420 0 360 0C300 0 240 0 180 0C120 0 60 0 30 0L0 0Z" fill="#fde68a"></path><path d="M0 175L30 167C60 159 120 143 180 146C240 149 300 171 360 176C420 181 480 169 540 166C600 163 660 169 720 158C780 147 840 119 870 105L900 91L900 35L870 48C840 61 780 87 720 92C660 97 600 81 540 77C480 73 420 81 360 74C300 67 240 45 180 40C120 35 60 47 30 53L0 59Z" fill="#fad56d"></path><path d="M0 271L30 252C60 233 120 195 180 192C240 189 300 221 360 248C420 275 480 297 540 310C600 323 660 327 720 298C780 269 840 207 870 176L900 145L900 89L870 103C840 117 780 145 720 156C660 167 600 161 540 164C480 167 420 179 360 174C300 169 240 147 180 144C120 141 60 157 30 165L0 173Z" fill="#f8c450"></path><path d="M0 319L30 311C60 303 120 287 180 309C240 331 300 391 360 418C420 445 480 439 540 429C600 419 660 405 720 388C780 371 840 351 870 341L900 331L900 143L870 174C840 205 780 267 720 296C660 325 600 321 540 308C480 295 420 273 360 246C300 219 240 187 180 190C120 193 60 231 30 250L0 269Z" fill="#f6b233"></path><path d="M0 601L30 601C60 601 120 601 180 601C240 601 300 601 360 601C420 601 480 601 540 601C600 601 660 601 720 601C780 601 840 601 870 601L900 601L900 329L870 339C840 349 780 369 720 386C660 403 600 417 540 427C480 437 420 443 360 416C300 389 240 329 180 307C120 285 60 301 30 309L0 317Z" fill="#f59e0b"></path></svg>