<svg id="visual" viewBox="0 0 900 600" xmlns="http://www.w3.org/2000/svg" xmlns:xlink="http://www.w3.org/1999/xlink" version="1.1" preserveAspectRatio="none"><path d="M0 73L37.5 86C75 99 150 125 225 119C300 113 375 75 450 55C525 35 600 33 675 43C750 53 825 75 862.5 86L900 97L900 0L862.5 0C825 0 750 0 675 0C600 0 525 0 450 0C375 0 300 0 225 0C150 0 75 0 37.5 0L0 0Z" fill="#1b1b1e"></path><path d="M0 217L37.5 224C75 231 150 245 225 250C300 255 375 251 450 259C525 267 600 287 675 279C750 271 825 235 862.5 217L900 199L900 95L862.5 84C825 73 750 51 675 41C600 31 525 33 450 53C375 73 300 111 225 117C150 123 75 97 37.5 84L0 71Z" fill="#412d41"></path><path d="M0 307L37.5 306C75 305 150 303 225 312C300 321 375 341 450 352C525 363 600 365 675 346C750 327 825 287 862.5 267L900 247L900 197L862.5 215C825 233 750 269 675 277C600 285 525 265 450 257C375 249 300 253 225 248C150 243 75 229 37.5 222L0 215Z" fill="#78394d"></path><path d="M0 367L37.5 379C75 391 150 415 225 435C300 455 375 471 450 479C525 487 600 487 675 469C750 451 825 415 862.5 397L900 379L900 245L862.5 265C825 285 750 325 675 344C600 363 525 361 450 350C375 339 300 319 225 310C150 301 75 303 37.5 304L0 305Z" fill="#a74f3f"></path><path d="M0 601L37.5 601C75 601 150 601 225 601C300 601 375 601 450 601C525 601 600 601 675 601C750 601 825 601 862.5 601L900 601L900 377L862.5 395C825 413 750 449 675 467C600 485 525 485 450 477C375 469 300 453 225 433C150 413 75 389 37.5 377L0 365Z" fill="#b7791f"></path></svg>