<svg id="visual" viewBox="0 0 900 600" preserveAspectRatio="none" xmlns="http://www.w3.org/2000/svg" xmlns:xlink="http://www.w3.org/1999/xlink" version="1.1"><path d="M0 175L37.5 161C75 147 150 119 225 124C300 129 375 167 450 180C525 193 600 181 675 168C750 155 825 141 862.5 134L900 127L900 0L862.5 0C825 0 750 0 675 0C600 0 525 0 450 0C375 0 300 0 225 0C150 0 75 0 37.5 0L0 0Z" fill="#1b1b1e"></path><path d="M0 265L37.5 254C75 243 150 221 225 229C300 237 375 275 450 282C525 289 600 265 675 253C750 241 825 241 862.5 241L900 241L900 125L862.5 132C825 139 750 153 675 166C600 179 525 191 450 178C375 165 300 127 225 122C150 117 75 145 37.5 159L0 173Z" fill="#382636"></path><path d="M0 307L37.5 297C75 287 150 267 225 283C300 299 375 351 450 361C525 371 600 339 675 324C750 309 825 311 862.5 312L900 313L900 239L862.5 239C825 239 750 239 675 251C600 263 525 287 450 280C375 273 300 235 225 227C150 219 75 241 37.5 252L0 263Z" fill="#612c39"></path><path d="M0 439L37.5 429C75 419 150 399 225 408C300 417 375 455 450 468C525 481 600 469 675 460C750 451 825 445 862.5 442L900 439L900 311L862.5 310C825 309 750 307 675 322C600 337 525 369 450 359C375 349 300 297 225 281C150 265 75 285 37.5 295L0 305Z" fill="#7e3c26"></path><path d="M0 601L37.5 601C75 601 150 601 225 601C300 601 375 601 450 601C525 601 600 601 675 601C750 601 825 601 862.5 601L900 601L900 437L862.5 440C825 443 750 449 675 458C600 467 525 479 450 466C375 453 300 415 225 406C150 397 75 417 37.5 427L0 437Z" fill="#7e5c00"></path></svg>